ISO-10303-21;
HEADER;
/* Generated by software containing ST-Developer
 * from STEP Tools, Inc. (www.steptools.com) 
 */

FILE_DESCRIPTION(
/* description */ (''),
/* implementation_level */ '2;1');

FILE_NAME(
/* name */ 'polarimeter-adapter.step',
/* time_stamp */ '2026-08-21T20:11:44-05:00',
/* author */ (''),
/* organization */ (''),
/* preprocessor_version */ 'ST-DEVELOPER v20.1',
/* originating_system */ 'Autodesk Translation Framework v15.8.0.0',
/* authorisation */ '');

FILE_SCHEMA (('AUTOMOTIVE_DESIGN { 1 0 10303 214 3 1 1 }'));
ENDSEC;

DATA;
#10=MECHANICAL_DESIGN_GEOMETRIC_PRESENTATION_REPRESENTATION('',(#13),#659);
#11=SHAPE_REPRESENTATION_RELATIONSHIP('SRR','None',#666,#12);
#12=ADVANCED_BREP_SHAPE_REPRESENTATION('',(#14),#658);
#13=STYLED_ITEM('',(#676),#14);
#14=MANIFOLD_SOLID_BREP('Body1',#375);
#15=CYLINDRICAL_SURFACE('',#410,4.99999999999999);
#16=CYLINDRICAL_SURFACE('',#413,4.99999999999999);
#17=CYLINDRICAL_SURFACE('',#416,4.99999999999999);
#18=CYLINDRICAL_SURFACE('',#418,3.5);
#19=CYLINDRICAL_SURFACE('',#419,2.15);
#20=CYLINDRICAL_SURFACE('',#426,2.1525);
#21=CYLINDRICAL_SURFACE('',#427,3.5);
#22=CYLINDRICAL_SURFACE('',#428,2.1525);
#23=CYLINDRICAL_SURFACE('',#429,3.75);
#24=CYLINDRICAL_SURFACE('',#431,5.);
#25=CYLINDRICAL_SURFACE('',#433,2.15);
#26=CYLINDRICAL_SURFACE('',#434,3.75);
#27=LINE('',#577,#51);
#28=LINE('',#581,#52);
#29=LINE('',#585,#53);
#30=LINE('',#589,#54);
#31=LINE('',#601,#55);
#32=LINE('',#604,#56);
#33=LINE('',#607,#57);
#34=LINE('',#608,#58);
#35=LINE('',#611,#59);
#36=LINE('',#615,#60);
#37=LINE('',#616,#61);
#38=LINE('',#619,#62);
#39=LINE('',#622,#63);
#40=LINE('',#625,#64);
#41=LINE('',#629,#65);
#42=LINE('',#632,#66);
#43=LINE('',#640,#67);
#44=LINE('',#642,#68);
#45=LINE('',#644,#69);
#46=LINE('',#646,#70);
#47=LINE('',#648,#71);
#48=LINE('',#650,#72);
#49=LINE('',#653,#73);
#50=LINE('',#655,#74);
#51=VECTOR('',#463,10.);
#52=VECTOR('',#466,10.);
#53=VECTOR('',#469,10.);
#54=VECTOR('',#472,10.);
#55=VECTOR('',#485,10.);
#56=VECTOR('',#488,10.);
#57=VECTOR('',#491,10.);
#58=VECTOR('',#492,10.);
#59=VECTOR('',#495,10.);
#60=VECTOR('',#500,10.);
#61=VECTOR('',#501,10.);
#62=VECTOR('',#504,10.);
#63=VECTOR('',#509,3.5);
#64=VECTOR('',#512,2.15);
#65=VECTOR('',#517,10.);
#66=VECTOR('',#520,10.);
#67=VECTOR('',#529,2.1525);
#68=VECTOR('',#532,3.5);
#69=VECTOR('',#535,2.1525);
#70=VECTOR('',#538,3.75);
#71=VECTOR('',#541,10.);
#72=VECTOR('',#544,10.);
#73=VECTOR('',#549,2.15);
#74=VECTOR('',#552,3.75);
#75=FACE_BOUND('',#110,.T.);
#76=FACE_BOUND('',#112,.T.);
#77=FACE_BOUND('',#114,.T.);
#78=FACE_BOUND('',#116,.T.);
#79=FACE_BOUND('',#118,.T.);
#80=FACE_BOUND('',#119,.T.);
#81=FACE_BOUND('',#120,.T.);
#82=FACE_BOUND('',#121,.T.);
#83=FACE_BOUND('',#130,.T.);
#84=FACE_BOUND('',#131,.T.);
#85=FACE_BOUND('',#132,.T.);
#86=FACE_BOUND('',#133,.T.);
#87=FACE_OUTER_BOUND('',#109,.T.);
#88=FACE_OUTER_BOUND('',#111,.T.);
#89=FACE_OUTER_BOUND('',#113,.T.);
#90=FACE_OUTER_BOUND('',#115,.T.);
#91=FACE_OUTER_BOUND('',#117,.T.);
#92=FACE_OUTER_BOUND('',#122,.T.);
#93=FACE_OUTER_BOUND('',#123,.T.);
#94=FACE_OUTER_BOUND('',#124,.T.);
#95=FACE_OUTER_BOUND('',#125,.T.);
#96=FACE_OUTER_BOUND('',#126,.T.);
#97=FACE_OUTER_BOUND('',#127,.T.);
#98=FACE_OUTER_BOUND('',#128,.T.);
#99=FACE_OUTER_BOUND('',#129,.T.);
#100=FACE_OUTER_BOUND('',#134,.T.);
#101=FACE_OUTER_BOUND('',#135,.T.);
#102=FACE_OUTER_BOUND('',#136,.T.);
#103=FACE_OUTER_BOUND('',#137,.T.);
#104=FACE_OUTER_BOUND('',#138,.T.);
#105=FACE_OUTER_BOUND('',#139,.T.);
#106=FACE_OUTER_BOUND('',#140,.T.);
#107=FACE_OUTER_BOUND('',#141,.T.);
#108=FACE_OUTER_BOUND('',#142,.T.);
#109=EDGE_LOOP('',(#247));
#110=EDGE_LOOP('',(#248));
#111=EDGE_LOOP('',(#249));
#112=EDGE_LOOP('',(#250));
#113=EDGE_LOOP('',(#251));
#114=EDGE_LOOP('',(#252));
#115=EDGE_LOOP('',(#253));
#116=EDGE_LOOP('',(#254));
#117=EDGE_LOOP('',(#255,#256,#257,#258,#259,#260,#261,#262));
#118=EDGE_LOOP('',(#263));
#119=EDGE_LOOP('',(#264));
#120=EDGE_LOOP('',(#265));
#121=EDGE_LOOP('',(#266));
#122=EDGE_LOOP('',(#267,#268,#269,#270));
#123=EDGE_LOOP('',(#271,#272,#273,#274));
#124=EDGE_LOOP('',(#275,#276,#277,#278));
#125=EDGE_LOOP('',(#279,#280,#281,#282));
#126=EDGE_LOOP('',(#283,#284,#285,#286));
#127=EDGE_LOOP('',(#287,#288,#289,#290));
#128=EDGE_LOOP('',(#291,#292,#293,#294));
#129=EDGE_LOOP('',(#295,#296,#297,#298,#299,#300,#301,#302));
#130=EDGE_LOOP('',(#303));
#131=EDGE_LOOP('',(#304));
#132=EDGE_LOOP('',(#305));
#133=EDGE_LOOP('',(#306));
#134=EDGE_LOOP('',(#307,#308,#309,#310));
#135=EDGE_LOOP('',(#311,#312,#313,#314));
#136=EDGE_LOOP('',(#315,#316,#317,#318));
#137=EDGE_LOOP('',(#319,#320,#321,#322));
#138=EDGE_LOOP('',(#323,#324,#325,#326));
#139=EDGE_LOOP('',(#327,#328,#329,#330));
#140=EDGE_LOOP('',(#331,#332,#333,#334));
#141=EDGE_LOOP('',(#335,#336,#337,#338));
#142=EDGE_LOOP('',(#339,#340,#341,#342));
#143=CIRCLE('',#390,3.75);
#144=CIRCLE('',#391,2.1525);
#145=CIRCLE('',#393,3.75);
#146=CIRCLE('',#394,2.1525);
#147=CIRCLE('',#396,3.5);
#148=CIRCLE('',#397,2.15);
#149=CIRCLE('',#399,3.5);
#150=CIRCLE('',#400,2.15);
#151=CIRCLE('',#402,4.99999999999999);
#152=CIRCLE('',#403,4.99999999999999);
#153=CIRCLE('',#404,4.99999999999999);
#154=CIRCLE('',#405,5.);
#155=CIRCLE('',#406,3.5);
#156=CIRCLE('',#407,3.5);
#157=CIRCLE('',#408,2.1525);
#158=CIRCLE('',#409,2.1525);
#159=CIRCLE('',#411,4.99999999999999);
#160=CIRCLE('',#414,4.99999999999999);
#161=CIRCLE('',#417,4.99999999999999);
#162=CIRCLE('',#420,2.15);
#163=CIRCLE('',#422,5.);
#164=CIRCLE('',#423,3.75);
#165=CIRCLE('',#424,2.15);
#166=CIRCLE('',#425,3.75);
#167=VERTEX_POINT('',#555);
#168=VERTEX_POINT('',#557);
#169=VERTEX_POINT('',#560);
#170=VERTEX_POINT('',#562);
#171=VERTEX_POINT('',#565);
#172=VERTEX_POINT('',#567);
#173=VERTEX_POINT('',#570);
#174=VERTEX_POINT('',#572);
#175=VERTEX_POINT('',#575);
#176=VERTEX_POINT('',#576);
#177=VERTEX_POINT('',#578);
#178=VERTEX_POINT('',#580);
#179=VERTEX_POINT('',#582);
#180=VERTEX_POINT('',#584);
#181=VERTEX_POINT('',#586);
#182=VERTEX_POINT('',#588);
#183=VERTEX_POINT('',#591);
#184=VERTEX_POINT('',#593);
#185=VERTEX_POINT('',#595);
#186=VERTEX_POINT('',#597);
#187=VERTEX_POINT('',#600);
#188=VERTEX_POINT('',#602);
#189=VERTEX_POINT('',#606);
#190=VERTEX_POINT('',#610);
#191=VERTEX_POINT('',#614);
#192=VERTEX_POINT('',#618);
#193=VERTEX_POINT('',#624);
#194=VERTEX_POINT('',#628);
#195=VERTEX_POINT('',#630);
#196=VERTEX_POINT('',#633);
#197=VERTEX_POINT('',#635);
#198=VERTEX_POINT('',#637);
#199=EDGE_CURVE('',#167,#167,#143,.T.);
#200=EDGE_CURVE('',#168,#168,#144,.T.);
#201=EDGE_CURVE('',#169,#169,#145,.T.);
#202=EDGE_CURVE('',#170,#170,#146,.T.);
#203=EDGE_CURVE('',#171,#171,#147,.T.);
#204=EDGE_CURVE('',#172,#172,#148,.T.);
#205=EDGE_CURVE('',#173,#173,#149,.T.);
#206=EDGE_CURVE('',#174,#174,#150,.T.);
#207=EDGE_CURVE('',#175,#176,#27,.T.);
#208=EDGE_CURVE('',#177,#175,#151,.T.);
#209=EDGE_CURVE('',#178,#177,#28,.T.);
#210=EDGE_CURVE('',#179,#178,#152,.T.);
#211=EDGE_CURVE('',#180,#179,#29,.T.);
#212=EDGE_CURVE('',#181,#180,#153,.T.);
#213=EDGE_CURVE('',#182,#181,#30,.T.);
#214=EDGE_CURVE('',#176,#182,#154,.T.);
#215=EDGE_CURVE('',#183,#183,#155,.T.);
#216=EDGE_CURVE('',#184,#184,#156,.T.);
#217=EDGE_CURVE('',#185,#185,#157,.T.);
#218=EDGE_CURVE('',#186,#186,#158,.T.);
#219=EDGE_CURVE('',#180,#187,#31,.T.);
#220=EDGE_CURVE('',#187,#188,#159,.T.);
#221=EDGE_CURVE('',#188,#181,#32,.T.);
#222=EDGE_CURVE('',#189,#179,#33,.T.);
#223=EDGE_CURVE('',#187,#189,#34,.T.);
#224=EDGE_CURVE('',#178,#190,#35,.T.);
#225=EDGE_CURVE('',#190,#189,#160,.T.);
#226=EDGE_CURVE('',#191,#177,#36,.T.);
#227=EDGE_CURVE('',#191,#190,#37,.T.);
#228=EDGE_CURVE('',#175,#192,#38,.T.);
#229=EDGE_CURVE('',#192,#191,#161,.T.);
#230=EDGE_CURVE('',#183,#173,#39,.T.);
#231=EDGE_CURVE('',#174,#193,#40,.T.);
#232=EDGE_CURVE('',#193,#193,#162,.T.);
#233=EDGE_CURVE('',#194,#192,#41,.T.);
#234=EDGE_CURVE('',#195,#194,#163,.T.);
#235=EDGE_CURVE('',#188,#195,#42,.T.);
#236=EDGE_CURVE('',#196,#196,#164,.T.);
#237=EDGE_CURVE('',#197,#197,#165,.T.);
#238=EDGE_CURVE('',#198,#198,#166,.T.);
#239=EDGE_CURVE('',#185,#168,#43,.T.);
#240=EDGE_CURVE('',#184,#171,#44,.T.);
#241=EDGE_CURVE('',#186,#170,#45,.T.);
#242=EDGE_CURVE('',#198,#167,#46,.T.);
#243=EDGE_CURVE('',#182,#195,#47,.T.);
#244=EDGE_CURVE('',#194,#176,#48,.T.);
#245=EDGE_CURVE('',#172,#197,#49,.T.);
#246=EDGE_CURVE('',#196,#169,#50,.T.);
#247=ORIENTED_EDGE('',*,*,#199,.F.);
#248=ORIENTED_EDGE('',*,*,#200,.T.);
#249=ORIENTED_EDGE('',*,*,#201,.F.);
#250=ORIENTED_EDGE('',*,*,#202,.T.);
#251=ORIENTED_EDGE('',*,*,#203,.F.);
#252=ORIENTED_EDGE('',*,*,#204,.F.);
#253=ORIENTED_EDGE('',*,*,#205,.F.);
#254=ORIENTED_EDGE('',*,*,#206,.F.);
#255=ORIENTED_EDGE('',*,*,#207,.F.);
#256=ORIENTED_EDGE('',*,*,#208,.F.);
#257=ORIENTED_EDGE('',*,*,#209,.F.);
#258=ORIENTED_EDGE('',*,*,#210,.F.);
#259=ORIENTED_EDGE('',*,*,#211,.F.);
#260=ORIENTED_EDGE('',*,*,#212,.F.);
#261=ORIENTED_EDGE('',*,*,#213,.F.);
#262=ORIENTED_EDGE('',*,*,#214,.F.);
#263=ORIENTED_EDGE('',*,*,#215,.F.);
#264=ORIENTED_EDGE('',*,*,#216,.F.);
#265=ORIENTED_EDGE('',*,*,#217,.F.);
#266=ORIENTED_EDGE('',*,*,#218,.F.);
#267=ORIENTED_EDGE('',*,*,#212,.T.);
#268=ORIENTED_EDGE('',*,*,#219,.T.);
#269=ORIENTED_EDGE('',*,*,#220,.T.);
#270=ORIENTED_EDGE('',*,*,#221,.T.);
#271=ORIENTED_EDGE('',*,*,#211,.T.);
#272=ORIENTED_EDGE('',*,*,#222,.F.);
#273=ORIENTED_EDGE('',*,*,#223,.F.);
#274=ORIENTED_EDGE('',*,*,#219,.F.);
#275=ORIENTED_EDGE('',*,*,#210,.T.);
#276=ORIENTED_EDGE('',*,*,#224,.T.);
#277=ORIENTED_EDGE('',*,*,#225,.T.);
#278=ORIENTED_EDGE('',*,*,#222,.T.);
#279=ORIENTED_EDGE('',*,*,#209,.T.);
#280=ORIENTED_EDGE('',*,*,#226,.F.);
#281=ORIENTED_EDGE('',*,*,#227,.T.);
#282=ORIENTED_EDGE('',*,*,#224,.F.);
#283=ORIENTED_EDGE('',*,*,#208,.T.);
#284=ORIENTED_EDGE('',*,*,#228,.T.);
#285=ORIENTED_EDGE('',*,*,#229,.T.);
#286=ORIENTED_EDGE('',*,*,#226,.T.);
#287=ORIENTED_EDGE('',*,*,#215,.T.);
#288=ORIENTED_EDGE('',*,*,#230,.T.);
#289=ORIENTED_EDGE('',*,*,#205,.T.);
#290=ORIENTED_EDGE('',*,*,#230,.F.);
#291=ORIENTED_EDGE('',*,*,#206,.T.);
#292=ORIENTED_EDGE('',*,*,#231,.T.);
#293=ORIENTED_EDGE('',*,*,#232,.F.);
#294=ORIENTED_EDGE('',*,*,#231,.F.);
#295=ORIENTED_EDGE('',*,*,#233,.F.);
#296=ORIENTED_EDGE('',*,*,#234,.F.);
#297=ORIENTED_EDGE('',*,*,#235,.F.);
#298=ORIENTED_EDGE('',*,*,#220,.F.);
#299=ORIENTED_EDGE('',*,*,#223,.T.);
#300=ORIENTED_EDGE('',*,*,#225,.F.);
#301=ORIENTED_EDGE('',*,*,#227,.F.);
#302=ORIENTED_EDGE('',*,*,#229,.F.);
#303=ORIENTED_EDGE('',*,*,#232,.T.);
#304=ORIENTED_EDGE('',*,*,#236,.T.);
#305=ORIENTED_EDGE('',*,*,#237,.T.);
#306=ORIENTED_EDGE('',*,*,#238,.T.);
#307=ORIENTED_EDGE('',*,*,#217,.T.);
#308=ORIENTED_EDGE('',*,*,#239,.T.);
#309=ORIENTED_EDGE('',*,*,#200,.F.);
#310=ORIENTED_EDGE('',*,*,#239,.F.);
#311=ORIENTED_EDGE('',*,*,#216,.T.);
#312=ORIENTED_EDGE('',*,*,#240,.T.);
#313=ORIENTED_EDGE('',*,*,#203,.T.);
#314=ORIENTED_EDGE('',*,*,#240,.F.);
#315=ORIENTED_EDGE('',*,*,#218,.T.);
#316=ORIENTED_EDGE('',*,*,#241,.T.);
#317=ORIENTED_EDGE('',*,*,#202,.F.);
#318=ORIENTED_EDGE('',*,*,#241,.F.);
#319=ORIENTED_EDGE('',*,*,#238,.F.);
#320=ORIENTED_EDGE('',*,*,#242,.T.);
#321=ORIENTED_EDGE('',*,*,#199,.T.);
#322=ORIENTED_EDGE('',*,*,#242,.F.);
#323=ORIENTED_EDGE('',*,*,#213,.T.);
#324=ORIENTED_EDGE('',*,*,#221,.F.);
#325=ORIENTED_EDGE('',*,*,#235,.T.);
#326=ORIENTED_EDGE('',*,*,#243,.F.);
#327=ORIENTED_EDGE('',*,*,#214,.T.);
#328=ORIENTED_EDGE('',*,*,#243,.T.);
#329=ORIENTED_EDGE('',*,*,#234,.T.);
#330=ORIENTED_EDGE('',*,*,#244,.T.);
#331=ORIENTED_EDGE('',*,*,#207,.T.);
#332=ORIENTED_EDGE('',*,*,#244,.F.);
#333=ORIENTED_EDGE('',*,*,#233,.T.);
#334=ORIENTED_EDGE('',*,*,#228,.F.);
#335=ORIENTED_EDGE('',*,*,#204,.T.);
#336=ORIENTED_EDGE('',*,*,#245,.T.);
#337=ORIENTED_EDGE('',*,*,#237,.F.);
#338=ORIENTED_EDGE('',*,*,#245,.F.);
#339=ORIENTED_EDGE('',*,*,#236,.F.);
#340=ORIENTED_EDGE('',*,*,#246,.T.);
#341=ORIENTED_EDGE('',*,*,#201,.T.);
#342=ORIENTED_EDGE('',*,*,#246,.F.);
#343=PLANE('',#389);
#344=PLANE('',#392);
#345=PLANE('',#395);
#346=PLANE('',#398);
#347=PLANE('',#401);
#348=PLANE('',#412);
#349=PLANE('',#415);
#350=PLANE('',#421);
#351=PLANE('',#430);
#352=PLANE('',#432);
#353=ADVANCED_FACE('',(#87,#75),#343,.T.);
#354=ADVANCED_FACE('',(#88,#76),#344,.T.);
#355=ADVANCED_FACE('',(#89,#77),#345,.F.);
#356=ADVANCED_FACE('',(#90,#78),#346,.F.);
#357=ADVANCED_FACE('',(#91,#79,#80,#81,#82),#347,.F.);
#358=ADVANCED_FACE('',(#92),#15,.T.);
#359=ADVANCED_FACE('',(#93),#348,.T.);
#360=ADVANCED_FACE('',(#94),#16,.T.);
#361=ADVANCED_FACE('',(#95),#349,.T.);
#362=ADVANCED_FACE('',(#96),#17,.T.);
#363=ADVANCED_FACE('',(#97),#18,.F.);
#364=ADVANCED_FACE('',(#98),#19,.F.);
#365=ADVANCED_FACE('',(#99,#83,#84,#85,#86),#350,.T.);
#366=ADVANCED_FACE('',(#100),#20,.F.);
#367=ADVANCED_FACE('',(#101),#21,.F.);
#368=ADVANCED_FACE('',(#102),#22,.F.);
#369=ADVANCED_FACE('',(#103),#23,.F.);
#370=ADVANCED_FACE('',(#104),#351,.T.);
#371=ADVANCED_FACE('',(#105),#24,.T.);
#372=ADVANCED_FACE('',(#106),#352,.T.);
#373=ADVANCED_FACE('',(#107),#25,.F.);
#374=ADVANCED_FACE('',(#108),#26,.F.);
#375=CLOSED_SHELL('',(#353,#354,#355,#356,#357,#358,#359,#360,#361,#362,
#363,#364,#365,#366,#367,#368,#369,#370,#371,#372,#373,#374));
#376=DERIVED_UNIT_ELEMENT(#378,1.);
#377=DERIVED_UNIT_ELEMENT(#661,-3.);
#378=(
MASS_UNIT()
NAMED_UNIT(*)
SI_UNIT(.KILO.,.GRAM.)
);
#379=DERIVED_UNIT((#376,#377));
#380=MEASURE_REPRESENTATION_ITEM('density measure',
POSITIVE_RATIO_MEASURE(7850.),#379);
#381=PROPERTY_DEFINITION_REPRESENTATION(#386,#383);
#382=PROPERTY_DEFINITION_REPRESENTATION(#387,#384);
#383=REPRESENTATION('material name',(#385),#658);
#384=REPRESENTATION('density',(#380),#658);
#385=DESCRIPTIVE_REPRESENTATION_ITEM('Steel','Steel');
#386=PROPERTY_DEFINITION('material property','material name',#668);
#387=PROPERTY_DEFINITION('material property','density of part',#668);
#388=AXIS2_PLACEMENT_3D('',#553,#435,#436);
#389=AXIS2_PLACEMENT_3D('',#554,#437,#438);
#390=AXIS2_PLACEMENT_3D('',#556,#439,#440);
#391=AXIS2_PLACEMENT_3D('',#558,#441,#442);
#392=AXIS2_PLACEMENT_3D('',#559,#443,#444);
#393=AXIS2_PLACEMENT_3D('',#561,#445,#446);
#394=AXIS2_PLACEMENT_3D('',#563,#447,#448);
#395=AXIS2_PLACEMENT_3D('',#564,#449,#450);
#396=AXIS2_PLACEMENT_3D('',#566,#451,#452);
#397=AXIS2_PLACEMENT_3D('',#568,#453,#454);
#398=AXIS2_PLACEMENT_3D('',#569,#455,#456);
#399=AXIS2_PLACEMENT_3D('',#571,#457,#458);
#400=AXIS2_PLACEMENT_3D('',#573,#459,#460);
#401=AXIS2_PLACEMENT_3D('',#574,#461,#462);
#402=AXIS2_PLACEMENT_3D('',#579,#464,#465);
#403=AXIS2_PLACEMENT_3D('',#583,#467,#468);
#404=AXIS2_PLACEMENT_3D('',#587,#470,#471);
#405=AXIS2_PLACEMENT_3D('',#590,#473,#474);
#406=AXIS2_PLACEMENT_3D('',#592,#475,#476);
#407=AXIS2_PLACEMENT_3D('',#594,#477,#478);
#408=AXIS2_PLACEMENT_3D('',#596,#479,#480);
#409=AXIS2_PLACEMENT_3D('',#598,#481,#482);
#410=AXIS2_PLACEMENT_3D('',#599,#483,#484);
#411=AXIS2_PLACEMENT_3D('',#603,#486,#487);
#412=AXIS2_PLACEMENT_3D('',#605,#489,#490);
#413=AXIS2_PLACEMENT_3D('',#609,#493,#494);
#414=AXIS2_PLACEMENT_3D('',#612,#496,#497);
#415=AXIS2_PLACEMENT_3D('',#613,#498,#499);
#416=AXIS2_PLACEMENT_3D('',#617,#502,#503);
#417=AXIS2_PLACEMENT_3D('',#620,#505,#506);
#418=AXIS2_PLACEMENT_3D('',#621,#507,#508);
#419=AXIS2_PLACEMENT_3D('',#623,#510,#511);
#420=AXIS2_PLACEMENT_3D('',#626,#513,#514);
#421=AXIS2_PLACEMENT_3D('',#627,#515,#516);
#422=AXIS2_PLACEMENT_3D('',#631,#518,#519);
#423=AXIS2_PLACEMENT_3D('',#634,#521,#522);
#424=AXIS2_PLACEMENT_3D('',#636,#523,#524);
#425=AXIS2_PLACEMENT_3D('',#638,#525,#526);
#426=AXIS2_PLACEMENT_3D('',#639,#527,#528);
#427=AXIS2_PLACEMENT_3D('',#641,#530,#531);
#428=AXIS2_PLACEMENT_3D('',#643,#533,#534);
#429=AXIS2_PLACEMENT_3D('',#645,#536,#537);
#430=AXIS2_PLACEMENT_3D('',#647,#539,#540);
#431=AXIS2_PLACEMENT_3D('',#649,#542,#543);
#432=AXIS2_PLACEMENT_3D('',#651,#545,#546);
#433=AXIS2_PLACEMENT_3D('',#652,#547,#548);
#434=AXIS2_PLACEMENT_3D('',#654,#550,#551);
#435=DIRECTION('axis',(0.,0.,1.));
#436=DIRECTION('refdir',(1.,0.,0.));
#437=DIRECTION('center_axis',(0.,0.,1.));
#438=DIRECTION('ref_axis',(2.28847549044393E-17,1.,0.));
#439=DIRECTION('center_axis',(0.,0.,-1.));
#440=DIRECTION('ref_axis',(2.28847549044393E-17,1.,0.));
#441=DIRECTION('center_axis',(0.,0.,-1.));
#442=DIRECTION('ref_axis',(-2.28847549044393E-17,-1.,0.));
#443=DIRECTION('center_axis',(0.,0.,1.));
#444=DIRECTION('ref_axis',(2.28847549044393E-17,1.,0.));
#445=DIRECTION('center_axis',(0.,0.,-1.));
#446=DIRECTION('ref_axis',(2.28847549044393E-17,1.,0.));
#447=DIRECTION('center_axis',(0.,0.,-1.));
#448=DIRECTION('ref_axis',(-2.28847549044393E-17,-1.,0.));
#449=DIRECTION('center_axis',(0.,0.,1.));
#450=DIRECTION('ref_axis',(-1.,0.,0.));
#451=DIRECTION('center_axis',(0.,0.,1.));
#452=DIRECTION('ref_axis',(-1.,0.,0.));
#453=DIRECTION('center_axis',(0.,0.,-1.));
#454=DIRECTION('ref_axis',(-1.,0.,0.));
#455=DIRECTION('center_axis',(0.,0.,1.));
#456=DIRECTION('ref_axis',(-1.,0.,0.));
#457=DIRECTION('center_axis',(0.,0.,1.));
#458=DIRECTION('ref_axis',(-1.,0.,0.));
#459=DIRECTION('center_axis',(0.,0.,-1.));
#460=DIRECTION('ref_axis',(-1.,0.,0.));
#461=DIRECTION('center_axis',(0.,0.,1.));
#462=DIRECTION('ref_axis',(-2.28847549044393E-17,-1.,0.));
#463=DIRECTION('',(-1.,2.28847549044393E-17,0.));
#464=DIRECTION('center_axis',(0.,0.,1.));
#465=DIRECTION('ref_axis',(0.707106781186547,0.707106781186548,0.));
#466=DIRECTION('',(2.28847549044393E-17,1.,0.));
#467=DIRECTION('center_axis',(0.,0.,1.));
#468=DIRECTION('ref_axis',(0.707106781186548,-0.707106781186547,0.));
#469=DIRECTION('',(1.,8.28507712503377E-17,0.));
#470=DIRECTION('center_axis',(0.,0.,1.));
#471=DIRECTION('ref_axis',(-0.707106781186548,-0.707106781186547,0.));
#472=DIRECTION('',(-2.28847549044393E-17,-1.,0.));
#473=DIRECTION('center_axis',(0.,0.,1.));
#474=DIRECTION('ref_axis',(-0.707106781186548,0.707106781186548,0.));
#475=DIRECTION('center_axis',(0.,0.,-1.));
#476=DIRECTION('ref_axis',(-1.,0.,0.));
#477=DIRECTION('center_axis',(0.,0.,-1.));
#478=DIRECTION('ref_axis',(-1.,0.,0.));
#479=DIRECTION('center_axis',(0.,0.,-1.));
#480=DIRECTION('ref_axis',(-2.28847549044393E-17,-1.,0.));
#481=DIRECTION('center_axis',(0.,0.,-1.));
#482=DIRECTION('ref_axis',(-2.28847549044393E-17,-1.,0.));
#483=DIRECTION('center_axis',(0.,0.,-1.));
#484=DIRECTION('ref_axis',(-0.707106781186548,-0.707106781186547,0.));
#485=DIRECTION('',(0.,0.,1.));
#486=DIRECTION('center_axis',(0.,0.,-1.));
#487=DIRECTION('ref_axis',(-0.707106781186548,-0.707106781186547,0.));
#488=DIRECTION('',(0.,0.,-1.));
#489=DIRECTION('center_axis',(8.28507712503377E-17,-1.,0.));
#490=DIRECTION('ref_axis',(1.,8.28507712503377E-17,0.));
#491=DIRECTION('',(0.,0.,-1.));
#492=DIRECTION('',(1.,-2.28847549044393E-17,0.));
#493=DIRECTION('center_axis',(0.,0.,-1.));
#494=DIRECTION('ref_axis',(0.707106781186548,-0.707106781186547,0.));
#495=DIRECTION('',(0.,0.,1.));
#496=DIRECTION('center_axis',(0.,0.,-1.));
#497=DIRECTION('ref_axis',(0.707106781186548,-0.707106781186547,0.));
#498=DIRECTION('center_axis',(1.,-2.28847549044393E-17,0.));
#499=DIRECTION('ref_axis',(0.,0.,1.));
#500=DIRECTION('',(0.,0.,-1.));
#501=DIRECTION('',(-2.28847549044393E-17,-1.,0.));
#502=DIRECTION('center_axis',(0.,0.,1.));
#503=DIRECTION('ref_axis',(0.707106781186547,0.707106781186548,0.));
#504=DIRECTION('',(0.,0.,1.));
#505=DIRECTION('center_axis',(0.,0.,-1.));
#506=DIRECTION('ref_axis',(0.707106781186547,0.707106781186548,0.));
#507=DIRECTION('center_axis',(0.,0.,1.));
#508=DIRECTION('ref_axis',(-1.,0.,0.));
#509=DIRECTION('',(0.,0.,1.));
#510=DIRECTION('center_axis',(0.,0.,1.));
#511=DIRECTION('ref_axis',(-1.,0.,0.));
#512=DIRECTION('',(0.,0.,1.));
#513=DIRECTION('center_axis',(0.,0.,-1.));
#514=DIRECTION('ref_axis',(-1.,0.,0.));
#515=DIRECTION('center_axis',(0.,0.,1.));
#516=DIRECTION('ref_axis',(-2.28847549044393E-17,-1.,0.));
#517=DIRECTION('',(1.,-2.28847549044393E-17,0.));
#518=DIRECTION('center_axis',(0.,0.,-1.));
#519=DIRECTION('ref_axis',(-0.707106781186548,0.707106781186548,0.));
#520=DIRECTION('',(2.28847549044393E-17,1.,0.));
#521=DIRECTION('center_axis',(0.,0.,-1.));
#522=DIRECTION('ref_axis',(2.28847549044393E-17,1.,0.));
#523=DIRECTION('center_axis',(0.,0.,-1.));
#524=DIRECTION('ref_axis',(-1.,0.,0.));
#525=DIRECTION('center_axis',(0.,0.,-1.));
#526=DIRECTION('ref_axis',(2.28847549044393E-17,1.,0.));
#527=DIRECTION('center_axis',(0.,0.,1.));
#528=DIRECTION('ref_axis',(-2.28847549044393E-17,-1.,0.));
#529=DIRECTION('',(0.,0.,1.));
#530=DIRECTION('center_axis',(0.,0.,1.));
#531=DIRECTION('ref_axis',(-1.,0.,0.));
#532=DIRECTION('',(0.,0.,1.));
#533=DIRECTION('center_axis',(0.,0.,1.));
#534=DIRECTION('ref_axis',(-2.28847549044393E-17,-1.,0.));
#535=DIRECTION('',(0.,0.,1.));
#536=DIRECTION('center_axis',(0.,0.,-1.));
#537=DIRECTION('ref_axis',(2.28847549044393E-17,1.,0.));
#538=DIRECTION('',(0.,0.,-1.));
#539=DIRECTION('center_axis',(-1.,2.28847549044393E-17,0.));
#540=DIRECTION('ref_axis',(0.,0.,-1.));
#541=DIRECTION('',(0.,0.,1.));
#542=DIRECTION('center_axis',(0.,0.,1.));
#543=DIRECTION('ref_axis',(-0.707106781186548,0.707106781186548,0.));
#544=DIRECTION('',(0.,0.,-1.));
#545=DIRECTION('center_axis',(2.28847549044393E-17,1.,0.));
#546=DIRECTION('ref_axis',(-1.,2.28847549044393E-17,0.));
#547=DIRECTION('center_axis',(0.,0.,1.));
#548=DIRECTION('ref_axis',(-1.,0.,0.));
#549=DIRECTION('',(0.,0.,1.));
#550=DIRECTION('center_axis',(0.,0.,-1.));
#551=DIRECTION('ref_axis',(2.28847549044393E-17,1.,0.));
#552=DIRECTION('',(0.,0.,-1.));
#553=CARTESIAN_POINT('',(0.,0.,0.));
#554=CARTESIAN_POINT('Origin',(-1.33226762955019E-14,30.,-4.4));
#555=CARTESIAN_POINT('',(-1.33226762955019E-14,26.25,-4.4));
#556=CARTESIAN_POINT('Origin',(-1.33226762955019E-14,30.,-4.4));
#557=CARTESIAN_POINT('',(-1.33226762955019E-14,32.1525,-4.4));
#558=CARTESIAN_POINT('Origin',(-1.33226762955019E-14,30.,-4.4));
#559=CARTESIAN_POINT('Origin',(-1.33226762955019E-14,-30.,-4.4));
#560=CARTESIAN_POINT('',(-1.33226762955019E-14,-33.75,-4.4));
#561=CARTESIAN_POINT('Origin',(-1.33226762955019E-14,-30.,-4.4));
#562=CARTESIAN_POINT('',(-1.33226762955019E-14,-27.8475,-4.4));
#563=CARTESIAN_POINT('Origin',(-1.33226762955019E-14,-30.,-4.4));
#564=CARTESIAN_POINT('Origin',(11.5005,4.75308681302522E-15,-2.10000000000001));
#565=CARTESIAN_POINT('',(15.0005,5.18171319272679E-15,-2.10000000000001));
#566=CARTESIAN_POINT('Origin',(11.5005,4.75308681302522E-15,-2.10000000000001));
#567=CARTESIAN_POINT('',(13.6505,5.0163858748419E-15,-2.10000000000001));
#568=CARTESIAN_POINT('Origin',(11.5005,4.75308681302522E-15,-2.10000000000001));
#569=CARTESIAN_POINT('Origin',(-14.4995,1.0547118733939E-14,-2.10000000000001));
#570=CARTESIAN_POINT('',(-10.9995,1.09757451136406E-14,-2.10000000000001));
#571=CARTESIAN_POINT('Origin',(-14.4995,1.0547118733939E-14,-2.10000000000001));
#572=CARTESIAN_POINT('',(-12.3495,1.08246744900953E-14,-2.10000000000001));
#573=CARTESIAN_POINT('Origin',(-14.4995,1.0547118733939E-14,-2.10000000000001));
#574=CARTESIAN_POINT('Origin',(-1.49950000000001,1.68078476093213E-15,-6.5));
#575=CARTESIAN_POINT('',(22.9635,35.,-6.5));
#576=CARTESIAN_POINT('',(-22.9635,35.,-6.5));
#577=CARTESIAN_POINT('',(10.5,35.,-6.5));
#578=CARTESIAN_POINT('',(27.9635,30.,-6.5));
#579=CARTESIAN_POINT('Origin',(22.9635,30.,-6.5));
#580=CARTESIAN_POINT('',(27.9635,-30.,-6.5));
#581=CARTESIAN_POINT('',(27.9635,-15.,-6.5));
#582=CARTESIAN_POINT('',(22.9635,-35.,-6.5));
#583=CARTESIAN_POINT('Origin',(22.9635,-30.,-6.5));
#584=CARTESIAN_POINT('',(-22.9635,-35.,-6.5));
#585=CARTESIAN_POINT('',(-10.5,-35.,-6.5));
#586=CARTESIAN_POINT('',(-27.9635,-30.,-6.5));
#587=CARTESIAN_POINT('Origin',(-22.9635,-30.,-6.5));
#588=CARTESIAN_POINT('',(-27.9635,30.,-6.5));
#589=CARTESIAN_POINT('',(-27.9635,15.,-6.5));
#590=CARTESIAN_POINT('Origin',(-22.9635,30.,-6.5));
#591=CARTESIAN_POINT('',(-10.9995,8.88178419700125E-15,-6.5));
#592=CARTESIAN_POINT('Origin',(-14.4995,1.0547118733939E-14,-6.5));
#593=CARTESIAN_POINT('',(15.0005,4.44089209850063E-15,-6.5));
#594=CARTESIAN_POINT('Origin',(11.5005,4.75308681302522E-15,-6.5));
#595=CARTESIAN_POINT('',(-1.33226762955019E-14,32.1525,-6.5));
#596=CARTESIAN_POINT('Origin',(-1.33226762955019E-14,30.,-6.5));
#597=CARTESIAN_POINT('',(-1.33226762955019E-14,-27.8475,-6.5));
#598=CARTESIAN_POINT('Origin',(-1.33226762955019E-14,-30.,-6.5));
#599=CARTESIAN_POINT('Origin',(-22.9635,-30.,-12.5));
#600=CARTESIAN_POINT('',(-22.9635,-35.,0.));
#601=CARTESIAN_POINT('',(-22.9635,-35.,-12.5));
#602=CARTESIAN_POINT('',(-27.9635,-30.,0.));
#603=CARTESIAN_POINT('Origin',(-22.9635,-30.,0.));
#604=CARTESIAN_POINT('',(-27.9635,-30.,-12.5));
#605=CARTESIAN_POINT('Origin',(-19.5005,-35.,-12.5));
#606=CARTESIAN_POINT('',(22.9635,-35.,0.));
#607=CARTESIAN_POINT('',(22.9635,-35.,-12.5));
#608=CARTESIAN_POINT('',(22.4995,-35.,0.));
#609=CARTESIAN_POINT('Origin',(22.9635,-30.,-12.5));
#610=CARTESIAN_POINT('',(27.9635,-30.,0.));
#611=CARTESIAN_POINT('',(27.9635,-30.,-12.5));
#612=CARTESIAN_POINT('Origin',(22.9635,-30.,0.));
#613=CARTESIAN_POINT('Origin',(27.9635,-30.,-12.5));
#614=CARTESIAN_POINT('',(27.9635,30.,0.));
#615=CARTESIAN_POINT('',(27.9635,30.,-12.5));
#616=CARTESIAN_POINT('',(27.9635,-15.,0.));
#617=CARTESIAN_POINT('Origin',(22.9635,30.,-12.5));
#618=CARTESIAN_POINT('',(22.9635,35.,0.));
#619=CARTESIAN_POINT('',(22.9635,35.,-12.5));
#620=CARTESIAN_POINT('Origin',(22.9635,30.,0.));
#621=CARTESIAN_POINT('Origin',(-14.4995,1.0547118733939E-14,-10.3));
#622=CARTESIAN_POINT('',(-10.9995,1.09757451136406E-14,-10.3));
#623=CARTESIAN_POINT('Origin',(-14.4995,1.0547118733939E-14,-2.5));
#624=CARTESIAN_POINT('',(-12.3495,1.02695629777827E-14,0.));
#625=CARTESIAN_POINT('',(-12.3495,1.08104177957557E-14,-2.5));
#626=CARTESIAN_POINT('Origin',(-14.4995,1.0547118733939E-14,0.));
#627=CARTESIAN_POINT('Origin',(-5.96350000000001,1.68078476093213E-15,0.));
#628=CARTESIAN_POINT('',(-22.9635,35.,0.));
#629=CARTESIAN_POINT('',(11.9995,35.,0.));
#630=CARTESIAN_POINT('',(-27.9635,30.,0.));
#631=CARTESIAN_POINT('Origin',(-22.9635,30.,0.));
#632=CARTESIAN_POINT('',(-27.9635,15.,0.));
#633=CARTESIAN_POINT('',(-1.33226762955019E-14,-33.75,0.));
#634=CARTESIAN_POINT('Origin',(-1.33226762955019E-14,-30.,0.));
#635=CARTESIAN_POINT('',(13.6505,4.48978775120854E-15,0.));
#636=CARTESIAN_POINT('Origin',(11.5005,4.75308681302522E-15,0.));
#637=CARTESIAN_POINT('',(-1.33226762955019E-14,26.25,0.));
#638=CARTESIAN_POINT('Origin',(-1.33226762955019E-14,30.,0.));
#639=CARTESIAN_POINT('Origin',(-1.33226762955019E-14,30.,-12.5));
#640=CARTESIAN_POINT('',(-1.35370220840865E-14,32.1525,-12.5));
#641=CARTESIAN_POINT('Origin',(11.5005,4.75308681302522E-15,-10.3));
#642=CARTESIAN_POINT('',(15.0005,5.18171319272679E-15,-10.3));
#643=CARTESIAN_POINT('Origin',(-1.33226762955019E-14,-30.,-12.5));
#644=CARTESIAN_POINT('',(-1.35370220840865E-14,-27.8475,-12.5));
#645=CARTESIAN_POINT('Origin',(-1.33226762955019E-14,30.,0.));
#646=CARTESIAN_POINT('',(-1.38677366760738E-14,26.25,0.));
#647=CARTESIAN_POINT('Origin',(-27.9635,30.,-12.5));
#648=CARTESIAN_POINT('',(-27.9635,30.,-12.5));
#649=CARTESIAN_POINT('Origin',(-22.9635,30.,-12.5));
#650=CARTESIAN_POINT('',(-22.9635,35.,-12.5));
#651=CARTESIAN_POINT('Origin',(22.4995,35.,-12.5));
#652=CARTESIAN_POINT('Origin',(11.5005,4.75308681302522E-15,2.));
#653=CARTESIAN_POINT('',(13.6505,5.0163858748419E-15,2.));
#654=CARTESIAN_POINT('Origin',(-1.33226762955019E-14,-30.,0.));
#655=CARTESIAN_POINT('',(-1.38677366760738E-14,-33.75,0.));
#656=UNCERTAINTY_MEASURE_WITH_UNIT(LENGTH_MEASURE(0.01),#660,
'DISTANCE_ACCURACY_VALUE',
'Maximum model space distance between geometric entities at asserted c
onnectivities');
#657=UNCERTAINTY_MEASURE_WITH_UNIT(LENGTH_MEASURE(0.01),#660,
'DISTANCE_ACCURACY_VALUE',
'Maximum model space distance between geometric entities at asserted c
onnectivities');
#658=(
GEOMETRIC_REPRESENTATION_CONTEXT(3)
GLOBAL_UNCERTAINTY_ASSIGNED_CONTEXT((#656))
GLOBAL_UNIT_ASSIGNED_CONTEXT((#660,#662,#663))
REPRESENTATION_CONTEXT('','3D')
);
#659=(
GEOMETRIC_REPRESENTATION_CONTEXT(3)
GLOBAL_UNCERTAINTY_ASSIGNED_CONTEXT((#657))
GLOBAL_UNIT_ASSIGNED_CONTEXT((#660,#662,#663))
REPRESENTATION_CONTEXT('','3D')
);
#660=(
LENGTH_UNIT()
NAMED_UNIT(*)
SI_UNIT(.MILLI.,.METRE.)
);
#661=(
LENGTH_UNIT()
NAMED_UNIT(*)
SI_UNIT($,.METRE.)
);
#662=(
NAMED_UNIT(*)
PLANE_ANGLE_UNIT()
SI_UNIT($,.RADIAN.)
);
#663=(
NAMED_UNIT(*)
SI_UNIT($,.STERADIAN.)
SOLID_ANGLE_UNIT()
);
#664=SHAPE_DEFINITION_REPRESENTATION(#665,#666);
#665=PRODUCT_DEFINITION_SHAPE('',$,#668);
#666=SHAPE_REPRESENTATION('',(#388),#658);
#667=PRODUCT_DEFINITION_CONTEXT('part definition',#672,'design');
#668=PRODUCT_DEFINITION('2026-08-21-18-39-57-080','polarimeter-adapter',
#669,#667);
#669=PRODUCT_DEFINITION_FORMATION('',$,#674);
#670=PRODUCT_RELATED_PRODUCT_CATEGORY('polarimeter-adapter',
'polarimeter-adapter',(#674));
#671=APPLICATION_PROTOCOL_DEFINITION('international standard',
'automotive_design',2009,#672);
#672=APPLICATION_CONTEXT(
'Core Data for Automotive Mechanical Design Process');
#673=PRODUCT_CONTEXT('part definition',#672,'mechanical');
#674=PRODUCT('2026-08-21-18-39-57-080','polarimeter-adapter',$,(#673));
#675=PRESENTATION_STYLE_ASSIGNMENT((#677));
#676=PRESENTATION_STYLE_ASSIGNMENT((#678));
#677=SURFACE_STYLE_USAGE(.BOTH.,#679);
#678=SURFACE_STYLE_USAGE(.BOTH.,#680);
#679=SURFACE_SIDE_STYLE('',(#681));
#680=SURFACE_SIDE_STYLE('',(#682));
#681=SURFACE_STYLE_FILL_AREA(#683);
#682=SURFACE_STYLE_FILL_AREA(#684);
#683=FILL_AREA_STYLE('Steel - Satin',(#685));
#684=FILL_AREA_STYLE('Opaque(160,160,160)',(#686));
#685=FILL_AREA_STYLE_COLOUR('Steel - Satin',#687);
#686=FILL_AREA_STYLE_COLOUR('Opaque(160,160,160)',#688);
#687=COLOUR_RGB('Steel - Satin',0.627450980392157,0.627450980392157,0.627450980392157);
#688=COLOUR_RGB('Opaque(160,160,160)',0.627450980392157,0.627450980392157,
0.627450980392157);
ENDSEC;
END-ISO-10303-21;
