ISO-10303-21;
HEADER;
/* Generated by software containing ST-Developer
 * from STEP Tools, Inc. (www.steptools.com) 
 */

FILE_DESCRIPTION(
/* description */ ('FreeCAD Model'),
/* implementation_level */ '2;1');

FILE_NAME(
/* name */ 'etalon-adapter.step',
/* time_stamp */ '2026-08-23T01:14:04-05:00',
/* author */ (''),
/* organization */ (''),
/* preprocessor_version */ 'ST-DEVELOPER v20.1',
/* originating_system */ 'Autodesk Translation Framework v15.8.0.0',
/* authorisation */ '');

FILE_SCHEMA (('AUTOMOTIVE_DESIGN { 1 0 10303 214 3 1 1 }'));
ENDSEC;

DATA;
#10=MECHANICAL_DESIGN_GEOMETRIC_PRESENTATION_REPRESENTATION('',(#13),#1063);
#11=SHAPE_REPRESENTATION_RELATIONSHIP('SRR','None',#1070,#12);
#12=ADVANCED_BREP_SHAPE_REPRESENTATION('',(#14),#1062);
#13=STYLED_ITEM('',(#1080),#14);
#14=MANIFOLD_SOLID_BREP('Body1',#619);
#15=FACE_BOUND('',#115,.T.);
#16=FACE_BOUND('',#117,.T.);
#17=FACE_BOUND('',#118,.T.);
#18=FACE_BOUND('',#119,.T.);
#19=FACE_BOUND('',#120,.T.);
#20=FACE_BOUND('',#125,.T.);
#21=FACE_BOUND('',#137,.T.);
#22=FACE_BOUND('',#138,.T.);
#23=FACE_BOUND('',#139,.T.);
#24=FACE_BOUND('',#140,.T.);
#25=FACE_BOUND('',#150,.T.);
#26=FACE_BOUND('',#152,.T.);
#27=CIRCLE('',#636,2.2);
#28=CIRCLE('',#637,2.2);
#29=CIRCLE('',#641,4.5);
#30=CIRCLE('',#642,4.5);
#31=CIRCLE('',#643,2.2);
#32=CIRCLE('',#645,4.999);
#33=CIRCLE('',#646,4.999);
#34=CIRCLE('',#647,4.999);
#35=CIRCLE('',#648,4.999);
#36=CIRCLE('',#649,4.5);
#37=CIRCLE('',#650,4.5);
#38=CIRCLE('',#651,2.1844);
#39=CIRCLE('',#652,2.1844);
#40=CIRCLE('',#653,4.5);
#41=CIRCLE('',#654,4.5);
#42=CIRCLE('',#658,2.2);
#43=CIRCLE('',#660,4.5);
#44=CIRCLE('',#661,4.5);
#45=CIRCLE('',#662,2.2);
#46=CIRCLE('',#663,2.2);
#47=CIRCLE('',#668,2.2);
#48=CIRCLE('',#673,2.2);
#49=CIRCLE('',#675,4.999);
#50=CIRCLE('',#678,4.999);
#51=CIRCLE('',#679,4.999);
#52=CIRCLE('',#680,4.999);
#53=CIRCLE('',#681,4.5);
#54=CIRCLE('',#682,4.5);
#55=CIRCLE('',#690,4.5);
#56=CIRCLE('',#692,4.5);
#57=CIRCLE('',#694,2.1844);
#58=CIRCLE('',#696,2.1844);
#59=CYLINDRICAL_SURFACE('',#635,2.2);
#60=CYLINDRICAL_SURFACE('',#655,4.5);
#61=CYLINDRICAL_SURFACE('',#656,4.5);
#62=CYLINDRICAL_SURFACE('',#657,2.2);
#63=CYLINDRICAL_SURFACE('',#665,4.5);
#64=CYLINDRICAL_SURFACE('',#667,2.2);
#65=CYLINDRICAL_SURFACE('',#671,4.5);
#66=CYLINDRICAL_SURFACE('',#672,2.2);
#67=CYLINDRICAL_SURFACE('',#674,4.999);
#68=CYLINDRICAL_SURFACE('',#683,4.999);
#69=CYLINDRICAL_SURFACE('',#686,4.999);
#70=CYLINDRICAL_SURFACE('',#688,4.999);
#71=CYLINDRICAL_SURFACE('',#689,4.5);
#72=CYLINDRICAL_SURFACE('',#691,4.5);
#73=CYLINDRICAL_SURFACE('',#697,2.1844);
#74=CYLINDRICAL_SURFACE('',#698,2.1844);
#75=FACE_OUTER_BOUND('',#109,.T.);
#76=FACE_OUTER_BOUND('',#110,.T.);
#77=FACE_OUTER_BOUND('',#111,.T.);
#78=FACE_OUTER_BOUND('',#112,.T.);
#79=FACE_OUTER_BOUND('',#113,.T.);
#80=FACE_OUTER_BOUND('',#114,.T.);
#81=FACE_OUTER_BOUND('',#116,.T.);
#82=FACE_OUTER_BOUND('',#121,.T.);
#83=FACE_OUTER_BOUND('',#122,.T.);
#84=FACE_OUTER_BOUND('',#123,.T.);
#85=FACE_OUTER_BOUND('',#124,.T.);
#86=FACE_OUTER_BOUND('',#126,.T.);
#87=FACE_OUTER_BOUND('',#127,.T.);
#88=FACE_OUTER_BOUND('',#128,.T.);
#89=FACE_OUTER_BOUND('',#129,.T.);
#90=FACE_OUTER_BOUND('',#130,.T.);
#91=FACE_OUTER_BOUND('',#131,.T.);
#92=FACE_OUTER_BOUND('',#132,.T.);
#93=FACE_OUTER_BOUND('',#133,.T.);
#94=FACE_OUTER_BOUND('',#134,.T.);
#95=FACE_OUTER_BOUND('',#135,.T.);
#96=FACE_OUTER_BOUND('',#136,.T.);
#97=FACE_OUTER_BOUND('',#141,.T.);
#98=FACE_OUTER_BOUND('',#142,.T.);
#99=FACE_OUTER_BOUND('',#143,.T.);
#100=FACE_OUTER_BOUND('',#144,.T.);
#101=FACE_OUTER_BOUND('',#145,.T.);
#102=FACE_OUTER_BOUND('',#146,.T.);
#103=FACE_OUTER_BOUND('',#147,.T.);
#104=FACE_OUTER_BOUND('',#148,.T.);
#105=FACE_OUTER_BOUND('',#149,.T.);
#106=FACE_OUTER_BOUND('',#151,.T.);
#107=FACE_OUTER_BOUND('',#153,.T.);
#108=FACE_OUTER_BOUND('',#154,.T.);
#109=EDGE_LOOP('',(#399,#400,#401,#402));
#110=EDGE_LOOP('',(#403,#404,#405,#406));
#111=EDGE_LOOP('',(#407,#408,#409,#410));
#112=EDGE_LOOP('',(#411,#412,#413,#414));
#113=EDGE_LOOP('',(#415,#416,#417,#418));
#114=EDGE_LOOP('',(#419,#420,#421,#422));
#115=EDGE_LOOP('',(#423,#424,#425,#426));
#116=EDGE_LOOP('',(#427,#428,#429,#430,#431,#432,#433,#434));
#117=EDGE_LOOP('',(#435,#436,#437,#438));
#118=EDGE_LOOP('',(#439));
#119=EDGE_LOOP('',(#440));
#120=EDGE_LOOP('',(#441,#442,#443,#444));
#121=EDGE_LOOP('',(#445,#446,#447,#448));
#122=EDGE_LOOP('',(#449,#450,#451,#452));
#123=EDGE_LOOP('',(#453,#454,#455,#456));
#124=EDGE_LOOP('',(#457,#458,#459,#460));
#125=EDGE_LOOP('',(#461,#462,#463,#464));
#126=EDGE_LOOP('',(#465,#466,#467,#468));
#127=EDGE_LOOP('',(#469,#470,#471,#472));
#128=EDGE_LOOP('',(#473,#474,#475,#476));
#129=EDGE_LOOP('',(#477,#478,#479,#480));
#130=EDGE_LOOP('',(#481,#482,#483,#484));
#131=EDGE_LOOP('',(#485,#486,#487,#488));
#132=EDGE_LOOP('',(#489,#490,#491,#492));
#133=EDGE_LOOP('',(#493,#494,#495,#496));
#134=EDGE_LOOP('',(#497,#498,#499,#500));
#135=EDGE_LOOP('',(#501,#502,#503,#504));
#136=EDGE_LOOP('',(#505,#506,#507,#508,#509,#510,#511,#512));
#137=EDGE_LOOP('',(#513,#514,#515,#516));
#138=EDGE_LOOP('',(#517,#518,#519,#520));
#139=EDGE_LOOP('',(#521));
#140=EDGE_LOOP('',(#522));
#141=EDGE_LOOP('',(#523,#524,#525,#526));
#142=EDGE_LOOP('',(#527,#528,#529,#530));
#143=EDGE_LOOP('',(#531,#532,#533,#534));
#144=EDGE_LOOP('',(#535,#536,#537,#538));
#145=EDGE_LOOP('',(#539,#540,#541,#542));
#146=EDGE_LOOP('',(#543,#544,#545,#546));
#147=EDGE_LOOP('',(#547,#548,#549,#550));
#148=EDGE_LOOP('',(#551,#552,#553,#554));
#149=EDGE_LOOP('',(#555));
#150=EDGE_LOOP('',(#556));
#151=EDGE_LOOP('',(#557));
#152=EDGE_LOOP('',(#558));
#153=EDGE_LOOP('',(#559,#560,#561,#562));
#154=EDGE_LOOP('',(#563,#564,#565,#566));
#155=LINE('',#889,#207);
#156=LINE('',#891,#208);
#157=LINE('',#893,#209);
#158=LINE('',#894,#210);
#159=LINE('',#898,#211);
#160=LINE('',#900,#212);
#161=LINE('',#902,#213);
#162=LINE('',#903,#214);
#163=LINE('',#910,#215);
#164=LINE('',#912,#216);
#165=LINE('',#914,#217);
#166=LINE('',#915,#218);
#167=LINE('',#919,#219);
#168=LINE('',#921,#220);
#169=LINE('',#923,#221);
#170=LINE('',#924,#222);
#171=LINE('',#934,#223);
#172=LINE('',#938,#224);
#173=LINE('',#942,#225);
#174=LINE('',#945,#226);
#175=LINE('',#948,#227);
#176=LINE('',#952,#228);
#177=LINE('',#969,#229);
#178=LINE('',#972,#230);
#179=LINE('',#975,#231);
#180=LINE('',#979,#232);
#181=LINE('',#983,#233);
#182=LINE('',#985,#234);
#183=LINE('',#986,#235);
#184=LINE('',#988,#236);
#185=LINE('',#989,#237);
#186=LINE('',#993,#238);
#187=LINE('',#994,#239);
#188=LINE('',#995,#240);
#189=LINE('',#999,#241);
#190=LINE('',#1001,#242);
#191=LINE('',#1009,#243);
#192=LINE('',#1010,#244);
#193=LINE('',#1013,#245);
#194=LINE('',#1014,#246);
#195=LINE('',#1017,#247);
#196=LINE('',#1021,#248);
#197=LINE('',#1025,#249);
#198=LINE('',#1032,#250);
#199=LINE('',#1034,#251);
#200=LINE('',#1036,#252);
#201=LINE('',#1038,#253);
#202=LINE('',#1040,#254);
#203=LINE('',#1044,#255);
#204=LINE('',#1048,#256);
#205=LINE('',#1057,#257);
#206=LINE('',#1059,#258);
#207=VECTOR('',#703,10.);
#208=VECTOR('',#704,10.);
#209=VECTOR('',#705,10.);
#210=VECTOR('',#706,10.);
#211=VECTOR('',#709,10.);
#212=VECTOR('',#710,10.);
#213=VECTOR('',#711,10.);
#214=VECTOR('',#712,10.);
#215=VECTOR('',#721,10.);
#216=VECTOR('',#722,10.);
#217=VECTOR('',#723,10.);
#218=VECTOR('',#724,10.);
#219=VECTOR('',#727,10.);
#220=VECTOR('',#728,10.);
#221=VECTOR('',#729,10.);
#222=VECTOR('',#730,10.);
#223=VECTOR('',#743,10.);
#224=VECTOR('',#746,10.);
#225=VECTOR('',#749,10.);
#226=VECTOR('',#752,10.);
#227=VECTOR('',#753,10.);
#228=VECTOR('',#756,10.);
#229=VECTOR('',#779,10.);
#230=VECTOR('',#782,10.);
#231=VECTOR('',#783,10.);
#232=VECTOR('',#786,10.);
#233=VECTOR('',#791,10.);
#234=VECTOR('',#792,10.);
#235=VECTOR('',#793,10.);
#236=VECTOR('',#796,10.);
#237=VECTOR('',#797,10.);
#238=VECTOR('',#800,10.);
#239=VECTOR('',#801,10.);
#240=VECTOR('',#802,10.);
#241=VECTOR('',#809,10.);
#242=VECTOR('',#812,10.);
#243=VECTOR('',#823,10.);
#244=VECTOR('',#824,10.);
#245=VECTOR('',#827,1.);
#246=VECTOR('',#828,10.);
#247=VECTOR('',#831,1.);
#248=VECTOR('',#834,1.);
#249=VECTOR('',#837,1.);
#250=VECTOR('',#846,10.);
#251=VECTOR('',#849,10.);
#252=VECTOR('',#852,10.);
#253=VECTOR('',#855,10.);
#254=VECTOR('',#858,10.);
#255=VECTOR('',#863,4.5);
#256=VECTOR('',#868,4.5);
#257=VECTOR('',#881,2.1844);
#258=VECTOR('',#884,2.1844);
#259=VERTEX_POINT('',#887);
#260=VERTEX_POINT('',#888);
#261=VERTEX_POINT('',#890);
#262=VERTEX_POINT('',#892);
#263=VERTEX_POINT('',#896);
#264=VERTEX_POINT('',#897);
#265=VERTEX_POINT('',#899);
#266=VERTEX_POINT('',#901);
#267=VERTEX_POINT('',#908);
#268=VERTEX_POINT('',#909);
#269=VERTEX_POINT('',#911);
#270=VERTEX_POINT('',#913);
#271=VERTEX_POINT('',#917);
#272=VERTEX_POINT('',#918);
#273=VERTEX_POINT('',#920);
#274=VERTEX_POINT('',#922);
#275=VERTEX_POINT('',#930);
#276=VERTEX_POINT('',#931);
#277=VERTEX_POINT('',#933);
#278=VERTEX_POINT('',#935);
#279=VERTEX_POINT('',#937);
#280=VERTEX_POINT('',#939);
#281=VERTEX_POINT('',#941);
#282=VERTEX_POINT('',#943);
#283=VERTEX_POINT('',#946);
#284=VERTEX_POINT('',#947);
#285=VERTEX_POINT('',#949);
#286=VERTEX_POINT('',#951);
#287=VERTEX_POINT('',#954);
#288=VERTEX_POINT('',#956);
#289=VERTEX_POINT('',#965);
#290=VERTEX_POINT('',#966);
#291=VERTEX_POINT('',#968);
#292=VERTEX_POINT('',#970);
#293=VERTEX_POINT('',#973);
#294=VERTEX_POINT('',#974);
#295=VERTEX_POINT('',#976);
#296=VERTEX_POINT('',#978);
#297=VERTEX_POINT('',#982);
#298=VERTEX_POINT('',#984);
#299=VERTEX_POINT('',#991);
#300=VERTEX_POINT('',#992);
#301=VERTEX_POINT('',#1006);
#302=VERTEX_POINT('',#1007);
#303=VERTEX_POINT('',#1012);
#304=VERTEX_POINT('',#1016);
#305=VERTEX_POINT('',#1018);
#306=VERTEX_POINT('',#1020);
#307=VERTEX_POINT('',#1022);
#308=VERTEX_POINT('',#1024);
#309=VERTEX_POINT('',#1027);
#310=VERTEX_POINT('',#1029);
#311=VERTEX_POINT('',#1043);
#312=VERTEX_POINT('',#1047);
#313=VERTEX_POINT('',#1051);
#314=VERTEX_POINT('',#1054);
#315=EDGE_CURVE('',#259,#260,#155,.T.);
#316=EDGE_CURVE('',#259,#261,#156,.T.);
#317=EDGE_CURVE('',#262,#261,#157,.T.);
#318=EDGE_CURVE('',#260,#262,#158,.T.);
#319=EDGE_CURVE('',#263,#264,#159,.T.);
#320=EDGE_CURVE('',#263,#265,#160,.T.);
#321=EDGE_CURVE('',#266,#265,#161,.T.);
#322=EDGE_CURVE('',#264,#266,#162,.T.);
#323=EDGE_CURVE('',#265,#262,#27,.T.);
#324=EDGE_CURVE('',#260,#263,#28,.T.);
#325=EDGE_CURVE('',#267,#268,#163,.T.);
#326=EDGE_CURVE('',#269,#267,#164,.T.);
#327=EDGE_CURVE('',#269,#270,#165,.T.);
#328=EDGE_CURVE('',#270,#268,#166,.T.);
#329=EDGE_CURVE('',#271,#272,#167,.T.);
#330=EDGE_CURVE('',#273,#271,#168,.T.);
#331=EDGE_CURVE('',#273,#274,#169,.T.);
#332=EDGE_CURVE('',#272,#274,#170,.T.);
#333=EDGE_CURVE('',#274,#269,#29,.T.);
#334=EDGE_CURVE('',#270,#273,#30,.T.);
#335=EDGE_CURVE('',#261,#266,#31,.T.);
#336=EDGE_CURVE('',#275,#276,#32,.T.);
#337=EDGE_CURVE('',#277,#275,#171,.T.);
#338=EDGE_CURVE('',#278,#277,#33,.T.);
#339=EDGE_CURVE('',#279,#278,#172,.T.);
#340=EDGE_CURVE('',#280,#279,#34,.T.);
#341=EDGE_CURVE('',#281,#280,#173,.T.);
#342=EDGE_CURVE('',#282,#281,#35,.T.);
#343=EDGE_CURVE('',#276,#282,#174,.T.);
#344=EDGE_CURVE('',#283,#284,#175,.T.);
#345=EDGE_CURVE('',#284,#285,#36,.T.);
#346=EDGE_CURVE('',#285,#286,#176,.T.);
#347=EDGE_CURVE('',#286,#283,#37,.T.);
#348=EDGE_CURVE('',#287,#287,#38,.T.);
#349=EDGE_CURVE('',#288,#288,#39,.T.);
#350=EDGE_CURVE('',#268,#271,#40,.T.);
#351=EDGE_CURVE('',#272,#267,#41,.T.);
#352=EDGE_CURVE('',#264,#259,#42,.T.);
#353=EDGE_CURVE('',#289,#290,#43,.T.);
#354=EDGE_CURVE('',#291,#289,#177,.T.);
#355=EDGE_CURVE('',#292,#291,#44,.T.);
#356=EDGE_CURVE('',#290,#292,#178,.T.);
#357=EDGE_CURVE('',#293,#294,#179,.T.);
#358=EDGE_CURVE('',#294,#295,#45,.T.);
#359=EDGE_CURVE('',#295,#296,#180,.T.);
#360=EDGE_CURVE('',#296,#293,#46,.T.);
#361=EDGE_CURVE('',#297,#293,#181,.T.);
#362=EDGE_CURVE('',#298,#297,#182,.T.);
#363=EDGE_CURVE('',#298,#294,#183,.T.);
#364=EDGE_CURVE('',#286,#292,#184,.T.);
#365=EDGE_CURVE('',#291,#283,#185,.T.);
#366=EDGE_CURVE('',#299,#300,#186,.T.);
#367=EDGE_CURVE('',#299,#296,#187,.T.);
#368=EDGE_CURVE('',#300,#295,#188,.T.);
#369=EDGE_CURVE('',#300,#298,#47,.T.);
#370=EDGE_CURVE('',#284,#289,#189,.T.);
#371=EDGE_CURVE('',#290,#285,#190,.T.);
#372=EDGE_CURVE('',#297,#299,#48,.T.);
#373=EDGE_CURVE('',#301,#302,#49,.T.);
#374=EDGE_CURVE('',#302,#275,#191,.T.);
#375=EDGE_CURVE('',#276,#301,#192,.T.);
#376=EDGE_CURVE('',#302,#303,#193,.T.);
#377=EDGE_CURVE('',#277,#303,#194,.T.);
#378=EDGE_CURVE('',#304,#301,#195,.T.);
#379=EDGE_CURVE('',#305,#304,#50,.T.);
#380=EDGE_CURVE('',#305,#306,#196,.T.);
#381=EDGE_CURVE('',#307,#306,#51,.T.);
#382=EDGE_CURVE('',#307,#308,#197,.T.);
#383=EDGE_CURVE('',#303,#308,#52,.T.);
#384=EDGE_CURVE('',#309,#309,#53,.T.);
#385=EDGE_CURVE('',#310,#310,#54,.T.);
#386=EDGE_CURVE('',#308,#278,#198,.T.);
#387=EDGE_CURVE('',#279,#307,#199,.T.);
#388=EDGE_CURVE('',#304,#282,#200,.T.);
#389=EDGE_CURVE('',#281,#305,#201,.T.);
#390=EDGE_CURVE('',#306,#280,#202,.T.);
#391=EDGE_CURVE('',#309,#311,#203,.T.);
#392=EDGE_CURVE('',#311,#311,#55,.T.);
#393=EDGE_CURVE('',#310,#312,#204,.T.);
#394=EDGE_CURVE('',#312,#312,#56,.T.);
#395=EDGE_CURVE('',#313,#313,#57,.T.);
#396=EDGE_CURVE('',#314,#314,#58,.T.);
#397=EDGE_CURVE('',#313,#287,#205,.T.);
#398=EDGE_CURVE('',#314,#288,#206,.T.);
#399=ORIENTED_EDGE('',*,*,#315,.F.);
#400=ORIENTED_EDGE('',*,*,#316,.T.);
#401=ORIENTED_EDGE('',*,*,#317,.F.);
#402=ORIENTED_EDGE('',*,*,#318,.F.);
#403=ORIENTED_EDGE('',*,*,#319,.F.);
#404=ORIENTED_EDGE('',*,*,#320,.T.);
#405=ORIENTED_EDGE('',*,*,#321,.F.);
#406=ORIENTED_EDGE('',*,*,#322,.F.);
#407=ORIENTED_EDGE('',*,*,#318,.T.);
#408=ORIENTED_EDGE('',*,*,#323,.F.);
#409=ORIENTED_EDGE('',*,*,#320,.F.);
#410=ORIENTED_EDGE('',*,*,#324,.F.);
#411=ORIENTED_EDGE('',*,*,#325,.F.);
#412=ORIENTED_EDGE('',*,*,#326,.F.);
#413=ORIENTED_EDGE('',*,*,#327,.T.);
#414=ORIENTED_EDGE('',*,*,#328,.T.);
#415=ORIENTED_EDGE('',*,*,#329,.F.);
#416=ORIENTED_EDGE('',*,*,#330,.F.);
#417=ORIENTED_EDGE('',*,*,#331,.T.);
#418=ORIENTED_EDGE('',*,*,#332,.F.);
#419=ORIENTED_EDGE('',*,*,#333,.F.);
#420=ORIENTED_EDGE('',*,*,#331,.F.);
#421=ORIENTED_EDGE('',*,*,#334,.F.);
#422=ORIENTED_EDGE('',*,*,#327,.F.);
#423=ORIENTED_EDGE('',*,*,#317,.T.);
#424=ORIENTED_EDGE('',*,*,#335,.T.);
#425=ORIENTED_EDGE('',*,*,#321,.T.);
#426=ORIENTED_EDGE('',*,*,#323,.T.);
#427=ORIENTED_EDGE('',*,*,#336,.F.);
#428=ORIENTED_EDGE('',*,*,#337,.F.);
#429=ORIENTED_EDGE('',*,*,#338,.F.);
#430=ORIENTED_EDGE('',*,*,#339,.F.);
#431=ORIENTED_EDGE('',*,*,#340,.F.);
#432=ORIENTED_EDGE('',*,*,#341,.F.);
#433=ORIENTED_EDGE('',*,*,#342,.F.);
#434=ORIENTED_EDGE('',*,*,#343,.F.);
#435=ORIENTED_EDGE('',*,*,#344,.T.);
#436=ORIENTED_EDGE('',*,*,#345,.T.);
#437=ORIENTED_EDGE('',*,*,#346,.T.);
#438=ORIENTED_EDGE('',*,*,#347,.T.);
#439=ORIENTED_EDGE('',*,*,#348,.F.);
#440=ORIENTED_EDGE('',*,*,#349,.F.);
#441=ORIENTED_EDGE('',*,*,#325,.T.);
#442=ORIENTED_EDGE('',*,*,#350,.T.);
#443=ORIENTED_EDGE('',*,*,#329,.T.);
#444=ORIENTED_EDGE('',*,*,#351,.T.);
#445=ORIENTED_EDGE('',*,*,#328,.F.);
#446=ORIENTED_EDGE('',*,*,#334,.T.);
#447=ORIENTED_EDGE('',*,*,#330,.T.);
#448=ORIENTED_EDGE('',*,*,#350,.F.);
#449=ORIENTED_EDGE('',*,*,#326,.T.);
#450=ORIENTED_EDGE('',*,*,#351,.F.);
#451=ORIENTED_EDGE('',*,*,#332,.T.);
#452=ORIENTED_EDGE('',*,*,#333,.T.);
#453=ORIENTED_EDGE('',*,*,#316,.F.);
#454=ORIENTED_EDGE('',*,*,#352,.F.);
#455=ORIENTED_EDGE('',*,*,#322,.T.);
#456=ORIENTED_EDGE('',*,*,#335,.F.);
#457=ORIENTED_EDGE('',*,*,#353,.F.);
#458=ORIENTED_EDGE('',*,*,#354,.F.);
#459=ORIENTED_EDGE('',*,*,#355,.F.);
#460=ORIENTED_EDGE('',*,*,#356,.F.);
#461=ORIENTED_EDGE('',*,*,#357,.T.);
#462=ORIENTED_EDGE('',*,*,#358,.T.);
#463=ORIENTED_EDGE('',*,*,#359,.T.);
#464=ORIENTED_EDGE('',*,*,#360,.T.);
#465=ORIENTED_EDGE('',*,*,#357,.F.);
#466=ORIENTED_EDGE('',*,*,#361,.F.);
#467=ORIENTED_EDGE('',*,*,#362,.F.);
#468=ORIENTED_EDGE('',*,*,#363,.T.);
#469=ORIENTED_EDGE('',*,*,#364,.T.);
#470=ORIENTED_EDGE('',*,*,#355,.T.);
#471=ORIENTED_EDGE('',*,*,#365,.T.);
#472=ORIENTED_EDGE('',*,*,#347,.F.);
#473=ORIENTED_EDGE('',*,*,#366,.F.);
#474=ORIENTED_EDGE('',*,*,#367,.T.);
#475=ORIENTED_EDGE('',*,*,#359,.F.);
#476=ORIENTED_EDGE('',*,*,#368,.F.);
#477=ORIENTED_EDGE('',*,*,#363,.F.);
#478=ORIENTED_EDGE('',*,*,#369,.F.);
#479=ORIENTED_EDGE('',*,*,#368,.T.);
#480=ORIENTED_EDGE('',*,*,#358,.F.);
#481=ORIENTED_EDGE('',*,*,#344,.F.);
#482=ORIENTED_EDGE('',*,*,#365,.F.);
#483=ORIENTED_EDGE('',*,*,#354,.T.);
#484=ORIENTED_EDGE('',*,*,#370,.F.);
#485=ORIENTED_EDGE('',*,*,#346,.F.);
#486=ORIENTED_EDGE('',*,*,#371,.F.);
#487=ORIENTED_EDGE('',*,*,#356,.T.);
#488=ORIENTED_EDGE('',*,*,#364,.F.);
#489=ORIENTED_EDGE('',*,*,#370,.T.);
#490=ORIENTED_EDGE('',*,*,#353,.T.);
#491=ORIENTED_EDGE('',*,*,#371,.T.);
#492=ORIENTED_EDGE('',*,*,#345,.F.);
#493=ORIENTED_EDGE('',*,*,#361,.T.);
#494=ORIENTED_EDGE('',*,*,#360,.F.);
#495=ORIENTED_EDGE('',*,*,#367,.F.);
#496=ORIENTED_EDGE('',*,*,#372,.F.);
#497=ORIENTED_EDGE('',*,*,#373,.T.);
#498=ORIENTED_EDGE('',*,*,#374,.T.);
#499=ORIENTED_EDGE('',*,*,#336,.T.);
#500=ORIENTED_EDGE('',*,*,#375,.T.);
#501=ORIENTED_EDGE('',*,*,#374,.F.);
#502=ORIENTED_EDGE('',*,*,#376,.T.);
#503=ORIENTED_EDGE('',*,*,#377,.F.);
#504=ORIENTED_EDGE('',*,*,#337,.T.);
#505=ORIENTED_EDGE('',*,*,#373,.F.);
#506=ORIENTED_EDGE('',*,*,#378,.F.);
#507=ORIENTED_EDGE('',*,*,#379,.F.);
#508=ORIENTED_EDGE('',*,*,#380,.T.);
#509=ORIENTED_EDGE('',*,*,#381,.F.);
#510=ORIENTED_EDGE('',*,*,#382,.T.);
#511=ORIENTED_EDGE('',*,*,#383,.F.);
#512=ORIENTED_EDGE('',*,*,#376,.F.);
#513=ORIENTED_EDGE('',*,*,#319,.T.);
#514=ORIENTED_EDGE('',*,*,#352,.T.);
#515=ORIENTED_EDGE('',*,*,#315,.T.);
#516=ORIENTED_EDGE('',*,*,#324,.T.);
#517=ORIENTED_EDGE('',*,*,#366,.T.);
#518=ORIENTED_EDGE('',*,*,#369,.T.);
#519=ORIENTED_EDGE('',*,*,#362,.T.);
#520=ORIENTED_EDGE('',*,*,#372,.T.);
#521=ORIENTED_EDGE('',*,*,#384,.T.);
#522=ORIENTED_EDGE('',*,*,#385,.T.);
#523=ORIENTED_EDGE('',*,*,#338,.T.);
#524=ORIENTED_EDGE('',*,*,#377,.T.);
#525=ORIENTED_EDGE('',*,*,#383,.T.);
#526=ORIENTED_EDGE('',*,*,#386,.T.);
#527=ORIENTED_EDGE('',*,*,#386,.F.);
#528=ORIENTED_EDGE('',*,*,#382,.F.);
#529=ORIENTED_EDGE('',*,*,#387,.F.);
#530=ORIENTED_EDGE('',*,*,#339,.T.);
#531=ORIENTED_EDGE('',*,*,#375,.F.);
#532=ORIENTED_EDGE('',*,*,#343,.T.);
#533=ORIENTED_EDGE('',*,*,#388,.F.);
#534=ORIENTED_EDGE('',*,*,#378,.T.);
#535=ORIENTED_EDGE('',*,*,#342,.T.);
#536=ORIENTED_EDGE('',*,*,#389,.T.);
#537=ORIENTED_EDGE('',*,*,#379,.T.);
#538=ORIENTED_EDGE('',*,*,#388,.T.);
#539=ORIENTED_EDGE('',*,*,#389,.F.);
#540=ORIENTED_EDGE('',*,*,#341,.T.);
#541=ORIENTED_EDGE('',*,*,#390,.F.);
#542=ORIENTED_EDGE('',*,*,#380,.F.);
#543=ORIENTED_EDGE('',*,*,#381,.T.);
#544=ORIENTED_EDGE('',*,*,#390,.T.);
#545=ORIENTED_EDGE('',*,*,#340,.T.);
#546=ORIENTED_EDGE('',*,*,#387,.T.);
#547=ORIENTED_EDGE('',*,*,#384,.F.);
#548=ORIENTED_EDGE('',*,*,#391,.T.);
#549=ORIENTED_EDGE('',*,*,#392,.T.);
#550=ORIENTED_EDGE('',*,*,#391,.F.);
#551=ORIENTED_EDGE('',*,*,#385,.F.);
#552=ORIENTED_EDGE('',*,*,#393,.T.);
#553=ORIENTED_EDGE('',*,*,#394,.T.);
#554=ORIENTED_EDGE('',*,*,#393,.F.);
#555=ORIENTED_EDGE('',*,*,#392,.F.);
#556=ORIENTED_EDGE('',*,*,#395,.T.);
#557=ORIENTED_EDGE('',*,*,#394,.F.);
#558=ORIENTED_EDGE('',*,*,#396,.T.);
#559=ORIENTED_EDGE('',*,*,#395,.F.);
#560=ORIENTED_EDGE('',*,*,#397,.T.);
#561=ORIENTED_EDGE('',*,*,#348,.T.);
#562=ORIENTED_EDGE('',*,*,#397,.F.);
#563=ORIENTED_EDGE('',*,*,#396,.F.);
#564=ORIENTED_EDGE('',*,*,#398,.T.);
#565=ORIENTED_EDGE('',*,*,#349,.T.);
#566=ORIENTED_EDGE('',*,*,#398,.F.);
#567=PLANE('',#633);
#568=PLANE('',#634);
#569=PLANE('',#638);
#570=PLANE('',#639);
#571=PLANE('',#640);
#572=PLANE('',#644);
#573=PLANE('',#659);
#574=PLANE('',#664);
#575=PLANE('',#666);
#576=PLANE('',#669);
#577=PLANE('',#670);
#578=PLANE('',#676);
#579=PLANE('',#677);
#580=PLANE('',#684);
#581=PLANE('',#685);
#582=PLANE('',#687);
#583=PLANE('',#693);
#584=PLANE('',#695);
#585=ADVANCED_FACE('',(#75),#567,.F.);
#586=ADVANCED_FACE('',(#76),#568,.F.);
#587=ADVANCED_FACE('',(#77),#59,.F.);
#588=ADVANCED_FACE('',(#78),#569,.F.);
#589=ADVANCED_FACE('',(#79),#570,.F.);
#590=ADVANCED_FACE('',(#80,#15),#571,.F.);
#591=ADVANCED_FACE('',(#81,#16,#17,#18,#19),#572,.F.);
#592=ADVANCED_FACE('',(#82),#60,.F.);
#593=ADVANCED_FACE('',(#83),#61,.F.);
#594=ADVANCED_FACE('',(#84),#62,.F.);
#595=ADVANCED_FACE('',(#85,#20),#573,.F.);
#596=ADVANCED_FACE('',(#86),#574,.F.);
#597=ADVANCED_FACE('',(#87),#63,.F.);
#598=ADVANCED_FACE('',(#88),#575,.F.);
#599=ADVANCED_FACE('',(#89),#64,.F.);
#600=ADVANCED_FACE('',(#90),#576,.F.);
#601=ADVANCED_FACE('',(#91),#577,.F.);
#602=ADVANCED_FACE('',(#92),#65,.F.);
#603=ADVANCED_FACE('',(#93),#66,.F.);
#604=ADVANCED_FACE('',(#94),#67,.T.);
#605=ADVANCED_FACE('',(#95),#578,.T.);
#606=ADVANCED_FACE('',(#96,#21,#22,#23,#24),#579,.T.);
#607=ADVANCED_FACE('',(#97),#68,.T.);
#608=ADVANCED_FACE('',(#98),#580,.T.);
#609=ADVANCED_FACE('',(#99),#581,.F.);
#610=ADVANCED_FACE('',(#100),#69,.T.);
#611=ADVANCED_FACE('',(#101),#582,.F.);
#612=ADVANCED_FACE('',(#102),#70,.T.);
#613=ADVANCED_FACE('',(#103),#71,.F.);
#614=ADVANCED_FACE('',(#104),#72,.F.);
#615=ADVANCED_FACE('',(#105,#25),#583,.F.);
#616=ADVANCED_FACE('',(#106,#26),#584,.F.);
#617=ADVANCED_FACE('',(#107),#73,.F.);
#618=ADVANCED_FACE('',(#108),#74,.F.);
#619=CLOSED_SHELL('',(#585,#586,#587,#588,#589,#590,#591,#592,#593,#594,
#595,#596,#597,#598,#599,#600,#601,#602,#603,#604,#605,#606,#607,#608,#609,
#610,#611,#612,#613,#614,#615,#616,#617,#618));
#620=DERIVED_UNIT_ELEMENT(#622,1.);
#621=DERIVED_UNIT_ELEMENT(#1065,-3.);
#622=(
MASS_UNIT()
NAMED_UNIT(*)
SI_UNIT(.KILO.,.GRAM.)
);
#623=DERIVED_UNIT((#620,#621));
#624=MEASURE_REPRESENTATION_ITEM('density measure',
POSITIVE_RATIO_MEASURE(7850.),#623);
#625=PROPERTY_DEFINITION_REPRESENTATION(#630,#627);
#626=PROPERTY_DEFINITION_REPRESENTATION(#631,#628);
#627=REPRESENTATION('material name',(#629),#1062);
#628=REPRESENTATION('density',(#624),#1062);
#629=DESCRIPTIVE_REPRESENTATION_ITEM('Steel','Steel');
#630=PROPERTY_DEFINITION('material property','material name',#1072);
#631=PROPERTY_DEFINITION('material property','density of part',#1072);
#632=AXIS2_PLACEMENT_3D('',#885,#699,#700);
#633=AXIS2_PLACEMENT_3D('',#886,#701,#702);
#634=AXIS2_PLACEMENT_3D('',#895,#707,#708);
#635=AXIS2_PLACEMENT_3D('',#904,#713,#714);
#636=AXIS2_PLACEMENT_3D('',#905,#715,#716);
#637=AXIS2_PLACEMENT_3D('',#906,#717,#718);
#638=AXIS2_PLACEMENT_3D('',#907,#719,#720);
#639=AXIS2_PLACEMENT_3D('',#916,#725,#726);
#640=AXIS2_PLACEMENT_3D('',#925,#731,#732);
#641=AXIS2_PLACEMENT_3D('',#926,#733,#734);
#642=AXIS2_PLACEMENT_3D('',#927,#735,#736);
#643=AXIS2_PLACEMENT_3D('',#928,#737,#738);
#644=AXIS2_PLACEMENT_3D('',#929,#739,#740);
#645=AXIS2_PLACEMENT_3D('',#932,#741,#742);
#646=AXIS2_PLACEMENT_3D('',#936,#744,#745);
#647=AXIS2_PLACEMENT_3D('',#940,#747,#748);
#648=AXIS2_PLACEMENT_3D('',#944,#750,#751);
#649=AXIS2_PLACEMENT_3D('',#950,#754,#755);
#650=AXIS2_PLACEMENT_3D('',#953,#757,#758);
#651=AXIS2_PLACEMENT_3D('',#955,#759,#760);
#652=AXIS2_PLACEMENT_3D('',#957,#761,#762);
#653=AXIS2_PLACEMENT_3D('',#958,#763,#764);
#654=AXIS2_PLACEMENT_3D('',#959,#765,#766);
#655=AXIS2_PLACEMENT_3D('',#960,#767,#768);
#656=AXIS2_PLACEMENT_3D('',#961,#769,#770);
#657=AXIS2_PLACEMENT_3D('',#962,#771,#772);
#658=AXIS2_PLACEMENT_3D('',#963,#773,#774);
#659=AXIS2_PLACEMENT_3D('',#964,#775,#776);
#660=AXIS2_PLACEMENT_3D('',#967,#777,#778);
#661=AXIS2_PLACEMENT_3D('',#971,#780,#781);
#662=AXIS2_PLACEMENT_3D('',#977,#784,#785);
#663=AXIS2_PLACEMENT_3D('',#980,#787,#788);
#664=AXIS2_PLACEMENT_3D('',#981,#789,#790);
#665=AXIS2_PLACEMENT_3D('',#987,#794,#795);
#666=AXIS2_PLACEMENT_3D('',#990,#798,#799);
#667=AXIS2_PLACEMENT_3D('',#996,#803,#804);
#668=AXIS2_PLACEMENT_3D('',#997,#805,#806);
#669=AXIS2_PLACEMENT_3D('',#998,#807,#808);
#670=AXIS2_PLACEMENT_3D('',#1000,#810,#811);
#671=AXIS2_PLACEMENT_3D('',#1002,#813,#814);
#672=AXIS2_PLACEMENT_3D('',#1003,#815,#816);
#673=AXIS2_PLACEMENT_3D('',#1004,#817,#818);
#674=AXIS2_PLACEMENT_3D('',#1005,#819,#820);
#675=AXIS2_PLACEMENT_3D('',#1008,#821,#822);
#676=AXIS2_PLACEMENT_3D('',#1011,#825,#826);
#677=AXIS2_PLACEMENT_3D('',#1015,#829,#830);
#678=AXIS2_PLACEMENT_3D('',#1019,#832,#833);
#679=AXIS2_PLACEMENT_3D('',#1023,#835,#836);
#680=AXIS2_PLACEMENT_3D('',#1026,#838,#839);
#681=AXIS2_PLACEMENT_3D('',#1028,#840,#841);
#682=AXIS2_PLACEMENT_3D('',#1030,#842,#843);
#683=AXIS2_PLACEMENT_3D('',#1031,#844,#845);
#684=AXIS2_PLACEMENT_3D('',#1033,#847,#848);
#685=AXIS2_PLACEMENT_3D('',#1035,#850,#851);
#686=AXIS2_PLACEMENT_3D('',#1037,#853,#854);
#687=AXIS2_PLACEMENT_3D('',#1039,#856,#857);
#688=AXIS2_PLACEMENT_3D('',#1041,#859,#860);
#689=AXIS2_PLACEMENT_3D('',#1042,#861,#862);
#690=AXIS2_PLACEMENT_3D('',#1045,#864,#865);
#691=AXIS2_PLACEMENT_3D('',#1046,#866,#867);
#692=AXIS2_PLACEMENT_3D('',#1049,#869,#870);
#693=AXIS2_PLACEMENT_3D('',#1050,#871,#872);
#694=AXIS2_PLACEMENT_3D('',#1052,#873,#874);
#695=AXIS2_PLACEMENT_3D('',#1053,#875,#876);
#696=AXIS2_PLACEMENT_3D('',#1055,#877,#878);
#697=AXIS2_PLACEMENT_3D('',#1056,#879,#880);
#698=AXIS2_PLACEMENT_3D('',#1058,#882,#883);
#699=DIRECTION('axis',(0.,0.,1.));
#700=DIRECTION('refdir',(1.,0.,0.));
#701=DIRECTION('center_axis',(1.,0.,0.));
#702=DIRECTION('ref_axis',(0.,-1.,0.));
#703=DIRECTION('',(0.,-1.,0.));
#704=DIRECTION('',(0.,0.,-1.));
#705=DIRECTION('',(0.,1.,0.));
#706=DIRECTION('',(0.,0.,-1.));
#707=DIRECTION('center_axis',(-1.,0.,0.));
#708=DIRECTION('ref_axis',(0.,1.,0.));
#709=DIRECTION('',(0.,1.,0.));
#710=DIRECTION('',(0.,0.,-1.));
#711=DIRECTION('',(0.,-1.,0.));
#712=DIRECTION('',(0.,0.,-1.));
#713=DIRECTION('center_axis',(0.,0.,1.));
#714=DIRECTION('ref_axis',(-1.,0.,0.));
#715=DIRECTION('center_axis',(0.,0.,1.));
#716=DIRECTION('ref_axis',(-1.,0.,0.));
#717=DIRECTION('center_axis',(0.,0.,-1.));
#718=DIRECTION('ref_axis',(-1.,0.,0.));
#719=DIRECTION('center_axis',(1.,0.,0.));
#720=DIRECTION('ref_axis',(0.,1.,0.));
#721=DIRECTION('',(0.,1.,0.));
#722=DIRECTION('',(0.,0.,-1.));
#723=DIRECTION('',(0.,1.,0.));
#724=DIRECTION('',(0.,0.,-1.));
#725=DIRECTION('center_axis',(-1.,0.,0.));
#726=DIRECTION('ref_axis',(0.,-1.,0.));
#727=DIRECTION('',(0.,-1.,0.));
#728=DIRECTION('',(0.,0.,-1.));
#729=DIRECTION('',(0.,-1.,0.));
#730=DIRECTION('',(0.,0.,1.));
#731=DIRECTION('center_axis',(0.,0.,1.));
#732=DIRECTION('ref_axis',(-1.,0.,0.));
#733=DIRECTION('center_axis',(0.,0.,1.));
#734=DIRECTION('ref_axis',(-1.,0.,0.));
#735=DIRECTION('center_axis',(0.,0.,1.));
#736=DIRECTION('ref_axis',(-1.,0.,0.));
#737=DIRECTION('center_axis',(0.,0.,1.));
#738=DIRECTION('ref_axis',(-1.,0.,0.));
#739=DIRECTION('center_axis',(0.,0.,1.));
#740=DIRECTION('ref_axis',(1.,0.,0.));
#741=DIRECTION('center_axis',(0.,0.,1.));
#742=DIRECTION('ref_axis',(-0.707106781186547,0.707106781186548,0.));
#743=DIRECTION('',(-1.,0.,0.));
#744=DIRECTION('center_axis',(0.,0.,1.));
#745=DIRECTION('ref_axis',(0.707106781186547,0.707106781186548,0.));
#746=DIRECTION('',(0.,1.,0.));
#747=DIRECTION('center_axis',(0.,0.,1.));
#748=DIRECTION('ref_axis',(0.707106781186547,-0.707106781186548,0.));
#749=DIRECTION('',(1.,0.,0.));
#750=DIRECTION('center_axis',(0.,0.,1.));
#751=DIRECTION('ref_axis',(-0.707106781186547,-0.707106781186548,0.));
#752=DIRECTION('',(0.,-1.,0.));
#753=DIRECTION('',(0.,-1.,0.));
#754=DIRECTION('center_axis',(0.,0.,1.));
#755=DIRECTION('ref_axis',(-1.,0.,0.));
#756=DIRECTION('',(0.,1.,0.));
#757=DIRECTION('center_axis',(0.,0.,1.));
#758=DIRECTION('ref_axis',(-1.,0.,0.));
#759=DIRECTION('center_axis',(0.,0.,-1.));
#760=DIRECTION('ref_axis',(-1.,0.,0.));
#761=DIRECTION('center_axis',(0.,0.,-1.));
#762=DIRECTION('ref_axis',(-1.,0.,0.));
#763=DIRECTION('center_axis',(0.,0.,1.));
#764=DIRECTION('ref_axis',(-1.,0.,0.));
#765=DIRECTION('center_axis',(0.,0.,1.));
#766=DIRECTION('ref_axis',(-1.,0.,0.));
#767=DIRECTION('center_axis',(0.,0.,1.));
#768=DIRECTION('ref_axis',(-1.,0.,0.));
#769=DIRECTION('center_axis',(0.,0.,1.));
#770=DIRECTION('ref_axis',(-1.,0.,0.));
#771=DIRECTION('center_axis',(0.,0.,1.));
#772=DIRECTION('ref_axis',(-1.,0.,0.));
#773=DIRECTION('center_axis',(0.,0.,-1.));
#774=DIRECTION('ref_axis',(-1.,0.,0.));
#775=DIRECTION('center_axis',(0.,0.,1.));
#776=DIRECTION('ref_axis',(-1.,0.,0.));
#777=DIRECTION('center_axis',(0.,0.,1.));
#778=DIRECTION('ref_axis',(-1.,0.,0.));
#779=DIRECTION('',(0.,-1.,0.));
#780=DIRECTION('center_axis',(0.,0.,1.));
#781=DIRECTION('ref_axis',(-1.,0.,0.));
#782=DIRECTION('',(0.,1.,0.));
#783=DIRECTION('',(0.,1.,0.));
#784=DIRECTION('center_axis',(0.,0.,1.));
#785=DIRECTION('ref_axis',(-1.,0.,0.));
#786=DIRECTION('',(0.,-1.,0.));
#787=DIRECTION('center_axis',(0.,0.,1.));
#788=DIRECTION('ref_axis',(-1.,0.,0.));
#789=DIRECTION('center_axis',(1.,0.,0.));
#790=DIRECTION('ref_axis',(0.,-1.,0.));
#791=DIRECTION('',(0.,0.,-1.));
#792=DIRECTION('',(0.,-1.,0.));
#793=DIRECTION('',(0.,0.,-1.));
#794=DIRECTION('center_axis',(0.,0.,1.));
#795=DIRECTION('ref_axis',(-1.,0.,0.));
#796=DIRECTION('',(0.,0.,1.));
#797=DIRECTION('',(0.,0.,-1.));
#798=DIRECTION('center_axis',(-1.,0.,0.));
#799=DIRECTION('ref_axis',(0.,1.,0.));
#800=DIRECTION('',(0.,1.,0.));
#801=DIRECTION('',(0.,0.,-1.));
#802=DIRECTION('',(0.,0.,-1.));
#803=DIRECTION('center_axis',(0.,0.,1.));
#804=DIRECTION('ref_axis',(-1.,0.,0.));
#805=DIRECTION('center_axis',(0.,0.,-1.));
#806=DIRECTION('ref_axis',(-1.,0.,0.));
#807=DIRECTION('center_axis',(-1.,0.,0.));
#808=DIRECTION('ref_axis',(0.,-1.,0.));
#809=DIRECTION('',(0.,0.,1.));
#810=DIRECTION('center_axis',(1.,0.,0.));
#811=DIRECTION('ref_axis',(0.,1.,0.));
#812=DIRECTION('',(0.,0.,-1.));
#813=DIRECTION('center_axis',(0.,0.,1.));
#814=DIRECTION('ref_axis',(-1.,0.,0.));
#815=DIRECTION('center_axis',(0.,0.,1.));
#816=DIRECTION('ref_axis',(-1.,0.,0.));
#817=DIRECTION('center_axis',(0.,0.,-1.));
#818=DIRECTION('ref_axis',(-1.,0.,0.));
#819=DIRECTION('center_axis',(0.,0.,1.));
#820=DIRECTION('ref_axis',(-0.707106781186547,0.707106781186548,0.));
#821=DIRECTION('center_axis',(0.,0.,-1.));
#822=DIRECTION('ref_axis',(-0.707106781186547,0.707106781186548,0.));
#823=DIRECTION('',(0.,0.,-1.));
#824=DIRECTION('',(0.,0.,1.));
#825=DIRECTION('center_axis',(0.,1.,0.));
#826=DIRECTION('ref_axis',(0.,0.,1.));
#827=DIRECTION('',(1.,0.,0.));
#828=DIRECTION('',(0.,0.,1.));
#829=DIRECTION('center_axis',(0.,0.,1.));
#830=DIRECTION('ref_axis',(1.,0.,0.));
#831=DIRECTION('',(0.,1.,0.));
#832=DIRECTION('center_axis',(0.,0.,-1.));
#833=DIRECTION('ref_axis',(-0.707106781186547,-0.707106781186548,0.));
#834=DIRECTION('',(1.,0.,0.));
#835=DIRECTION('center_axis',(0.,0.,-1.));
#836=DIRECTION('ref_axis',(0.707106781186547,-0.707106781186548,0.));
#837=DIRECTION('',(0.,1.,0.));
#838=DIRECTION('center_axis',(0.,0.,-1.));
#839=DIRECTION('ref_axis',(0.707106781186547,0.707106781186548,0.));
#840=DIRECTION('center_axis',(0.,0.,-1.));
#841=DIRECTION('ref_axis',(-1.,0.,0.));
#842=DIRECTION('center_axis',(0.,0.,-1.));
#843=DIRECTION('ref_axis',(-1.,0.,0.));
#844=DIRECTION('center_axis',(0.,0.,-1.));
#845=DIRECTION('ref_axis',(0.707106781186547,0.707106781186548,0.));
#846=DIRECTION('',(0.,0.,-1.));
#847=DIRECTION('center_axis',(1.,0.,0.));
#848=DIRECTION('ref_axis',(0.,0.,1.));
#849=DIRECTION('',(0.,0.,1.));
#850=DIRECTION('center_axis',(1.,0.,0.));
#851=DIRECTION('ref_axis',(0.,0.,1.));
#852=DIRECTION('',(0.,0.,-1.));
#853=DIRECTION('center_axis',(0.,0.,-1.));
#854=DIRECTION('ref_axis',(-0.707106781186547,-0.707106781186548,0.));
#855=DIRECTION('',(0.,0.,1.));
#856=DIRECTION('center_axis',(0.,1.,0.));
#857=DIRECTION('ref_axis',(0.,0.,1.));
#858=DIRECTION('',(0.,0.,-1.));
#859=DIRECTION('center_axis',(0.,0.,1.));
#860=DIRECTION('ref_axis',(0.707106781186547,-0.707106781186548,0.));
#861=DIRECTION('center_axis',(0.,0.,-1.));
#862=DIRECTION('ref_axis',(-1.,0.,0.));
#863=DIRECTION('',(0.,0.,-1.));
#864=DIRECTION('center_axis',(0.,0.,-1.));
#865=DIRECTION('ref_axis',(-1.,0.,0.));
#866=DIRECTION('center_axis',(0.,0.,-1.));
#867=DIRECTION('ref_axis',(-1.,0.,0.));
#868=DIRECTION('',(0.,0.,-1.));
#869=DIRECTION('center_axis',(0.,0.,-1.));
#870=DIRECTION('ref_axis',(-1.,0.,0.));
#871=DIRECTION('center_axis',(0.,0.,-1.));
#872=DIRECTION('ref_axis',(-1.,0.,0.));
#873=DIRECTION('center_axis',(0.,0.,-1.));
#874=DIRECTION('ref_axis',(-1.,0.,0.));
#875=DIRECTION('center_axis',(0.,0.,-1.));
#876=DIRECTION('ref_axis',(-1.,0.,0.));
#877=DIRECTION('center_axis',(0.,0.,-1.));
#878=DIRECTION('ref_axis',(-1.,0.,0.));
#879=DIRECTION('center_axis',(0.,0.,-1.));
#880=DIRECTION('ref_axis',(-1.,0.,0.));
#881=DIRECTION('',(0.,0.,-1.));
#882=DIRECTION('center_axis',(0.,0.,-1.));
#883=DIRECTION('ref_axis',(-1.,0.,0.));
#884=DIRECTION('',(0.,0.,-1.));
#885=CARTESIAN_POINT('',(0.,0.,0.));
#886=CARTESIAN_POINT('Origin',(2.2,61.,3.));
#887=CARTESIAN_POINT('',(2.2,61.,0.));
#888=CARTESIAN_POINT('',(2.2,52.,0.));
#889=CARTESIAN_POINT('',(2.2,-6.90278128086424,0.));
#890=CARTESIAN_POINT('',(2.2,61.,-1.6));
#891=CARTESIAN_POINT('',(2.2,61.,0.));
#892=CARTESIAN_POINT('',(2.2,52.,-1.6));
#893=CARTESIAN_POINT('',(2.2,56.5,-1.6));
#894=CARTESIAN_POINT('',(2.2,52.,0.));
#895=CARTESIAN_POINT('Origin',(-2.2,52.,3.));
#896=CARTESIAN_POINT('',(-2.2,52.,0.));
#897=CARTESIAN_POINT('',(-2.2,61.,0.));
#898=CARTESIAN_POINT('',(-2.2,-6.90278128086424,0.));
#899=CARTESIAN_POINT('',(-2.2,52.,-1.6));
#900=CARTESIAN_POINT('',(-2.2,52.,0.));
#901=CARTESIAN_POINT('',(-2.2,61.,-1.6));
#902=CARTESIAN_POINT('',(-2.2,52.,-1.6));
#903=CARTESIAN_POINT('',(-2.2,61.,0.));
#904=CARTESIAN_POINT('Origin',(0.,52.,0.));
#905=CARTESIAN_POINT('Origin',(0.,52.,-1.6));
#906=CARTESIAN_POINT('Origin',(0.,52.,0.));
#907=CARTESIAN_POINT('Origin',(4.5,52.,-9.));
#908=CARTESIAN_POINT('',(4.5,52.,-6.));
#909=CARTESIAN_POINT('',(4.5,61.,-6.));
#910=CARTESIAN_POINT('',(4.5,14.5,-6.));
#911=CARTESIAN_POINT('',(4.5,52.,-1.6));
#912=CARTESIAN_POINT('',(4.5,52.,-3.8));
#913=CARTESIAN_POINT('',(4.5,61.,-1.6));
#914=CARTESIAN_POINT('',(4.5,56.5,-1.6));
#915=CARTESIAN_POINT('',(4.5,61.,-3.8));
#916=CARTESIAN_POINT('Origin',(-4.5,61.,-9.));
#917=CARTESIAN_POINT('',(-4.5,61.,-6.));
#918=CARTESIAN_POINT('',(-4.5,52.,-6.));
#919=CARTESIAN_POINT('',(-4.5,19.,-6.));
#920=CARTESIAN_POINT('',(-4.5,61.,-1.6));
#921=CARTESIAN_POINT('',(-4.5,61.,-3.8));
#922=CARTESIAN_POINT('',(-4.5,52.,-1.6));
#923=CARTESIAN_POINT('',(-4.5,56.5,-1.6));
#924=CARTESIAN_POINT('',(-4.5,52.,-3.8));
#925=CARTESIAN_POINT('Origin',(0.,52.,-1.6));
#926=CARTESIAN_POINT('Origin',(0.,52.,-1.6));
#927=CARTESIAN_POINT('Origin',(0.,61.,-1.6));
#928=CARTESIAN_POINT('Origin',(0.,61.,-1.6));
#929=CARTESIAN_POINT('Origin',(-10.5,-23.,-6.));
#930=CARTESIAN_POINT('',(-5.501,83.,-6.));
#931=CARTESIAN_POINT('',(-10.5,78.001,-6.));
#932=CARTESIAN_POINT('Origin',(-5.501,78.001,-6.));
#933=CARTESIAN_POINT('',(5.501,83.,-6.));
#934=CARTESIAN_POINT('',(-10.5,83.,-6.));
#935=CARTESIAN_POINT('',(10.5,78.001,-6.));
#936=CARTESIAN_POINT('Origin',(5.501,78.001,-6.));
#937=CARTESIAN_POINT('',(10.5,-78.001,-6.));
#938=CARTESIAN_POINT('',(10.5,-23.,-6.));
#939=CARTESIAN_POINT('',(5.501,-83.,-6.));
#940=CARTESIAN_POINT('Origin',(5.501,-78.001,-6.));
#941=CARTESIAN_POINT('',(-5.501,-83.,-6.));
#942=CARTESIAN_POINT('',(-10.5,-83.,-6.));
#943=CARTESIAN_POINT('',(-10.5,-78.001,-6.));
#944=CARTESIAN_POINT('Origin',(-5.501,-78.001,-6.));
#945=CARTESIAN_POINT('',(-10.5,-23.,-6.));
#946=CARTESIAN_POINT('',(-4.5,-52.,-6.));
#947=CARTESIAN_POINT('',(-4.5,-61.,-6.));
#948=CARTESIAN_POINT('',(-4.5,-34.75,-6.));
#949=CARTESIAN_POINT('',(4.5,-61.,-6.));
#950=CARTESIAN_POINT('Origin',(0.,-61.,-6.));
#951=CARTESIAN_POINT('',(4.5,-52.,-6.));
#952=CARTESIAN_POINT('',(4.5,-34.75,-6.));
#953=CARTESIAN_POINT('Origin',(0.,-52.,-6.));
#954=CARTESIAN_POINT('',(2.1844,-72.5,-6.));
#955=CARTESIAN_POINT('Origin',(0.,-72.5,-6.));
#956=CARTESIAN_POINT('',(2.1844,72.5,-6.));
#957=CARTESIAN_POINT('Origin',(0.,72.5,-6.));
#958=CARTESIAN_POINT('Origin',(0.,61.,-6.));
#959=CARTESIAN_POINT('Origin',(0.,52.,-6.));
#960=CARTESIAN_POINT('Origin',(0.,61.,-3.8));
#961=CARTESIAN_POINT('Origin',(0.,52.,-3.8));
#962=CARTESIAN_POINT('Origin',(0.,61.,0.));
#963=CARTESIAN_POINT('Origin',(0.,61.,0.));
#964=CARTESIAN_POINT('Origin',(0.,12.,-1.6));
#965=CARTESIAN_POINT('',(-4.5,-61.,-1.6));
#966=CARTESIAN_POINT('',(4.5,-61.,-1.6));
#967=CARTESIAN_POINT('Origin',(0.,-61.,-1.6));
#968=CARTESIAN_POINT('',(-4.5,-52.,-1.6));
#969=CARTESIAN_POINT('',(-4.5,-58.5,-1.6));
#970=CARTESIAN_POINT('',(4.5,-52.,-1.6));
#971=CARTESIAN_POINT('Origin',(0.,-52.,-1.6));
#972=CARTESIAN_POINT('',(4.5,-56.,-1.6));
#973=CARTESIAN_POINT('',(2.2,-61.,-1.6));
#974=CARTESIAN_POINT('',(2.2,-52.,-1.6));
#975=CARTESIAN_POINT('',(2.2,-20.,-1.6));
#976=CARTESIAN_POINT('',(-2.2,-52.,-1.6));
#977=CARTESIAN_POINT('Origin',(0.,-52.,-1.6));
#978=CARTESIAN_POINT('',(-2.2,-61.,-1.6));
#979=CARTESIAN_POINT('',(-2.2,-24.5,-1.6));
#980=CARTESIAN_POINT('Origin',(0.,-61.,-1.6));
#981=CARTESIAN_POINT('Origin',(2.2,-52.,5.));
#982=CARTESIAN_POINT('',(2.2,-61.,0.));
#983=CARTESIAN_POINT('',(2.2,-61.,0.));
#984=CARTESIAN_POINT('',(2.2,-52.,0.));
#985=CARTESIAN_POINT('',(2.2,-73.4740476740202,0.));
#986=CARTESIAN_POINT('',(2.2,-52.,0.));
#987=CARTESIAN_POINT('Origin',(0.,-52.,-3.8));
#988=CARTESIAN_POINT('',(4.5,-52.,-3.8));
#989=CARTESIAN_POINT('',(-4.5,-52.,-3.8));
#990=CARTESIAN_POINT('Origin',(-2.2,-61.,5.));
#991=CARTESIAN_POINT('',(-2.2,-61.,0.));
#992=CARTESIAN_POINT('',(-2.2,-52.,0.));
#993=CARTESIAN_POINT('',(-2.2,-73.4740476740202,0.));
#994=CARTESIAN_POINT('',(-2.2,-61.,0.));
#995=CARTESIAN_POINT('',(-2.2,-52.,0.));
#996=CARTESIAN_POINT('Origin',(0.,-52.,0.));
#997=CARTESIAN_POINT('Origin',(0.,-52.,0.));
#998=CARTESIAN_POINT('Origin',(-4.5,-52.,-18.));
#999=CARTESIAN_POINT('',(-4.5,-61.,-3.8));
#1000=CARTESIAN_POINT('Origin',(4.5,-61.,-18.));
#1001=CARTESIAN_POINT('',(4.5,-61.,-3.8));
#1002=CARTESIAN_POINT('Origin',(0.,-61.,-3.8));
#1003=CARTESIAN_POINT('Origin',(0.,-61.,0.));
#1004=CARTESIAN_POINT('Origin',(0.,-61.,0.));
#1005=CARTESIAN_POINT('Origin',(-5.501,78.001,-8.));
#1006=CARTESIAN_POINT('',(-10.5,78.001,0.));
#1007=CARTESIAN_POINT('',(-5.501,83.,0.));
#1008=CARTESIAN_POINT('Origin',(-5.501,78.001,0.));
#1009=CARTESIAN_POINT('',(-5.501,83.,-8.));
#1010=CARTESIAN_POINT('',(-10.5,78.001,-8.));
#1011=CARTESIAN_POINT('Origin',(-10.5,83.,-8.));
#1012=CARTESIAN_POINT('',(5.501,83.,0.));
#1013=CARTESIAN_POINT('',(-10.5,83.,0.));
#1014=CARTESIAN_POINT('',(5.501,83.,-8.));
#1015=CARTESIAN_POINT('Origin',(-10.5,-87.,0.));
#1016=CARTESIAN_POINT('',(-10.5,-78.001,0.));
#1017=CARTESIAN_POINT('',(-10.5,-87.,0.));
#1018=CARTESIAN_POINT('',(-5.501,-83.,0.));
#1019=CARTESIAN_POINT('Origin',(-5.501,-78.001,0.));
#1020=CARTESIAN_POINT('',(5.501,-83.,0.));
#1021=CARTESIAN_POINT('',(-10.5,-83.,0.));
#1022=CARTESIAN_POINT('',(10.5,-78.001,0.));
#1023=CARTESIAN_POINT('Origin',(5.501,-78.001,0.));
#1024=CARTESIAN_POINT('',(10.5,78.001,0.));
#1025=CARTESIAN_POINT('',(10.5,-87.,0.));
#1026=CARTESIAN_POINT('Origin',(5.501,78.001,0.));
#1027=CARTESIAN_POINT('',(4.5,-72.5,0.));
#1028=CARTESIAN_POINT('Origin',(0.,-72.5,0.));
#1029=CARTESIAN_POINT('',(4.5,72.5,0.));
#1030=CARTESIAN_POINT('Origin',(0.,72.5,0.));
#1031=CARTESIAN_POINT('Origin',(5.501,78.001,-8.));
#1032=CARTESIAN_POINT('',(10.5,78.001,-8.));
#1033=CARTESIAN_POINT('Origin',(10.5,-23.,-8.));
#1034=CARTESIAN_POINT('',(10.5,-78.001,-8.));
#1035=CARTESIAN_POINT('Origin',(-10.5,-23.,-8.));
#1036=CARTESIAN_POINT('',(-10.5,-78.001,-8.));
#1037=CARTESIAN_POINT('Origin',(-5.501,-78.001,-8.));
#1038=CARTESIAN_POINT('',(-5.501,-83.,-8.));
#1039=CARTESIAN_POINT('Origin',(-10.5,-83.,-8.));
#1040=CARTESIAN_POINT('',(5.501,-83.,-8.));
#1041=CARTESIAN_POINT('Origin',(5.501,-78.001,-8.));
#1042=CARTESIAN_POINT('Origin',(0.,-72.5,0.));
#1043=CARTESIAN_POINT('',(4.5,-72.5,-4.4));
#1044=CARTESIAN_POINT('',(4.5,-72.5,0.));
#1045=CARTESIAN_POINT('Origin',(0.,-72.5,-4.4));
#1046=CARTESIAN_POINT('Origin',(0.,72.5,0.));
#1047=CARTESIAN_POINT('',(4.5,72.5,-4.4));
#1048=CARTESIAN_POINT('',(4.5,72.5,0.));
#1049=CARTESIAN_POINT('Origin',(0.,72.5,-4.4));
#1050=CARTESIAN_POINT('Origin',(0.,-72.5,-4.4));
#1051=CARTESIAN_POINT('',(2.1844,-72.5,-4.4));
#1052=CARTESIAN_POINT('Origin',(0.,-72.5,-4.4));
#1053=CARTESIAN_POINT('Origin',(0.,72.5,-4.4));
#1054=CARTESIAN_POINT('',(2.1844,72.5,-4.4));
#1055=CARTESIAN_POINT('Origin',(0.,72.5,-4.4));
#1056=CARTESIAN_POINT('Origin',(0.,-72.5,0.));
#1057=CARTESIAN_POINT('',(2.1844,-72.5,0.));
#1058=CARTESIAN_POINT('Origin',(0.,72.5,0.));
#1059=CARTESIAN_POINT('',(2.1844,72.5,0.));
#1060=UNCERTAINTY_MEASURE_WITH_UNIT(LENGTH_MEASURE(0.01),#1064,
'DISTANCE_ACCURACY_VALUE',
'Maximum model space distance between geometric entities at asserted c
onnectivities');
#1061=UNCERTAINTY_MEASURE_WITH_UNIT(LENGTH_MEASURE(0.01),#1064,
'DISTANCE_ACCURACY_VALUE',
'Maximum model space distance between geometric entities at asserted c
onnectivities');
#1062=(
GEOMETRIC_REPRESENTATION_CONTEXT(3)
GLOBAL_UNCERTAINTY_ASSIGNED_CONTEXT((#1060))
GLOBAL_UNIT_ASSIGNED_CONTEXT((#1064,#1066,#1067))
REPRESENTATION_CONTEXT('','3D')
);
#1063=(
GEOMETRIC_REPRESENTATION_CONTEXT(3)
GLOBAL_UNCERTAINTY_ASSIGNED_CONTEXT((#1061))
GLOBAL_UNIT_ASSIGNED_CONTEXT((#1064,#1066,#1067))
REPRESENTATION_CONTEXT('','3D')
);
#1064=(
LENGTH_UNIT()
NAMED_UNIT(*)
SI_UNIT(.MILLI.,.METRE.)
);
#1065=(
LENGTH_UNIT()
NAMED_UNIT(*)
SI_UNIT($,.METRE.)
);
#1066=(
NAMED_UNIT(*)
PLANE_ANGLE_UNIT()
SI_UNIT($,.RADIAN.)
);
#1067=(
NAMED_UNIT(*)
SI_UNIT($,.STERADIAN.)
SOLID_ANGLE_UNIT()
);
#1068=SHAPE_DEFINITION_REPRESENTATION(#1069,#1070);
#1069=PRODUCT_DEFINITION_SHAPE('',$,#1072);
#1070=SHAPE_REPRESENTATION('',(#632),#1062);
#1071=PRODUCT_DEFINITION_CONTEXT('part definition',#1076,'design');
#1072=PRODUCT_DEFINITION('Surface Adapter','etalon_adapter',#1073,#1071);
#1073=PRODUCT_DEFINITION_FORMATION('',$,#1078);
#1074=PRODUCT_RELATED_PRODUCT_CATEGORY('etalon_adapter',
'etalon_adapter',(#1078));
#1075=APPLICATION_PROTOCOL_DEFINITION('international standard',
'automotive_design',2009,#1076);
#1076=APPLICATION_CONTEXT(
'Core Data for Automotive Mechanical Design Process');
#1077=PRODUCT_CONTEXT('part definition',#1076,'mechanical');
#1078=PRODUCT('Surface Adapter','etalon_adapter','FreeCAD Model',(#1077));
#1079=PRESENTATION_STYLE_ASSIGNMENT((#1081));
#1080=PRESENTATION_STYLE_ASSIGNMENT((#1082));
#1081=SURFACE_STYLE_USAGE(.BOTH.,#1083);
#1082=SURFACE_STYLE_USAGE(.BOTH.,#1084);
#1083=SURFACE_SIDE_STYLE('',(#1085));
#1084=SURFACE_SIDE_STYLE('',(#1086));
#1085=SURFACE_STYLE_FILL_AREA(#1087);
#1086=SURFACE_STYLE_FILL_AREA(#1088);
#1087=FILL_AREA_STYLE('Steel - Satin',(#1089));
#1088=FILL_AREA_STYLE('Opaque(153,229,153)',(#1090));
#1089=FILL_AREA_STYLE_COLOUR('Steel - Satin',#1091);
#1090=FILL_AREA_STYLE_COLOUR('Opaque(153,229,153)',#1092);
#1091=COLOUR_RGB('Steel - Satin',0.627450980392157,0.627450980392157,0.627450980392157);
#1092=COLOUR_RGB('Opaque(153,229,153)',0.6,0.898039215686275,0.6);
ENDSEC;
END-ISO-10303-21;
