ISO-10303-21;
HEADER;
/* Generated by software containing ST-Developer
 * from STEP Tools, Inc. (www.steptools.com) 
 */

FILE_DESCRIPTION(
/* description */ (''),
/* implementation_level */ '2;1');

FILE_NAME(
/* name */ 'etalon-box.step',
/* time_stamp */ '2026-08-24T15:32:58-05:00',
/* author */ (''),
/* organization */ (''),
/* preprocessor_version */ 'ST-DEVELOPER v20.1',
/* originating_system */ 'Autodesk Translation Framework v15.8.0.0',
/* authorisation */ '');

FILE_SCHEMA (('AUTOMOTIVE_DESIGN { 1 0 10303 214 3 1 1 }'));
ENDSEC;

DATA;
#10=MECHANICAL_DESIGN_GEOMETRIC_PRESENTATION_REPRESENTATION('',(#13),#402);
#11=SHAPE_REPRESENTATION_RELATIONSHIP('SRR','None',#409,#12);
#12=ADVANCED_BREP_SHAPE_REPRESENTATION('',(#14),#401);
#13=STYLED_ITEM('',(#418),#14);
#14=MANIFOLD_SOLID_BREP('Body1',#230);
#15=FACE_BOUND('',#57,.T.);
#16=FACE_BOUND('',#59,.T.);
#17=FACE_BOUND('',#60,.T.);
#18=FACE_BOUND('',#61,.T.);
#19=FACE_BOUND('',#62,.T.);
#20=FACE_BOUND('',#64,.T.);
#21=PLANE('',#247);
#22=PLANE('',#251);
#23=PLANE('',#255);
#24=PLANE('',#259);
#25=PLANE('',#263);
#26=PLANE('',#264);
#27=PLANE('',#265);
#28=PLANE('',#266);
#29=PLANE('',#267);
#30=PLANE('',#268);
#31=FACE_OUTER_BOUND('',#46,.T.);
#32=FACE_OUTER_BOUND('',#47,.T.);
#33=FACE_OUTER_BOUND('',#48,.T.);
#34=FACE_OUTER_BOUND('',#49,.T.);
#35=FACE_OUTER_BOUND('',#50,.T.);
#36=FACE_OUTER_BOUND('',#51,.T.);
#37=FACE_OUTER_BOUND('',#52,.T.);
#38=FACE_OUTER_BOUND('',#53,.T.);
#39=FACE_OUTER_BOUND('',#54,.T.);
#40=FACE_OUTER_BOUND('',#55,.T.);
#41=FACE_OUTER_BOUND('',#56,.T.);
#42=FACE_OUTER_BOUND('',#58,.T.);
#43=FACE_OUTER_BOUND('',#63,.T.);
#44=FACE_OUTER_BOUND('',#65,.T.);
#45=FACE_OUTER_BOUND('',#66,.T.);
#46=EDGE_LOOP('',(#156,#157,#158,#159));
#47=EDGE_LOOP('',(#160));
#48=EDGE_LOOP('',(#161,#162,#163,#164));
#49=EDGE_LOOP('',(#165));
#50=EDGE_LOOP('',(#166,#167,#168,#169));
#51=EDGE_LOOP('',(#170));
#52=EDGE_LOOP('',(#171,#172,#173,#174));
#53=EDGE_LOOP('',(#175));
#54=EDGE_LOOP('',(#176,#177,#178,#179));
#55=EDGE_LOOP('',(#180,#181,#182,#183));
#56=EDGE_LOOP('',(#184,#185,#186,#187));
#57=EDGE_LOOP('',(#188));
#58=EDGE_LOOP('',(#189,#190,#191,#192));
#59=EDGE_LOOP('',(#193));
#60=EDGE_LOOP('',(#194));
#61=EDGE_LOOP('',(#195));
#62=EDGE_LOOP('',(#196));
#63=EDGE_LOOP('',(#197,#198,#199,#200));
#64=EDGE_LOOP('',(#201));
#65=EDGE_LOOP('',(#202,#203,#204,#205));
#66=EDGE_LOOP('',(#206,#207,#208,#209));
#67=LINE('',#343,#84);
#68=LINE('',#350,#85);
#69=LINE('',#357,#86);
#70=LINE('',#364,#87);
#71=LINE('',#371,#88);
#72=LINE('',#376,#89);
#73=LINE('',#378,#90);
#74=LINE('',#380,#91);
#75=LINE('',#381,#92);
#76=LINE('',#384,#93);
#77=LINE('',#386,#94);
#78=LINE('',#387,#95);
#79=LINE('',#390,#96);
#80=LINE('',#392,#97);
#81=LINE('',#393,#98);
#82=LINE('',#395,#99);
#83=LINE('',#396,#100);
#84=VECTOR('',#275,1.7145);
#85=VECTOR('',#284,1.7145);
#86=VECTOR('',#293,1.7145);
#87=VECTOR('',#302,1.7145);
#88=VECTOR('',#311,12.7);
#89=VECTOR('',#316,10.);
#90=VECTOR('',#317,10.);
#91=VECTOR('',#318,10.);
#92=VECTOR('',#319,10.);
#93=VECTOR('',#322,10.);
#94=VECTOR('',#323,10.);
#95=VECTOR('',#324,10.);
#96=VECTOR('',#327,10.);
#97=VECTOR('',#328,10.);
#98=VECTOR('',#329,10.);
#99=VECTOR('',#332,10.);
#100=VECTOR('',#333,10.);
#101=CIRCLE('',#245,1.70815);
#102=CIRCLE('',#246,1.70815);
#103=CIRCLE('',#249,1.70815);
#104=CIRCLE('',#250,1.70815);
#105=CIRCLE('',#253,1.70815);
#106=CIRCLE('',#254,1.70815);
#107=CIRCLE('',#257,1.70815);
#108=CIRCLE('',#258,1.70815);
#109=CIRCLE('',#261,12.7);
#110=CIRCLE('',#262,12.7);
#111=VERTEX_POINT('',#340);
#112=VERTEX_POINT('',#342);
#113=VERTEX_POINT('',#347);
#114=VERTEX_POINT('',#349);
#115=VERTEX_POINT('',#354);
#116=VERTEX_POINT('',#356);
#117=VERTEX_POINT('',#361);
#118=VERTEX_POINT('',#363);
#119=VERTEX_POINT('',#368);
#120=VERTEX_POINT('',#370);
#121=VERTEX_POINT('',#374);
#122=VERTEX_POINT('',#375);
#123=VERTEX_POINT('',#377);
#124=VERTEX_POINT('',#379);
#125=VERTEX_POINT('',#383);
#126=VERTEX_POINT('',#385);
#127=VERTEX_POINT('',#389);
#128=VERTEX_POINT('',#391);
#129=EDGE_CURVE('',#111,#111,#101,.F.);
#130=EDGE_CURVE('',#111,#112,#67,.T.);
#131=EDGE_CURVE('',#112,#112,#102,.F.);
#132=EDGE_CURVE('',#113,#113,#103,.F.);
#133=EDGE_CURVE('',#113,#114,#68,.T.);
#134=EDGE_CURVE('',#114,#114,#104,.F.);
#135=EDGE_CURVE('',#115,#115,#105,.F.);
#136=EDGE_CURVE('',#115,#116,#69,.T.);
#137=EDGE_CURVE('',#116,#116,#106,.F.);
#138=EDGE_CURVE('',#117,#117,#107,.F.);
#139=EDGE_CURVE('',#117,#118,#70,.T.);
#140=EDGE_CURVE('',#118,#118,#108,.F.);
#141=EDGE_CURVE('',#119,#119,#109,.T.);
#142=EDGE_CURVE('',#119,#120,#71,.T.);
#143=EDGE_CURVE('',#120,#120,#110,.T.);
#144=EDGE_CURVE('',#121,#122,#72,.T.);
#145=EDGE_CURVE('',#122,#123,#73,.T.);
#146=EDGE_CURVE('',#123,#124,#74,.T.);
#147=EDGE_CURVE('',#124,#121,#75,.T.);
#148=EDGE_CURVE('',#125,#122,#76,.T.);
#149=EDGE_CURVE('',#125,#126,#77,.T.);
#150=EDGE_CURVE('',#126,#123,#78,.T.);
#151=EDGE_CURVE('',#125,#127,#79,.T.);
#152=EDGE_CURVE('',#127,#128,#80,.T.);
#153=EDGE_CURVE('',#128,#126,#81,.T.);
#154=EDGE_CURVE('',#128,#124,#82,.T.);
#155=EDGE_CURVE('',#121,#127,#83,.T.);
#156=ORIENTED_EDGE('',*,*,#129,.F.);
#157=ORIENTED_EDGE('',*,*,#130,.T.);
#158=ORIENTED_EDGE('',*,*,#131,.T.);
#159=ORIENTED_EDGE('',*,*,#130,.F.);
#160=ORIENTED_EDGE('',*,*,#131,.F.);
#161=ORIENTED_EDGE('',*,*,#132,.F.);
#162=ORIENTED_EDGE('',*,*,#133,.T.);
#163=ORIENTED_EDGE('',*,*,#134,.T.);
#164=ORIENTED_EDGE('',*,*,#133,.F.);
#165=ORIENTED_EDGE('',*,*,#134,.F.);
#166=ORIENTED_EDGE('',*,*,#135,.F.);
#167=ORIENTED_EDGE('',*,*,#136,.T.);
#168=ORIENTED_EDGE('',*,*,#137,.T.);
#169=ORIENTED_EDGE('',*,*,#136,.F.);
#170=ORIENTED_EDGE('',*,*,#137,.F.);
#171=ORIENTED_EDGE('',*,*,#138,.F.);
#172=ORIENTED_EDGE('',*,*,#139,.T.);
#173=ORIENTED_EDGE('',*,*,#140,.T.);
#174=ORIENTED_EDGE('',*,*,#139,.F.);
#175=ORIENTED_EDGE('',*,*,#140,.F.);
#176=ORIENTED_EDGE('',*,*,#141,.F.);
#177=ORIENTED_EDGE('',*,*,#142,.T.);
#178=ORIENTED_EDGE('',*,*,#143,.F.);
#179=ORIENTED_EDGE('',*,*,#142,.F.);
#180=ORIENTED_EDGE('',*,*,#144,.T.);
#181=ORIENTED_EDGE('',*,*,#145,.T.);
#182=ORIENTED_EDGE('',*,*,#146,.T.);
#183=ORIENTED_EDGE('',*,*,#147,.T.);
#184=ORIENTED_EDGE('',*,*,#148,.F.);
#185=ORIENTED_EDGE('',*,*,#149,.T.);
#186=ORIENTED_EDGE('',*,*,#150,.T.);
#187=ORIENTED_EDGE('',*,*,#145,.F.);
#188=ORIENTED_EDGE('',*,*,#143,.T.);
#189=ORIENTED_EDGE('',*,*,#151,.T.);
#190=ORIENTED_EDGE('',*,*,#152,.T.);
#191=ORIENTED_EDGE('',*,*,#153,.T.);
#192=ORIENTED_EDGE('',*,*,#149,.F.);
#193=ORIENTED_EDGE('',*,*,#129,.T.);
#194=ORIENTED_EDGE('',*,*,#132,.T.);
#195=ORIENTED_EDGE('',*,*,#135,.T.);
#196=ORIENTED_EDGE('',*,*,#138,.T.);
#197=ORIENTED_EDGE('',*,*,#154,.F.);
#198=ORIENTED_EDGE('',*,*,#152,.F.);
#199=ORIENTED_EDGE('',*,*,#155,.F.);
#200=ORIENTED_EDGE('',*,*,#147,.F.);
#201=ORIENTED_EDGE('',*,*,#141,.T.);
#202=ORIENTED_EDGE('',*,*,#153,.F.);
#203=ORIENTED_EDGE('',*,*,#154,.T.);
#204=ORIENTED_EDGE('',*,*,#146,.F.);
#205=ORIENTED_EDGE('',*,*,#150,.F.);
#206=ORIENTED_EDGE('',*,*,#155,.T.);
#207=ORIENTED_EDGE('',*,*,#151,.F.);
#208=ORIENTED_EDGE('',*,*,#148,.T.);
#209=ORIENTED_EDGE('',*,*,#144,.F.);
#210=CYLINDRICAL_SURFACE('',#244,1.70815);
#211=CYLINDRICAL_SURFACE('',#248,1.70815);
#212=CYLINDRICAL_SURFACE('',#252,1.70815);
#213=CYLINDRICAL_SURFACE('',#256,1.70815);
#214=CYLINDRICAL_SURFACE('',#260,12.7);
#215=ADVANCED_FACE('',(#31),#210,.F.);
#216=ADVANCED_FACE('',(#32),#21,.F.);
#217=ADVANCED_FACE('',(#33),#211,.F.);
#218=ADVANCED_FACE('',(#34),#22,.F.);
#219=ADVANCED_FACE('',(#35),#212,.F.);
#220=ADVANCED_FACE('',(#36),#23,.F.);
#221=ADVANCED_FACE('',(#37),#213,.F.);
#222=ADVANCED_FACE('',(#38),#24,.F.);
#223=ADVANCED_FACE('',(#39),#214,.F.);
#224=ADVANCED_FACE('',(#40),#25,.T.);
#225=ADVANCED_FACE('',(#41,#15),#26,.T.);
#226=ADVANCED_FACE('',(#42,#16,#17,#18,#19),#27,.F.);
#227=ADVANCED_FACE('',(#43,#20),#28,.F.);
#228=ADVANCED_FACE('',(#44),#29,.F.);
#229=ADVANCED_FACE('',(#45),#30,.F.);
#230=CLOSED_SHELL('',(#215,#216,#217,#218,#219,#220,#221,#222,#223,#224,
#225,#226,#227,#228,#229));
#231=DERIVED_UNIT_ELEMENT(#233,1.);
#232=DERIVED_UNIT_ELEMENT(#404,-3.);
#233=(
MASS_UNIT()
NAMED_UNIT(*)
SI_UNIT(.KILO.,.GRAM.)
);
#234=DERIVED_UNIT((#231,#232));
#235=MEASURE_REPRESENTATION_ITEM('density measure',
POSITIVE_RATIO_MEASURE(7850.),#234);
#236=PROPERTY_DEFINITION_REPRESENTATION(#241,#238);
#237=PROPERTY_DEFINITION_REPRESENTATION(#242,#239);
#238=REPRESENTATION('material name',(#240),#401);
#239=REPRESENTATION('density',(#235),#401);
#240=DESCRIPTIVE_REPRESENTATION_ITEM('Steel','Steel');
#241=PROPERTY_DEFINITION('material property','material name',#411);
#242=PROPERTY_DEFINITION('material property','density of part',#411);
#243=AXIS2_PLACEMENT_3D('',#338,#269,#270);
#244=AXIS2_PLACEMENT_3D('',#339,#271,#272);
#245=AXIS2_PLACEMENT_3D('',#341,#273,#274);
#246=AXIS2_PLACEMENT_3D('',#344,#276,#277);
#247=AXIS2_PLACEMENT_3D('',#345,#278,#279);
#248=AXIS2_PLACEMENT_3D('',#346,#280,#281);
#249=AXIS2_PLACEMENT_3D('',#348,#282,#283);
#250=AXIS2_PLACEMENT_3D('',#351,#285,#286);
#251=AXIS2_PLACEMENT_3D('',#352,#287,#288);
#252=AXIS2_PLACEMENT_3D('',#353,#289,#290);
#253=AXIS2_PLACEMENT_3D('',#355,#291,#292);
#254=AXIS2_PLACEMENT_3D('',#358,#294,#295);
#255=AXIS2_PLACEMENT_3D('',#359,#296,#297);
#256=AXIS2_PLACEMENT_3D('',#360,#298,#299);
#257=AXIS2_PLACEMENT_3D('',#362,#300,#301);
#258=AXIS2_PLACEMENT_3D('',#365,#303,#304);
#259=AXIS2_PLACEMENT_3D('',#366,#305,#306);
#260=AXIS2_PLACEMENT_3D('',#367,#307,#308);
#261=AXIS2_PLACEMENT_3D('',#369,#309,#310);
#262=AXIS2_PLACEMENT_3D('',#372,#312,#313);
#263=AXIS2_PLACEMENT_3D('',#373,#314,#315);
#264=AXIS2_PLACEMENT_3D('',#382,#320,#321);
#265=AXIS2_PLACEMENT_3D('',#388,#325,#326);
#266=AXIS2_PLACEMENT_3D('',#394,#330,#331);
#267=AXIS2_PLACEMENT_3D('',#397,#334,#335);
#268=AXIS2_PLACEMENT_3D('',#398,#336,#337);
#269=DIRECTION('axis',(0.,0.,1.));
#270=DIRECTION('refdir',(1.,0.,0.));
#271=DIRECTION('center_axis',(0.,0.,1.));
#272=DIRECTION('ref_axis',(-1.,0.,0.));
#273=DIRECTION('center_axis',(0.,0.,-1.));
#274=DIRECTION('ref_axis',(-1.,0.,0.));
#275=DIRECTION('',(0.,0.,1.));
#276=DIRECTION('center_axis',(0.,0.,-1.));
#277=DIRECTION('ref_axis',(-1.,0.,0.));
#278=DIRECTION('center_axis',(0.,0.,1.));
#279=DIRECTION('ref_axis',(-1.,0.,0.));
#280=DIRECTION('center_axis',(0.,0.,1.));
#281=DIRECTION('ref_axis',(-1.,0.,0.));
#282=DIRECTION('center_axis',(0.,0.,-1.));
#283=DIRECTION('ref_axis',(-1.,0.,0.));
#284=DIRECTION('',(0.,0.,1.));
#285=DIRECTION('center_axis',(0.,0.,-1.));
#286=DIRECTION('ref_axis',(-1.,0.,0.));
#287=DIRECTION('center_axis',(0.,0.,1.));
#288=DIRECTION('ref_axis',(-1.,0.,0.));
#289=DIRECTION('center_axis',(0.,0.,1.));
#290=DIRECTION('ref_axis',(-1.,0.,0.));
#291=DIRECTION('center_axis',(0.,0.,-1.));
#292=DIRECTION('ref_axis',(-1.,0.,0.));
#293=DIRECTION('',(0.,0.,1.));
#294=DIRECTION('center_axis',(0.,0.,-1.));
#295=DIRECTION('ref_axis',(-1.,0.,0.));
#296=DIRECTION('center_axis',(0.,0.,1.));
#297=DIRECTION('ref_axis',(-1.,0.,0.));
#298=DIRECTION('center_axis',(0.,0.,1.));
#299=DIRECTION('ref_axis',(-1.,0.,0.));
#300=DIRECTION('center_axis',(0.,0.,-1.));
#301=DIRECTION('ref_axis',(-1.,0.,0.));
#302=DIRECTION('',(0.,0.,1.));
#303=DIRECTION('center_axis',(0.,0.,-1.));
#304=DIRECTION('ref_axis',(-1.,0.,0.));
#305=DIRECTION('center_axis',(0.,0.,1.));
#306=DIRECTION('ref_axis',(-1.,0.,0.));
#307=DIRECTION('center_axis',(1.,0.,0.));
#308=DIRECTION('ref_axis',(0.,-1.,0.));
#309=DIRECTION('center_axis',(1.,0.,0.));
#310=DIRECTION('ref_axis',(0.,-1.,0.));
#311=DIRECTION('',(1.,0.,0.));
#312=DIRECTION('center_axis',(-1.,0.,0.));
#313=DIRECTION('ref_axis',(0.,-1.,0.));
#314=DIRECTION('center_axis',(0.,0.,1.));
#315=DIRECTION('ref_axis',(1.,0.,0.));
#316=DIRECTION('',(1.,0.,0.));
#317=DIRECTION('',(0.,1.,0.));
#318=DIRECTION('',(-1.,0.,0.));
#319=DIRECTION('',(0.,-1.,0.));
#320=DIRECTION('center_axis',(1.,0.,0.));
#321=DIRECTION('ref_axis',(0.,0.,-1.));
#322=DIRECTION('',(0.,0.,1.));
#323=DIRECTION('',(0.,1.,0.));
#324=DIRECTION('',(0.,0.,1.));
#325=DIRECTION('center_axis',(0.,0.,1.));
#326=DIRECTION('ref_axis',(0.,-1.,0.));
#327=DIRECTION('',(-1.,0.,0.));
#328=DIRECTION('',(0.,1.,0.));
#329=DIRECTION('',(1.,0.,0.));
#330=DIRECTION('center_axis',(1.,0.,0.));
#331=DIRECTION('ref_axis',(0.,0.,1.));
#332=DIRECTION('',(0.,0.,1.));
#333=DIRECTION('',(0.,0.,-1.));
#334=DIRECTION('center_axis',(0.,-1.,0.));
#335=DIRECTION('ref_axis',(0.,0.,-1.));
#336=DIRECTION('center_axis',(0.,1.,0.));
#337=DIRECTION('ref_axis',(0.,0.,1.));
#338=CARTESIAN_POINT('',(0.,0.,0.));
#339=CARTESIAN_POINT('Origin',(-68.66,-45.8,-33.7056));
#340=CARTESIAN_POINT('',(-66.95185,-45.8,-39.7));
#341=CARTESIAN_POINT('Origin',(-68.66,-45.8,-39.7));
#342=CARTESIAN_POINT('',(-66.95185,-45.8,-27.7112));
#343=CARTESIAN_POINT('',(-66.95185,-45.8,-33.7056));
#344=CARTESIAN_POINT('Origin',(-68.66,-45.8,-27.7112));
#345=CARTESIAN_POINT('Origin',(0.,12.7,-27.7112));
#346=CARTESIAN_POINT('Origin',(-68.66,71.2,-33.7056));
#347=CARTESIAN_POINT('',(-66.95185,71.2,-39.7));
#348=CARTESIAN_POINT('Origin',(-68.66,71.2,-39.7));
#349=CARTESIAN_POINT('',(-66.95185,71.2,-27.7112));
#350=CARTESIAN_POINT('',(-66.95185,71.2,-33.7056));
#351=CARTESIAN_POINT('Origin',(-68.66,71.2,-27.7112));
#352=CARTESIAN_POINT('Origin',(0.,12.7,-27.7112));
#353=CARTESIAN_POINT('Origin',(68.66,71.2,-33.7056));
#354=CARTESIAN_POINT('',(70.36815,71.2,-39.7));
#355=CARTESIAN_POINT('Origin',(68.66,71.2,-39.7));
#356=CARTESIAN_POINT('',(70.36815,71.2,-27.7112));
#357=CARTESIAN_POINT('',(70.36815,71.2,-33.7056));
#358=CARTESIAN_POINT('Origin',(68.66,71.2,-27.7112));
#359=CARTESIAN_POINT('Origin',(0.,12.7,-27.7112));
#360=CARTESIAN_POINT('Origin',(68.66,-45.8,-33.7056));
#361=CARTESIAN_POINT('',(70.36815,-45.8,-39.7));
#362=CARTESIAN_POINT('Origin',(68.66,-45.8,-39.7));
#363=CARTESIAN_POINT('',(70.36815,-45.8,-27.7112));
#364=CARTESIAN_POINT('',(70.36815,-45.8,-33.7056));
#365=CARTESIAN_POINT('Origin',(68.66,-45.8,-27.7112));
#366=CARTESIAN_POINT('Origin',(0.,12.7,-27.7112));
#367=CARTESIAN_POINT('Origin',(53.34,0.,-1.6));
#368=CARTESIAN_POINT('',(-73.66,12.7,-1.6));
#369=CARTESIAN_POINT('Origin',(-73.66,0.,-1.6));
#370=CARTESIAN_POINT('',(73.66,12.7,-1.6));
#371=CARTESIAN_POINT('',(53.34,12.7,-1.6));
#372=CARTESIAN_POINT('Origin',(73.66,0.,-1.6));
#373=CARTESIAN_POINT('Origin',(-10.16,12.7,55.55));
#374=CARTESIAN_POINT('',(-73.66,-50.8,55.55));
#375=CARTESIAN_POINT('',(73.66,-50.8,55.55));
#376=CARTESIAN_POINT('',(-10.16,-50.8,55.55));
#377=CARTESIAN_POINT('',(73.66,76.2,55.55));
#378=CARTESIAN_POINT('',(73.66,12.7,55.55));
#379=CARTESIAN_POINT('',(-73.66,76.2,55.55));
#380=CARTESIAN_POINT('',(-10.16,76.2,55.55));
#381=CARTESIAN_POINT('',(-73.66,12.7,55.55));
#382=CARTESIAN_POINT('Origin',(73.66,12.7,-1.6));
#383=CARTESIAN_POINT('',(73.66,-50.8,-39.7));
#384=CARTESIAN_POINT('',(73.66,-50.8,36.5));
#385=CARTESIAN_POINT('',(73.66,76.2,-39.7));
#386=CARTESIAN_POINT('',(73.66,12.7,-39.7));
#387=CARTESIAN_POINT('',(73.66,76.2,-1.6));
#388=CARTESIAN_POINT('Origin',(-10.16,12.7,-39.7));
#389=CARTESIAN_POINT('',(-73.66,-50.8,-39.7));
#390=CARTESIAN_POINT('',(-10.16,-50.8,-39.7));
#391=CARTESIAN_POINT('',(-73.66,76.2,-39.7));
#392=CARTESIAN_POINT('',(-73.66,12.7,-39.7));
#393=CARTESIAN_POINT('',(53.34,76.2,-39.7));
#394=CARTESIAN_POINT('Origin',(-73.66,12.7,-1.6));
#395=CARTESIAN_POINT('',(-73.66,76.2,36.5));
#396=CARTESIAN_POINT('',(-73.66,-50.8,-1.6));
#397=CARTESIAN_POINT('Origin',(-10.16,76.2,-1.6));
#398=CARTESIAN_POINT('Origin',(-10.16,-50.8,-1.6));
#399=UNCERTAINTY_MEASURE_WITH_UNIT(LENGTH_MEASURE(0.01),#403,
'DISTANCE_ACCURACY_VALUE',
'Maximum model space distance between geometric entities at asserted c
onnectivities');
#400=UNCERTAINTY_MEASURE_WITH_UNIT(LENGTH_MEASURE(0.01),#403,
'DISTANCE_ACCURACY_VALUE',
'Maximum model space distance between geometric entities at asserted c
onnectivities');
#401=(
GEOMETRIC_REPRESENTATION_CONTEXT(3)
GLOBAL_UNCERTAINTY_ASSIGNED_CONTEXT((#399))
GLOBAL_UNIT_ASSIGNED_CONTEXT((#403,#405,#406))
REPRESENTATION_CONTEXT('','3D')
);
#402=(
GEOMETRIC_REPRESENTATION_CONTEXT(3)
GLOBAL_UNCERTAINTY_ASSIGNED_CONTEXT((#400))
GLOBAL_UNIT_ASSIGNED_CONTEXT((#403,#405,#406))
REPRESENTATION_CONTEXT('','3D')
);
#403=(
LENGTH_UNIT()
NAMED_UNIT(*)
SI_UNIT(.MILLI.,.METRE.)
);
#404=(
LENGTH_UNIT()
NAMED_UNIT(*)
SI_UNIT($,.METRE.)
);
#405=(
NAMED_UNIT(*)
PLANE_ANGLE_UNIT()
SI_UNIT($,.RADIAN.)
);
#406=(
NAMED_UNIT(*)
SI_UNIT($,.STERADIAN.)
SOLID_ANGLE_UNIT()
);
#407=SHAPE_DEFINITION_REPRESENTATION(#408,#409);
#408=PRODUCT_DEFINITION_SHAPE('',$,#411);
#409=SHAPE_REPRESENTATION('',(#243),#401);
#410=PRODUCT_DEFINITION_CONTEXT('part definition',#415,'design');
#411=PRODUCT_DEFINITION('2026-08-19-23-59-05-858','Etalonbox',#412,#410);
#412=PRODUCT_DEFINITION_FORMATION('',$,#417);
#413=PRODUCT_RELATED_PRODUCT_CATEGORY('Etalonbox','Etalonbox',(#417));
#414=APPLICATION_PROTOCOL_DEFINITION('international standard',
'automotive_design',2009,#415);
#415=APPLICATION_CONTEXT(
'Core Data for Automotive Mechanical Design Process');
#416=PRODUCT_CONTEXT('part definition',#415,'mechanical');
#417=PRODUCT('2026-08-19-23-59-05-858','Etalonbox',$,(#416));
#418=PRESENTATION_STYLE_ASSIGNMENT((#419));
#419=SURFACE_STYLE_USAGE(.BOTH.,#420);
#420=SURFACE_SIDE_STYLE('',(#421));
#421=SURFACE_STYLE_FILL_AREA(#422);
#422=FILL_AREA_STYLE('Steel - Satin',(#423));
#423=FILL_AREA_STYLE_COLOUR('Steel - Satin',#424);
#424=COLOUR_RGB('Steel - Satin',0.627450980392157,0.627450980392157,0.627450980392157);
ENDSEC;
END-ISO-10303-21;
