ISO-10303-21;
HEADER;
/* Generated by software containing ST-Developer
 * from STEP Tools, Inc. (www.steptools.com) 
 */

FILE_DESCRIPTION(
/* description */ (''),
/* implementation_level */ '2;1');

FILE_NAME(
/* name */ 'Fiber_Clamp_3_bottom.step',
/* time_stamp */ '2026-08-29T18:42:32-05:00',
/* author */ (''),
/* organization */ (''),
/* preprocessor_version */ 'ST-DEVELOPER v20.1',
/* originating_system */ 'Autodesk Translation Framework v15.8.0.0',
/* authorisation */ '');

FILE_SCHEMA (('AUTOMOTIVE_DESIGN { 1 0 10303 214 3 1 1 }'));
ENDSEC;

DATA;
#10=MECHANICAL_DESIGN_GEOMETRIC_PRESENTATION_REPRESENTATION('',(#13),#497);
#11=SHAPE_REPRESENTATION_RELATIONSHIP('SRR','None',#504,#12);
#12=ADVANCED_BREP_SHAPE_REPRESENTATION('',(#14),#496);
#13=STYLED_ITEM('',(#513),#14);
#14=MANIFOLD_SOLID_BREP('Body1',#289);
#15=FACE_BOUND('',#53,.T.);
#16=FACE_BOUND('',#54,.T.);
#17=FACE_BOUND('',#56,.T.);
#18=FACE_BOUND('',#57,.T.);
#19=FACE_BOUND('',#62,.T.);
#20=FACE_BOUND('',#67,.T.);
#21=FACE_BOUND('',#68,.T.);
#22=FACE_BOUND('',#69,.T.);
#23=FACE_BOUND('',#70,.T.);
#24=FACE_BOUND('',#73,.T.);
#25=PLANE('',#309);
#26=PLANE('',#311);
#27=PLANE('',#316);
#28=PLANE('',#317);
#29=PLANE('',#318);
#30=PLANE('',#327);
#31=PLANE('',#328);
#32=PLANE('',#329);
#33=PLANE('',#331);
#34=FACE_OUTER_BOUND('',#50,.T.);
#35=FACE_OUTER_BOUND('',#51,.T.);
#36=FACE_OUTER_BOUND('',#52,.T.);
#37=FACE_OUTER_BOUND('',#55,.T.);
#38=FACE_OUTER_BOUND('',#58,.T.);
#39=FACE_OUTER_BOUND('',#59,.T.);
#40=FACE_OUTER_BOUND('',#60,.T.);
#41=FACE_OUTER_BOUND('',#61,.T.);
#42=FACE_OUTER_BOUND('',#63,.T.);
#43=FACE_OUTER_BOUND('',#64,.T.);
#44=FACE_OUTER_BOUND('',#65,.T.);
#45=FACE_OUTER_BOUND('',#66,.T.);
#46=FACE_OUTER_BOUND('',#71,.T.);
#47=FACE_OUTER_BOUND('',#72,.T.);
#48=FACE_OUTER_BOUND('',#74,.T.);
#49=FACE_OUTER_BOUND('',#75,.T.);
#50=EDGE_LOOP('',(#194,#195,#196,#197));
#51=EDGE_LOOP('',(#198,#199,#200,#201));
#52=EDGE_LOOP('',(#202,#203,#204,#205));
#53=EDGE_LOOP('',(#206));
#54=EDGE_LOOP('',(#207));
#55=EDGE_LOOP('',(#208,#209,#210,#211));
#56=EDGE_LOOP('',(#212));
#57=EDGE_LOOP('',(#213));
#58=EDGE_LOOP('',(#214,#215,#216,#217));
#59=EDGE_LOOP('',(#218,#219,#220,#221,#222,#223));
#60=EDGE_LOOP('',(#224,#225,#226,#227,#228,#229));
#61=EDGE_LOOP('',(#230));
#62=EDGE_LOOP('',(#231));
#63=EDGE_LOOP('',(#232,#233,#234,#235));
#64=EDGE_LOOP('',(#236,#237,#238,#239));
#65=EDGE_LOOP('',(#240,#241,#242,#243));
#66=EDGE_LOOP('',(#244,#245,#246,#247));
#67=EDGE_LOOP('',(#248));
#68=EDGE_LOOP('',(#249));
#69=EDGE_LOOP('',(#250));
#70=EDGE_LOOP('',(#251));
#71=EDGE_LOOP('',(#252,#253,#254,#255));
#72=EDGE_LOOP('',(#256));
#73=EDGE_LOOP('',(#257));
#74=EDGE_LOOP('',(#258,#259,#260,#261));
#75=EDGE_LOOP('',(#262,#263,#264,#265));
#76=LINE('',#422,#98);
#77=LINE('',#428,#99);
#78=LINE('',#433,#100);
#79=LINE('',#435,#101);
#80=LINE('',#437,#102);
#81=LINE('',#438,#103);
#82=LINE('',#444,#104);
#83=LINE('',#446,#105);
#84=LINE('',#448,#106);
#85=LINE('',#449,#107);
#86=LINE('',#457,#108);
#87=LINE('',#459,#109);
#88=LINE('',#460,#110);
#89=LINE('',#463,#111);
#90=LINE('',#465,#112);
#91=LINE('',#466,#113);
#92=LINE('',#474,#114);
#93=LINE('',#477,#115);
#94=LINE('',#482,#116);
#95=LINE('',#485,#117);
#96=LINE('',#486,#118);
#97=LINE('',#493,#119);
#98=VECTOR('',#339,1.708);
#99=VECTOR('',#346,1.708);
#100=VECTOR('',#351,10.);
#101=VECTOR('',#352,10.);
#102=VECTOR('',#353,10.);
#103=VECTOR('',#354,10.);
#104=VECTOR('',#359,10.);
#105=VECTOR('',#360,10.);
#106=VECTOR('',#361,10.);
#107=VECTOR('',#362,10.);
#108=VECTOR('',#373,10.);
#109=VECTOR('',#374,10.);
#110=VECTOR('',#375,10.);
#111=VECTOR('',#378,10.);
#112=VECTOR('',#379,10.);
#113=VECTOR('',#380,10.);
#114=VECTOR('',#389,2.1845);
#115=VECTOR('',#394,3.5);
#116=VECTOR('',#399,2.1845);
#117=VECTOR('',#404,10.);
#118=VECTOR('',#405,10.);
#119=VECTOR('',#416,3.5);
#120=CIRCLE('',#304,1.70815);
#121=CIRCLE('',#305,1.70815);
#122=CIRCLE('',#307,1.70815);
#123=CIRCLE('',#308,1.70815);
#124=CIRCLE('',#310,3.5);
#125=CIRCLE('',#312,3.5);
#126=CIRCLE('',#314,1.5);
#127=CIRCLE('',#315,1.5);
#128=CIRCLE('',#319,3.5);
#129=CIRCLE('',#320,2.1845);
#130=CIRCLE('',#322,2.1845);
#131=CIRCLE('',#325,2.1845);
#132=CIRCLE('',#326,2.1845);
#133=CIRCLE('',#330,3.5);
#134=VERTEX_POINT('',#419);
#135=VERTEX_POINT('',#421);
#136=VERTEX_POINT('',#425);
#137=VERTEX_POINT('',#427);
#138=VERTEX_POINT('',#431);
#139=VERTEX_POINT('',#432);
#140=VERTEX_POINT('',#434);
#141=VERTEX_POINT('',#436);
#142=VERTEX_POINT('',#439);
#143=VERTEX_POINT('',#442);
#144=VERTEX_POINT('',#443);
#145=VERTEX_POINT('',#445);
#146=VERTEX_POINT('',#447);
#147=VERTEX_POINT('',#450);
#148=VERTEX_POINT('',#456);
#149=VERTEX_POINT('',#458);
#150=VERTEX_POINT('',#462);
#151=VERTEX_POINT('',#464);
#152=VERTEX_POINT('',#468);
#153=VERTEX_POINT('',#470);
#154=VERTEX_POINT('',#473);
#155=VERTEX_POINT('',#479);
#156=VERTEX_POINT('',#481);
#157=VERTEX_POINT('',#489);
#158=EDGE_CURVE('',#134,#134,#120,.F.);
#159=EDGE_CURVE('',#134,#135,#76,.T.);
#160=EDGE_CURVE('',#135,#135,#121,.F.);
#161=EDGE_CURVE('',#136,#136,#122,.F.);
#162=EDGE_CURVE('',#136,#137,#77,.T.);
#163=EDGE_CURVE('',#137,#137,#123,.F.);
#164=EDGE_CURVE('',#138,#139,#78,.T.);
#165=EDGE_CURVE('',#138,#140,#79,.T.);
#166=EDGE_CURVE('',#140,#141,#80,.T.);
#167=EDGE_CURVE('',#141,#139,#81,.T.);
#168=EDGE_CURVE('',#142,#142,#124,.T.);
#169=EDGE_CURVE('',#143,#144,#82,.T.);
#170=EDGE_CURVE('',#143,#145,#83,.T.);
#171=EDGE_CURVE('',#145,#146,#84,.T.);
#172=EDGE_CURVE('',#146,#144,#85,.T.);
#173=EDGE_CURVE('',#147,#147,#125,.T.);
#174=EDGE_CURVE('',#138,#144,#126,.T.);
#175=EDGE_CURVE('',#143,#139,#127,.T.);
#176=EDGE_CURVE('',#148,#141,#86,.T.);
#177=EDGE_CURVE('',#149,#148,#87,.T.);
#178=EDGE_CURVE('',#149,#145,#88,.T.);
#179=EDGE_CURVE('',#150,#146,#89,.T.);
#180=EDGE_CURVE('',#151,#150,#90,.T.);
#181=EDGE_CURVE('',#151,#140,#91,.T.);
#182=EDGE_CURVE('',#152,#152,#128,.T.);
#183=EDGE_CURVE('',#153,#153,#129,.T.);
#184=EDGE_CURVE('',#153,#154,#92,.T.);
#185=EDGE_CURVE('',#154,#154,#130,.T.);
#186=EDGE_CURVE('',#142,#152,#93,.T.);
#187=EDGE_CURVE('',#155,#155,#131,.T.);
#188=EDGE_CURVE('',#155,#156,#94,.T.);
#189=EDGE_CURVE('',#156,#156,#132,.T.);
#190=EDGE_CURVE('',#149,#150,#95,.T.);
#191=EDGE_CURVE('',#151,#148,#96,.T.);
#192=EDGE_CURVE('',#157,#157,#133,.T.);
#193=EDGE_CURVE('',#147,#157,#97,.T.);
#194=ORIENTED_EDGE('',*,*,#158,.F.);
#195=ORIENTED_EDGE('',*,*,#159,.T.);
#196=ORIENTED_EDGE('',*,*,#160,.F.);
#197=ORIENTED_EDGE('',*,*,#159,.F.);
#198=ORIENTED_EDGE('',*,*,#161,.F.);
#199=ORIENTED_EDGE('',*,*,#162,.T.);
#200=ORIENTED_EDGE('',*,*,#163,.F.);
#201=ORIENTED_EDGE('',*,*,#162,.F.);
#202=ORIENTED_EDGE('',*,*,#164,.F.);
#203=ORIENTED_EDGE('',*,*,#165,.T.);
#204=ORIENTED_EDGE('',*,*,#166,.T.);
#205=ORIENTED_EDGE('',*,*,#167,.T.);
#206=ORIENTED_EDGE('',*,*,#158,.T.);
#207=ORIENTED_EDGE('',*,*,#168,.T.);
#208=ORIENTED_EDGE('',*,*,#169,.F.);
#209=ORIENTED_EDGE('',*,*,#170,.T.);
#210=ORIENTED_EDGE('',*,*,#171,.T.);
#211=ORIENTED_EDGE('',*,*,#172,.T.);
#212=ORIENTED_EDGE('',*,*,#161,.T.);
#213=ORIENTED_EDGE('',*,*,#173,.T.);
#214=ORIENTED_EDGE('',*,*,#169,.T.);
#215=ORIENTED_EDGE('',*,*,#174,.F.);
#216=ORIENTED_EDGE('',*,*,#164,.T.);
#217=ORIENTED_EDGE('',*,*,#175,.F.);
#218=ORIENTED_EDGE('',*,*,#175,.T.);
#219=ORIENTED_EDGE('',*,*,#167,.F.);
#220=ORIENTED_EDGE('',*,*,#176,.F.);
#221=ORIENTED_EDGE('',*,*,#177,.F.);
#222=ORIENTED_EDGE('',*,*,#178,.T.);
#223=ORIENTED_EDGE('',*,*,#170,.F.);
#224=ORIENTED_EDGE('',*,*,#174,.T.);
#225=ORIENTED_EDGE('',*,*,#172,.F.);
#226=ORIENTED_EDGE('',*,*,#179,.F.);
#227=ORIENTED_EDGE('',*,*,#180,.F.);
#228=ORIENTED_EDGE('',*,*,#181,.T.);
#229=ORIENTED_EDGE('',*,*,#165,.F.);
#230=ORIENTED_EDGE('',*,*,#182,.F.);
#231=ORIENTED_EDGE('',*,*,#183,.T.);
#232=ORIENTED_EDGE('',*,*,#183,.F.);
#233=ORIENTED_EDGE('',*,*,#184,.T.);
#234=ORIENTED_EDGE('',*,*,#185,.F.);
#235=ORIENTED_EDGE('',*,*,#184,.F.);
#236=ORIENTED_EDGE('',*,*,#168,.F.);
#237=ORIENTED_EDGE('',*,*,#186,.T.);
#238=ORIENTED_EDGE('',*,*,#182,.T.);
#239=ORIENTED_EDGE('',*,*,#186,.F.);
#240=ORIENTED_EDGE('',*,*,#187,.F.);
#241=ORIENTED_EDGE('',*,*,#188,.T.);
#242=ORIENTED_EDGE('',*,*,#189,.F.);
#243=ORIENTED_EDGE('',*,*,#188,.F.);
#244=ORIENTED_EDGE('',*,*,#180,.T.);
#245=ORIENTED_EDGE('',*,*,#190,.F.);
#246=ORIENTED_EDGE('',*,*,#177,.T.);
#247=ORIENTED_EDGE('',*,*,#191,.F.);
#248=ORIENTED_EDGE('',*,*,#160,.T.);
#249=ORIENTED_EDGE('',*,*,#163,.T.);
#250=ORIENTED_EDGE('',*,*,#185,.T.);
#251=ORIENTED_EDGE('',*,*,#189,.T.);
#252=ORIENTED_EDGE('',*,*,#191,.T.);
#253=ORIENTED_EDGE('',*,*,#176,.T.);
#254=ORIENTED_EDGE('',*,*,#166,.F.);
#255=ORIENTED_EDGE('',*,*,#181,.F.);
#256=ORIENTED_EDGE('',*,*,#192,.F.);
#257=ORIENTED_EDGE('',*,*,#187,.T.);
#258=ORIENTED_EDGE('',*,*,#190,.T.);
#259=ORIENTED_EDGE('',*,*,#179,.T.);
#260=ORIENTED_EDGE('',*,*,#171,.F.);
#261=ORIENTED_EDGE('',*,*,#178,.F.);
#262=ORIENTED_EDGE('',*,*,#173,.F.);
#263=ORIENTED_EDGE('',*,*,#193,.T.);
#264=ORIENTED_EDGE('',*,*,#192,.T.);
#265=ORIENTED_EDGE('',*,*,#193,.F.);
#266=CYLINDRICAL_SURFACE('',#303,1.70815);
#267=CYLINDRICAL_SURFACE('',#306,1.70815);
#268=CYLINDRICAL_SURFACE('',#313,1.5);
#269=CYLINDRICAL_SURFACE('',#321,2.1845);
#270=CYLINDRICAL_SURFACE('',#323,3.5);
#271=CYLINDRICAL_SURFACE('',#324,2.1845);
#272=CYLINDRICAL_SURFACE('',#332,3.5);
#273=ADVANCED_FACE('',(#34),#266,.F.);
#274=ADVANCED_FACE('',(#35),#267,.F.);
#275=ADVANCED_FACE('',(#36,#15,#16),#25,.F.);
#276=ADVANCED_FACE('',(#37,#17,#18),#26,.F.);
#277=ADVANCED_FACE('',(#38),#268,.F.);
#278=ADVANCED_FACE('',(#39),#27,.F.);
#279=ADVANCED_FACE('',(#40),#28,.F.);
#280=ADVANCED_FACE('',(#41,#19),#29,.F.);
#281=ADVANCED_FACE('',(#42),#269,.F.);
#282=ADVANCED_FACE('',(#43),#270,.F.);
#283=ADVANCED_FACE('',(#44),#271,.F.);
#284=ADVANCED_FACE('',(#45,#20,#21,#22,#23),#30,.F.);
#285=ADVANCED_FACE('',(#46),#31,.T.);
#286=ADVANCED_FACE('',(#47,#24),#32,.F.);
#287=ADVANCED_FACE('',(#48),#33,.T.);
#288=ADVANCED_FACE('',(#49),#272,.F.);
#289=CLOSED_SHELL('',(#273,#274,#275,#276,#277,#278,#279,#280,#281,#282,
#283,#284,#285,#286,#287,#288));
#290=DERIVED_UNIT_ELEMENT(#292,1.);
#291=DERIVED_UNIT_ELEMENT(#499,-3.);
#292=(
MASS_UNIT()
NAMED_UNIT(*)
SI_UNIT(.KILO.,.GRAM.)
);
#293=DERIVED_UNIT((#290,#291));
#294=MEASURE_REPRESENTATION_ITEM('density measure',
POSITIVE_RATIO_MEASURE(7850.),#293);
#295=PROPERTY_DEFINITION_REPRESENTATION(#300,#297);
#296=PROPERTY_DEFINITION_REPRESENTATION(#301,#298);
#297=REPRESENTATION('material name',(#299),#496);
#298=REPRESENTATION('density',(#294),#496);
#299=DESCRIPTIVE_REPRESENTATION_ITEM('Steel','Steel');
#300=PROPERTY_DEFINITION('material property','material name',#506);
#301=PROPERTY_DEFINITION('material property','density of part',#506);
#302=AXIS2_PLACEMENT_3D('',#417,#333,#334);
#303=AXIS2_PLACEMENT_3D('',#418,#335,#336);
#304=AXIS2_PLACEMENT_3D('',#420,#337,#338);
#305=AXIS2_PLACEMENT_3D('',#423,#340,#341);
#306=AXIS2_PLACEMENT_3D('',#424,#342,#343);
#307=AXIS2_PLACEMENT_3D('',#426,#344,#345);
#308=AXIS2_PLACEMENT_3D('',#429,#347,#348);
#309=AXIS2_PLACEMENT_3D('',#430,#349,#350);
#310=AXIS2_PLACEMENT_3D('',#440,#355,#356);
#311=AXIS2_PLACEMENT_3D('',#441,#357,#358);
#312=AXIS2_PLACEMENT_3D('',#451,#363,#364);
#313=AXIS2_PLACEMENT_3D('',#452,#365,#366);
#314=AXIS2_PLACEMENT_3D('',#453,#367,#368);
#315=AXIS2_PLACEMENT_3D('',#454,#369,#370);
#316=AXIS2_PLACEMENT_3D('',#455,#371,#372);
#317=AXIS2_PLACEMENT_3D('',#461,#376,#377);
#318=AXIS2_PLACEMENT_3D('',#467,#381,#382);
#319=AXIS2_PLACEMENT_3D('',#469,#383,#384);
#320=AXIS2_PLACEMENT_3D('',#471,#385,#386);
#321=AXIS2_PLACEMENT_3D('',#472,#387,#388);
#322=AXIS2_PLACEMENT_3D('',#475,#390,#391);
#323=AXIS2_PLACEMENT_3D('',#476,#392,#393);
#324=AXIS2_PLACEMENT_3D('',#478,#395,#396);
#325=AXIS2_PLACEMENT_3D('',#480,#397,#398);
#326=AXIS2_PLACEMENT_3D('',#483,#400,#401);
#327=AXIS2_PLACEMENT_3D('',#484,#402,#403);
#328=AXIS2_PLACEMENT_3D('',#487,#406,#407);
#329=AXIS2_PLACEMENT_3D('',#488,#408,#409);
#330=AXIS2_PLACEMENT_3D('',#490,#410,#411);
#331=AXIS2_PLACEMENT_3D('',#491,#412,#413);
#332=AXIS2_PLACEMENT_3D('',#492,#414,#415);
#333=DIRECTION('axis',(0.,0.,1.));
#334=DIRECTION('refdir',(1.,0.,0.));
#335=DIRECTION('center_axis',(0.,0.,-1.));
#336=DIRECTION('ref_axis',(1.,0.,0.));
#337=DIRECTION('center_axis',(0.,0.,1.));
#338=DIRECTION('ref_axis',(1.,0.,0.));
#339=DIRECTION('',(0.,0.,-1.));
#340=DIRECTION('center_axis',(0.,0.,-1.));
#341=DIRECTION('ref_axis',(1.,0.,0.));
#342=DIRECTION('center_axis',(0.,0.,-1.));
#343=DIRECTION('ref_axis',(1.,0.,0.));
#344=DIRECTION('center_axis',(0.,0.,1.));
#345=DIRECTION('ref_axis',(1.,0.,0.));
#346=DIRECTION('',(0.,0.,-1.));
#347=DIRECTION('center_axis',(0.,0.,-1.));
#348=DIRECTION('ref_axis',(1.,0.,0.));
#349=DIRECTION('center_axis',(0.,0.,-1.));
#350=DIRECTION('ref_axis',(-1.,-5.46571335200077E-15,0.));
#351=DIRECTION('',(-5.46571335200077E-15,1.,0.));
#352=DIRECTION('',(1.,5.55111512312578E-15,0.));
#353=DIRECTION('',(-5.46571335200077E-15,1.,0.));
#354=DIRECTION('',(-1.,-5.48172618408671E-15,0.));
#355=DIRECTION('center_axis',(0.,0.,-1.));
#356=DIRECTION('ref_axis',(1.,0.,0.));
#357=DIRECTION('center_axis',(0.,0.,-1.));
#358=DIRECTION('ref_axis',(-1.,-5.46571335200077E-15,0.));
#359=DIRECTION('',(5.46571335200077E-15,-1.,0.));
#360=DIRECTION('',(-1.,-5.48172618408671E-15,0.));
#361=DIRECTION('',(5.46571335200077E-15,-1.,0.));
#362=DIRECTION('',(1.,5.55111512312578E-15,0.));
#363=DIRECTION('center_axis',(0.,0.,-1.));
#364=DIRECTION('ref_axis',(1.,0.,0.));
#365=DIRECTION('center_axis',(-5.46571335200077E-15,1.,0.));
#366=DIRECTION('ref_axis',(0.,0.,-1.));
#367=DIRECTION('center_axis',(-5.46571335200077E-15,1.,0.));
#368=DIRECTION('ref_axis',(0.,0.,-1.));
#369=DIRECTION('center_axis',(5.46571335200077E-15,-1.,0.));
#370=DIRECTION('ref_axis',(0.,0.,-1.));
#371=DIRECTION('center_axis',(5.46571335200077E-15,-1.,0.));
#372=DIRECTION('ref_axis',(-1.,-5.46571335200077E-15,0.));
#373=DIRECTION('',(0.,0.,1.));
#374=DIRECTION('',(1.,5.48172618408671E-15,0.));
#375=DIRECTION('',(0.,0.,1.));
#376=DIRECTION('center_axis',(-5.46571335200077E-15,1.,0.));
#377=DIRECTION('ref_axis',(1.,5.46571335200077E-15,0.));
#378=DIRECTION('',(0.,0.,1.));
#379=DIRECTION('',(-1.,-5.46571335200077E-15,0.));
#380=DIRECTION('',(0.,0.,1.));
#381=DIRECTION('center_axis',(0.,0.,-1.));
#382=DIRECTION('ref_axis',(1.,0.,0.));
#383=DIRECTION('center_axis',(0.,0.,-1.));
#384=DIRECTION('ref_axis',(1.,0.,0.));
#385=DIRECTION('center_axis',(0.,0.,-1.));
#386=DIRECTION('ref_axis',(1.,0.,0.));
#387=DIRECTION('center_axis',(0.,0.,-1.));
#388=DIRECTION('ref_axis',(1.,0.,0.));
#389=DIRECTION('',(0.,0.,-1.));
#390=DIRECTION('center_axis',(0.,0.,1.));
#391=DIRECTION('ref_axis',(1.,0.,0.));
#392=DIRECTION('center_axis',(0.,0.,-1.));
#393=DIRECTION('ref_axis',(1.,0.,0.));
#394=DIRECTION('',(0.,0.,-1.));
#395=DIRECTION('center_axis',(0.,0.,-1.));
#396=DIRECTION('ref_axis',(1.,0.,0.));
#397=DIRECTION('center_axis',(0.,0.,-1.));
#398=DIRECTION('ref_axis',(1.,0.,0.));
#399=DIRECTION('',(0.,0.,-1.));
#400=DIRECTION('center_axis',(0.,0.,1.));
#401=DIRECTION('ref_axis',(1.,0.,0.));
#402=DIRECTION('center_axis',(0.,0.,1.));
#403=DIRECTION('ref_axis',(1.,5.46571335200077E-15,0.));
#404=DIRECTION('',(5.46571335200077E-15,-1.,0.));
#405=DIRECTION('',(-5.46571335200077E-15,1.,0.));
#406=DIRECTION('center_axis',(1.,5.55111512312578E-15,0.));
#407=DIRECTION('ref_axis',(0.,0.,-1.));
#408=DIRECTION('center_axis',(0.,0.,-1.));
#409=DIRECTION('ref_axis',(1.,0.,0.));
#410=DIRECTION('center_axis',(0.,0.,-1.));
#411=DIRECTION('ref_axis',(1.,0.,0.));
#412=DIRECTION('center_axis',(-1.,-5.55111512312578E-15,0.));
#413=DIRECTION('ref_axis',(0.,0.,1.));
#414=DIRECTION('center_axis',(0.,0.,-1.));
#415=DIRECTION('ref_axis',(1.,0.,0.));
#416=DIRECTION('',(0.,0.,-1.));
#417=CARTESIAN_POINT('',(0.,0.,0.));
#418=CARTESIAN_POINT('Origin',(10.,-5.55111512312578E-16,2.3));
#419=CARTESIAN_POINT('',(8.29185,-7.64299555308933E-16,12.3));
#420=CARTESIAN_POINT('Origin',(10.,-5.55111512312578E-16,12.3));
#421=CARTESIAN_POINT('',(8.29185,-3.45923469316223E-16,0.));
#422=CARTESIAN_POINT('',(8.29185,-3.45923469316223E-16,2.3));
#423=CARTESIAN_POINT('Origin',(10.,-5.55111512312578E-16,0.));
#424=CARTESIAN_POINT('Origin',(-10.,-5.55111512312578E-16,2.3));
#425=CARTESIAN_POINT('',(-11.70815,-7.64299555308933E-16,12.3));
#426=CARTESIAN_POINT('Origin',(-10.,-5.55111512312578E-16,12.3));
#427=CARTESIAN_POINT('',(-11.70815,-3.45923469316223E-16,0.));
#428=CARTESIAN_POINT('',(-11.70815,-3.45923469316223E-16,2.3));
#429=CARTESIAN_POINT('Origin',(-10.,-5.55111512312578E-16,0.));
#430=CARTESIAN_POINT('Origin',(-1.,-5.55111512312578E-15,12.3));
#431=CARTESIAN_POINT('',(1.44568322948013,-6.49999999999999,12.3));
#432=CARTESIAN_POINT('',(1.44568322948006,6.50000000000001,12.3));
#433=CARTESIAN_POINT('',(1.44568322948009,7.90169013013295E-15,12.3));
#434=CARTESIAN_POINT('',(23.,-6.49999999999987,12.3));
#435=CARTESIAN_POINT('',(-21.,-6.50000000000011,12.3));
#436=CARTESIAN_POINT('',(23.,6.50000000000013,12.3));
#437=CARTESIAN_POINT('',(23.,1.25455201782643E-13,12.3));
#438=CARTESIAN_POINT('',(19.,6.5000000000001,12.3));
#439=CARTESIAN_POINT('',(14.5,4.28626379701574E-16,12.3));
#440=CARTESIAN_POINT('Origin',(18.,0.,12.3));
#441=CARTESIAN_POINT('Origin',(-1.,-5.55111512312578E-15,12.3));
#442=CARTESIAN_POINT('',(-1.44568322948014,6.49999999999999,12.3));
#443=CARTESIAN_POINT('',(-1.44568322948007,-6.50000000000001,12.3));
#444=CARTESIAN_POINT('',(-1.4456832294801,-7.90169013013295E-15,12.3));
#445=CARTESIAN_POINT('',(-23.,6.49999999999987,12.3));
#446=CARTESIAN_POINT('',(19.,6.5000000000001,12.3));
#447=CARTESIAN_POINT('',(-23.,-6.50000000000013,12.3));
#448=CARTESIAN_POINT('',(-23.,-1.25455201782643E-13,12.3));
#449=CARTESIAN_POINT('',(-21.,-6.50000000000011,12.3));
#450=CARTESIAN_POINT('',(-21.5,4.28626379701574E-16,12.3));
#451=CARTESIAN_POINT('Origin',(-18.,0.,12.3));
#452=CARTESIAN_POINT('Origin',(-4.44089209850063E-15,0.,12.7));
#453=CARTESIAN_POINT('Origin',(3.10862446895044E-14,-6.5,12.7));
#454=CARTESIAN_POINT('Origin',(-3.99680288865056E-14,6.5,12.7));
#455=CARTESIAN_POINT('Origin',(-1.00000000000004,6.49999999999999,5.));
#456=CARTESIAN_POINT('',(23.,6.50000000000013,0.));
#457=CARTESIAN_POINT('',(23.,6.50000000000013,5.));
#458=CARTESIAN_POINT('',(-23.,6.49999999999987,0.));
#459=CARTESIAN_POINT('',(19.,6.5000000000001,0.));
#460=CARTESIAN_POINT('',(-23.,6.49999999999987,11.4));
#461=CARTESIAN_POINT('Origin',(-0.999999999999965,-6.50000000000001,5.));
#462=CARTESIAN_POINT('',(-23.,-6.50000000000013,0.));
#463=CARTESIAN_POINT('',(-23.,-6.50000000000013,10.));
#464=CARTESIAN_POINT('',(23.,-6.49999999999987,0.));
#465=CARTESIAN_POINT('',(-0.999999999999965,-6.50000000000001,0.));
#466=CARTESIAN_POINT('',(23.,-6.49999999999987,11.4));
#467=CARTESIAN_POINT('Origin',(18.,0.,8.));
#468=CARTESIAN_POINT('',(14.5,4.28626379701574E-16,8.));
#469=CARTESIAN_POINT('Origin',(18.,0.,8.));
#470=CARTESIAN_POINT('',(15.8155,2.77555756156289E-16,8.));
#471=CARTESIAN_POINT('Origin',(18.,0.,8.));
#472=CARTESIAN_POINT('Origin',(18.,0.,5.7));
#473=CARTESIAN_POINT('',(15.8155,2.67524093273739E-16,0.));
#474=CARTESIAN_POINT('',(15.8155,2.67524093273739E-16,5.7));
#475=CARTESIAN_POINT('Origin',(18.,0.,0.));
#476=CARTESIAN_POINT('Origin',(18.,0.,9.7));
#477=CARTESIAN_POINT('',(14.5,4.28626379701574E-16,9.7));
#478=CARTESIAN_POINT('Origin',(-18.,0.,5.7));
#479=CARTESIAN_POINT('',(-20.1845,2.77555756156289E-16,8.));
#480=CARTESIAN_POINT('Origin',(-18.,0.,8.));
#481=CARTESIAN_POINT('',(-20.1845,2.67524093273739E-16,0.));
#482=CARTESIAN_POINT('',(-20.1845,2.67524093273739E-16,5.7));
#483=CARTESIAN_POINT('Origin',(-18.,0.,0.));
#484=CARTESIAN_POINT('Origin',(-1.,-5.55111512312578E-15,0.));
#485=CARTESIAN_POINT('',(-23.,-1.25455201782643E-13,0.));
#486=CARTESIAN_POINT('',(23.,1.25455201782643E-13,0.));
#487=CARTESIAN_POINT('Origin',(23.,1.25455201782643E-13,5.));
#488=CARTESIAN_POINT('Origin',(-18.,0.,8.));
#489=CARTESIAN_POINT('',(-21.5,4.28626379701574E-16,8.));
#490=CARTESIAN_POINT('Origin',(-18.,0.,8.));
#491=CARTESIAN_POINT('Origin',(-23.,-1.25455201782643E-13,5.));
#492=CARTESIAN_POINT('Origin',(-18.,0.,9.7));
#493=CARTESIAN_POINT('',(-21.5,4.28626379701574E-16,9.7));
#494=UNCERTAINTY_MEASURE_WITH_UNIT(LENGTH_MEASURE(0.01),#498,
'DISTANCE_ACCURACY_VALUE',
'Maximum model space distance between geometric entities at asserted c
onnectivities');
#495=UNCERTAINTY_MEASURE_WITH_UNIT(LENGTH_MEASURE(0.01),#498,
'DISTANCE_ACCURACY_VALUE',
'Maximum model space distance between geometric entities at asserted c
onnectivities');
#496=(
GEOMETRIC_REPRESENTATION_CONTEXT(3)
GLOBAL_UNCERTAINTY_ASSIGNED_CONTEXT((#494))
GLOBAL_UNIT_ASSIGNED_CONTEXT((#498,#500,#501))
REPRESENTATION_CONTEXT('','3D')
);
#497=(
GEOMETRIC_REPRESENTATION_CONTEXT(3)
GLOBAL_UNCERTAINTY_ASSIGNED_CONTEXT((#495))
GLOBAL_UNIT_ASSIGNED_CONTEXT((#498,#500,#501))
REPRESENTATION_CONTEXT('','3D')
);
#498=(
LENGTH_UNIT()
NAMED_UNIT(*)
SI_UNIT(.MILLI.,.METRE.)
);
#499=(
LENGTH_UNIT()
NAMED_UNIT(*)
SI_UNIT($,.METRE.)
);
#500=(
NAMED_UNIT(*)
PLANE_ANGLE_UNIT()
SI_UNIT($,.RADIAN.)
);
#501=(
NAMED_UNIT(*)
SI_UNIT($,.STERADIAN.)
SOLID_ANGLE_UNIT()
);
#502=SHAPE_DEFINITION_REPRESENTATION(#503,#504);
#503=PRODUCT_DEFINITION_SHAPE('',$,#506);
#504=SHAPE_REPRESENTATION('',(#302),#496);
#505=PRODUCT_DEFINITION_CONTEXT('part definition',#510,'design');
#506=PRODUCT_DEFINITION('2026-01-23-14-34-01-285',
'Fiber_Clamp_3_bottom',#507,#505);
#507=PRODUCT_DEFINITION_FORMATION('',$,#512);
#508=PRODUCT_RELATED_PRODUCT_CATEGORY('Fiber_Clamp_3_bottom',
'Fiber_Clamp_3_bottom',(#512));
#509=APPLICATION_PROTOCOL_DEFINITION('international standard',
'automotive_design',2009,#510);
#510=APPLICATION_CONTEXT(
'Core Data for Automotive Mechanical Design Process');
#511=PRODUCT_CONTEXT('part definition',#510,'mechanical');
#512=PRODUCT('2026-01-23-14-34-01-285','Fiber_Clamp_3_bottom',$,(#511));
#513=PRESENTATION_STYLE_ASSIGNMENT((#514));
#514=SURFACE_STYLE_USAGE(.BOTH.,#515);
#515=SURFACE_SIDE_STYLE('',(#516));
#516=SURFACE_STYLE_FILL_AREA(#517);
#517=FILL_AREA_STYLE('Steel - Satin',(#518));
#518=FILL_AREA_STYLE_COLOUR('Steel - Satin',#519);
#519=COLOUR_RGB('Steel - Satin',0.627450980392157,0.627450980392157,0.627450980392157);
ENDSEC;
END-ISO-10303-21;
