ISO-10303-21;
HEADER;
/* Generated by software containing ST-Developer
 * from STEP Tools, Inc. (www.steptools.com) 
 */

FILE_DESCRIPTION(
/* description */ (''),
/* implementation_level */ '2;1');

FILE_NAME(
/* name */ 'vertical-cube-10mm.step',
/* time_stamp */ '2026-08-20T19:56:38-05:00',
/* author */ (''),
/* organization */ (''),
/* preprocessor_version */ 'ST-DEVELOPER v20.1',
/* originating_system */ 'Autodesk Translation Framework v15.8.0.0',
/* authorisation */ '');

FILE_SCHEMA (('AUTOMOTIVE_DESIGN { 1 0 10303 214 3 1 1 }'));
ENDSEC;

DATA;
#10=MECHANICAL_DESIGN_GEOMETRIC_PRESENTATION_REPRESENTATION('',(#13),#638);
#11=SHAPE_REPRESENTATION_RELATIONSHIP('SRR','None',#645,#12);
#12=ADVANCED_BREP_SHAPE_REPRESENTATION('',(#14),#637);
#13=STYLED_ITEM('',(#654),#14);
#14=MANIFOLD_SOLID_BREP('Body1',#394);
#15=CIRCLE('',#423,1.70815);
#16=CIRCLE('',#424,1.70815);
#17=CYLINDRICAL_SURFACE('',#422,1.70815);
#18=FACE_BOUND('',#47,.T.);
#19=FACE_BOUND('',#48,.T.);
#20=FACE_BOUND('',#63,.T.);
#21=FACE_BOUND('',#67,.T.);
#22=FACE_OUTER_BOUND('',#43,.T.);
#23=FACE_OUTER_BOUND('',#44,.T.);
#24=FACE_OUTER_BOUND('',#45,.T.);
#25=FACE_OUTER_BOUND('',#46,.T.);
#26=FACE_OUTER_BOUND('',#49,.T.);
#27=FACE_OUTER_BOUND('',#50,.T.);
#28=FACE_OUTER_BOUND('',#51,.T.);
#29=FACE_OUTER_BOUND('',#52,.T.);
#30=FACE_OUTER_BOUND('',#53,.T.);
#31=FACE_OUTER_BOUND('',#54,.T.);
#32=FACE_OUTER_BOUND('',#55,.T.);
#33=FACE_OUTER_BOUND('',#56,.T.);
#34=FACE_OUTER_BOUND('',#57,.T.);
#35=FACE_OUTER_BOUND('',#58,.T.);
#36=FACE_OUTER_BOUND('',#59,.T.);
#37=FACE_OUTER_BOUND('',#60,.T.);
#38=FACE_OUTER_BOUND('',#61,.T.);
#39=FACE_OUTER_BOUND('',#62,.T.);
#40=FACE_OUTER_BOUND('',#64,.T.);
#41=FACE_OUTER_BOUND('',#65,.T.);
#42=FACE_OUTER_BOUND('',#66,.T.);
#43=EDGE_LOOP('',(#251,#252,#253,#254));
#44=EDGE_LOOP('',(#255,#256,#257,#258));
#45=EDGE_LOOP('',(#259,#260,#261,#262));
#46=EDGE_LOOP('',(#263,#264,#265,#266));
#47=EDGE_LOOP('',(#267,#268,#269,#270,#271,#272,#273,#274));
#48=EDGE_LOOP('',(#275,#276,#277,#278));
#49=EDGE_LOOP('',(#279,#280,#281,#282));
#50=EDGE_LOOP('',(#283,#284,#285,#286));
#51=EDGE_LOOP('',(#287,#288,#289,#290));
#52=EDGE_LOOP('',(#291,#292,#293,#294));
#53=EDGE_LOOP('',(#295,#296,#297,#298));
#54=EDGE_LOOP('',(#299,#300,#301,#302));
#55=EDGE_LOOP('',(#303,#304,#305,#306));
#56=EDGE_LOOP('',(#307,#308,#309,#310));
#57=EDGE_LOOP('',(#311,#312,#313,#314));
#58=EDGE_LOOP('',(#315,#316,#317,#318,#319,#320,#321,#322));
#59=EDGE_LOOP('',(#323,#324,#325,#326));
#60=EDGE_LOOP('',(#327));
#61=EDGE_LOOP('',(#328,#329,#330,#331));
#62=EDGE_LOOP('',(#332,#333,#334,#335));
#63=EDGE_LOOP('',(#336));
#64=EDGE_LOOP('',(#337,#338,#339,#340));
#65=EDGE_LOOP('',(#341,#342,#343,#344));
#66=EDGE_LOOP('',(#345,#346,#347,#348));
#67=EDGE_LOOP('',(#349,#350,#351,#352));
#68=LINE('',#532,#117);
#69=LINE('',#534,#118);
#70=LINE('',#536,#119);
#71=LINE('',#537,#120);
#72=LINE('',#541,#121);
#73=LINE('',#543,#122);
#74=LINE('',#545,#123);
#75=LINE('',#546,#124);
#76=LINE('',#548,#125);
#77=LINE('',#549,#126);
#78=LINE('',#553,#127);
#79=LINE('',#555,#128);
#80=LINE('',#557,#129);
#81=LINE('',#558,#130);
#82=LINE('',#560,#131);
#83=LINE('',#562,#132);
#84=LINE('',#564,#133);
#85=LINE('',#566,#134);
#86=LINE('',#567,#135);
#87=LINE('',#570,#136);
#88=LINE('',#572,#137);
#89=LINE('',#574,#138);
#90=LINE('',#575,#139);
#91=LINE('',#579,#140);
#92=LINE('',#581,#141);
#93=LINE('',#583,#142);
#94=LINE('',#584,#143);
#95=LINE('',#586,#144);
#96=LINE('',#587,#145);
#97=LINE('',#589,#146);
#98=LINE('',#591,#147);
#99=LINE('',#596,#148);
#100=LINE('',#598,#149);
#101=LINE('',#600,#150);
#102=LINE('',#601,#151);
#103=LINE('',#603,#152);
#104=LINE('',#604,#153);
#105=LINE('',#606,#154);
#106=LINE('',#608,#155);
#107=LINE('',#610,#156);
#108=LINE('',#615,#157);
#109=LINE('',#621,#158);
#110=LINE('',#622,#159);
#111=LINE('',#623,#160);
#112=LINE('',#627,#161);
#113=LINE('',#628,#162);
#114=LINE('',#629,#163);
#115=LINE('',#631,#164);
#116=LINE('',#633,#165);
#117=VECTOR('',#435,10.);
#118=VECTOR('',#436,10.);
#119=VECTOR('',#437,10.);
#120=VECTOR('',#438,10.);
#121=VECTOR('',#441,10.);
#122=VECTOR('',#442,10.);
#123=VECTOR('',#443,10.);
#124=VECTOR('',#444,10.);
#125=VECTOR('',#447,10.);
#126=VECTOR('',#448,10.);
#127=VECTOR('',#451,10.);
#128=VECTOR('',#452,10.);
#129=VECTOR('',#453,10.);
#130=VECTOR('',#454,10.);
#131=VECTOR('',#455,10.);
#132=VECTOR('',#456,10.);
#133=VECTOR('',#457,10.);
#134=VECTOR('',#458,10.);
#135=VECTOR('',#459,10.);
#136=VECTOR('',#460,10.);
#137=VECTOR('',#461,10.);
#138=VECTOR('',#462,10.);
#139=VECTOR('',#463,10.);
#140=VECTOR('',#466,10.);
#141=VECTOR('',#467,10.);
#142=VECTOR('',#468,10.);
#143=VECTOR('',#469,10.);
#144=VECTOR('',#472,10.);
#145=VECTOR('',#473,10.);
#146=VECTOR('',#476,10.);
#147=VECTOR('',#479,10.);
#148=VECTOR('',#484,10.);
#149=VECTOR('',#485,10.);
#150=VECTOR('',#486,10.);
#151=VECTOR('',#487,10.);
#152=VECTOR('',#490,10.);
#153=VECTOR('',#491,10.);
#154=VECTOR('',#494,10.);
#155=VECTOR('',#497,10.);
#156=VECTOR('',#500,10.);
#157=VECTOR('',#505,1.708);
#158=VECTOR('',#512,10.);
#159=VECTOR('',#513,10.);
#160=VECTOR('',#514,10.);
#161=VECTOR('',#517,10.);
#162=VECTOR('',#518,10.);
#163=VECTOR('',#519,10.);
#164=VECTOR('',#522,10.);
#165=VECTOR('',#525,10.);
#166=VERTEX_POINT('',#530);
#167=VERTEX_POINT('',#531);
#168=VERTEX_POINT('',#533);
#169=VERTEX_POINT('',#535);
#170=VERTEX_POINT('',#539);
#171=VERTEX_POINT('',#540);
#172=VERTEX_POINT('',#542);
#173=VERTEX_POINT('',#544);
#174=VERTEX_POINT('',#551);
#175=VERTEX_POINT('',#552);
#176=VERTEX_POINT('',#554);
#177=VERTEX_POINT('',#556);
#178=VERTEX_POINT('',#559);
#179=VERTEX_POINT('',#561);
#180=VERTEX_POINT('',#563);
#181=VERTEX_POINT('',#565);
#182=VERTEX_POINT('',#568);
#183=VERTEX_POINT('',#569);
#184=VERTEX_POINT('',#571);
#185=VERTEX_POINT('',#573);
#186=VERTEX_POINT('',#577);
#187=VERTEX_POINT('',#578);
#188=VERTEX_POINT('',#580);
#189=VERTEX_POINT('',#582);
#190=VERTEX_POINT('',#594);
#191=VERTEX_POINT('',#595);
#192=VERTEX_POINT('',#597);
#193=VERTEX_POINT('',#599);
#194=VERTEX_POINT('',#612);
#195=VERTEX_POINT('',#614);
#196=VERTEX_POINT('',#619);
#197=VERTEX_POINT('',#620);
#198=VERTEX_POINT('',#625);
#199=VERTEX_POINT('',#626);
#200=EDGE_CURVE('',#166,#167,#68,.T.);
#201=EDGE_CURVE('',#168,#166,#69,.T.);
#202=EDGE_CURVE('',#169,#168,#70,.T.);
#203=EDGE_CURVE('',#169,#167,#71,.T.);
#204=EDGE_CURVE('',#170,#171,#72,.T.);
#205=EDGE_CURVE('',#172,#170,#73,.T.);
#206=EDGE_CURVE('',#173,#172,#74,.T.);
#207=EDGE_CURVE('',#173,#171,#75,.T.);
#208=EDGE_CURVE('',#171,#166,#76,.T.);
#209=EDGE_CURVE('',#168,#173,#77,.T.);
#210=EDGE_CURVE('',#174,#175,#78,.T.);
#211=EDGE_CURVE('',#176,#175,#79,.T.);
#212=EDGE_CURVE('',#177,#176,#80,.T.);
#213=EDGE_CURVE('',#174,#177,#81,.T.);
#214=EDGE_CURVE('',#172,#178,#82,.T.);
#215=EDGE_CURVE('',#178,#179,#83,.T.);
#216=EDGE_CURVE('',#179,#180,#84,.T.);
#217=EDGE_CURVE('',#180,#181,#85,.T.);
#218=EDGE_CURVE('',#181,#169,#86,.T.);
#219=EDGE_CURVE('',#182,#183,#87,.T.);
#220=EDGE_CURVE('',#183,#184,#88,.T.);
#221=EDGE_CURVE('',#184,#185,#89,.T.);
#222=EDGE_CURVE('',#185,#182,#90,.T.);
#223=EDGE_CURVE('',#186,#187,#91,.T.);
#224=EDGE_CURVE('',#187,#188,#92,.T.);
#225=EDGE_CURVE('',#188,#189,#93,.T.);
#226=EDGE_CURVE('',#189,#186,#94,.T.);
#227=EDGE_CURVE('',#189,#183,#95,.T.);
#228=EDGE_CURVE('',#186,#182,#96,.T.);
#229=EDGE_CURVE('',#188,#184,#97,.T.);
#230=EDGE_CURVE('',#187,#185,#98,.T.);
#231=EDGE_CURVE('',#190,#191,#99,.T.);
#232=EDGE_CURVE('',#191,#192,#100,.T.);
#233=EDGE_CURVE('',#192,#193,#101,.T.);
#234=EDGE_CURVE('',#193,#190,#102,.T.);
#235=EDGE_CURVE('',#193,#179,#103,.T.);
#236=EDGE_CURVE('',#190,#178,#104,.T.);
#237=EDGE_CURVE('',#192,#180,#105,.T.);
#238=EDGE_CURVE('',#191,#181,#106,.T.);
#239=EDGE_CURVE('',#167,#170,#107,.T.);
#240=EDGE_CURVE('',#194,#194,#15,.F.);
#241=EDGE_CURVE('',#194,#195,#108,.T.);
#242=EDGE_CURVE('',#195,#195,#16,.F.);
#243=EDGE_CURVE('',#196,#197,#109,.T.);
#244=EDGE_CURVE('',#197,#174,#110,.T.);
#245=EDGE_CURVE('',#177,#196,#111,.T.);
#246=EDGE_CURVE('',#198,#199,#112,.T.);
#247=EDGE_CURVE('',#199,#176,#113,.T.);
#248=EDGE_CURVE('',#175,#198,#114,.T.);
#249=EDGE_CURVE('',#196,#199,#115,.T.);
#250=EDGE_CURVE('',#197,#198,#116,.T.);
#251=ORIENTED_EDGE('',*,*,#200,.F.);
#252=ORIENTED_EDGE('',*,*,#201,.F.);
#253=ORIENTED_EDGE('',*,*,#202,.F.);
#254=ORIENTED_EDGE('',*,*,#203,.T.);
#255=ORIENTED_EDGE('',*,*,#204,.F.);
#256=ORIENTED_EDGE('',*,*,#205,.F.);
#257=ORIENTED_EDGE('',*,*,#206,.F.);
#258=ORIENTED_EDGE('',*,*,#207,.T.);
#259=ORIENTED_EDGE('',*,*,#208,.F.);
#260=ORIENTED_EDGE('',*,*,#207,.F.);
#261=ORIENTED_EDGE('',*,*,#209,.F.);
#262=ORIENTED_EDGE('',*,*,#201,.T.);
#263=ORIENTED_EDGE('',*,*,#210,.T.);
#264=ORIENTED_EDGE('',*,*,#211,.F.);
#265=ORIENTED_EDGE('',*,*,#212,.F.);
#266=ORIENTED_EDGE('',*,*,#213,.F.);
#267=ORIENTED_EDGE('',*,*,#209,.T.);
#268=ORIENTED_EDGE('',*,*,#206,.T.);
#269=ORIENTED_EDGE('',*,*,#214,.T.);
#270=ORIENTED_EDGE('',*,*,#215,.T.);
#271=ORIENTED_EDGE('',*,*,#216,.T.);
#272=ORIENTED_EDGE('',*,*,#217,.T.);
#273=ORIENTED_EDGE('',*,*,#218,.T.);
#274=ORIENTED_EDGE('',*,*,#202,.T.);
#275=ORIENTED_EDGE('',*,*,#219,.T.);
#276=ORIENTED_EDGE('',*,*,#220,.T.);
#277=ORIENTED_EDGE('',*,*,#221,.T.);
#278=ORIENTED_EDGE('',*,*,#222,.T.);
#279=ORIENTED_EDGE('',*,*,#223,.T.);
#280=ORIENTED_EDGE('',*,*,#224,.T.);
#281=ORIENTED_EDGE('',*,*,#225,.T.);
#282=ORIENTED_EDGE('',*,*,#226,.T.);
#283=ORIENTED_EDGE('',*,*,#227,.T.);
#284=ORIENTED_EDGE('',*,*,#219,.F.);
#285=ORIENTED_EDGE('',*,*,#228,.F.);
#286=ORIENTED_EDGE('',*,*,#226,.F.);
#287=ORIENTED_EDGE('',*,*,#229,.T.);
#288=ORIENTED_EDGE('',*,*,#220,.F.);
#289=ORIENTED_EDGE('',*,*,#227,.F.);
#290=ORIENTED_EDGE('',*,*,#225,.F.);
#291=ORIENTED_EDGE('',*,*,#230,.T.);
#292=ORIENTED_EDGE('',*,*,#221,.F.);
#293=ORIENTED_EDGE('',*,*,#229,.F.);
#294=ORIENTED_EDGE('',*,*,#224,.F.);
#295=ORIENTED_EDGE('',*,*,#228,.T.);
#296=ORIENTED_EDGE('',*,*,#222,.F.);
#297=ORIENTED_EDGE('',*,*,#230,.F.);
#298=ORIENTED_EDGE('',*,*,#223,.F.);
#299=ORIENTED_EDGE('',*,*,#231,.T.);
#300=ORIENTED_EDGE('',*,*,#232,.T.);
#301=ORIENTED_EDGE('',*,*,#233,.T.);
#302=ORIENTED_EDGE('',*,*,#234,.T.);
#303=ORIENTED_EDGE('',*,*,#235,.T.);
#304=ORIENTED_EDGE('',*,*,#215,.F.);
#305=ORIENTED_EDGE('',*,*,#236,.F.);
#306=ORIENTED_EDGE('',*,*,#234,.F.);
#307=ORIENTED_EDGE('',*,*,#237,.T.);
#308=ORIENTED_EDGE('',*,*,#216,.F.);
#309=ORIENTED_EDGE('',*,*,#235,.F.);
#310=ORIENTED_EDGE('',*,*,#233,.F.);
#311=ORIENTED_EDGE('',*,*,#238,.T.);
#312=ORIENTED_EDGE('',*,*,#217,.F.);
#313=ORIENTED_EDGE('',*,*,#237,.F.);
#314=ORIENTED_EDGE('',*,*,#232,.F.);
#315=ORIENTED_EDGE('',*,*,#238,.F.);
#316=ORIENTED_EDGE('',*,*,#231,.F.);
#317=ORIENTED_EDGE('',*,*,#236,.T.);
#318=ORIENTED_EDGE('',*,*,#214,.F.);
#319=ORIENTED_EDGE('',*,*,#205,.T.);
#320=ORIENTED_EDGE('',*,*,#239,.F.);
#321=ORIENTED_EDGE('',*,*,#203,.F.);
#322=ORIENTED_EDGE('',*,*,#218,.F.);
#323=ORIENTED_EDGE('',*,*,#240,.F.);
#324=ORIENTED_EDGE('',*,*,#241,.T.);
#325=ORIENTED_EDGE('',*,*,#242,.T.);
#326=ORIENTED_EDGE('',*,*,#241,.F.);
#327=ORIENTED_EDGE('',*,*,#242,.F.);
#328=ORIENTED_EDGE('',*,*,#243,.T.);
#329=ORIENTED_EDGE('',*,*,#244,.T.);
#330=ORIENTED_EDGE('',*,*,#213,.T.);
#331=ORIENTED_EDGE('',*,*,#245,.T.);
#332=ORIENTED_EDGE('',*,*,#246,.T.);
#333=ORIENTED_EDGE('',*,*,#247,.T.);
#334=ORIENTED_EDGE('',*,*,#211,.T.);
#335=ORIENTED_EDGE('',*,*,#248,.T.);
#336=ORIENTED_EDGE('',*,*,#240,.T.);
#337=ORIENTED_EDGE('',*,*,#212,.T.);
#338=ORIENTED_EDGE('',*,*,#247,.F.);
#339=ORIENTED_EDGE('',*,*,#249,.F.);
#340=ORIENTED_EDGE('',*,*,#245,.F.);
#341=ORIENTED_EDGE('',*,*,#250,.T.);
#342=ORIENTED_EDGE('',*,*,#248,.F.);
#343=ORIENTED_EDGE('',*,*,#210,.F.);
#344=ORIENTED_EDGE('',*,*,#244,.F.);
#345=ORIENTED_EDGE('',*,*,#249,.T.);
#346=ORIENTED_EDGE('',*,*,#246,.F.);
#347=ORIENTED_EDGE('',*,*,#250,.F.);
#348=ORIENTED_EDGE('',*,*,#243,.F.);
#349=ORIENTED_EDGE('',*,*,#204,.T.);
#350=ORIENTED_EDGE('',*,*,#208,.T.);
#351=ORIENTED_EDGE('',*,*,#200,.T.);
#352=ORIENTED_EDGE('',*,*,#239,.T.);
#353=PLANE('',#408);
#354=PLANE('',#409);
#355=PLANE('',#410);
#356=PLANE('',#411);
#357=PLANE('',#412);
#358=PLANE('',#413);
#359=PLANE('',#414);
#360=PLANE('',#415);
#361=PLANE('',#416);
#362=PLANE('',#417);
#363=PLANE('',#418);
#364=PLANE('',#419);
#365=PLANE('',#420);
#366=PLANE('',#421);
#367=PLANE('',#425);
#368=PLANE('',#426);
#369=PLANE('',#427);
#370=PLANE('',#428);
#371=PLANE('',#429);
#372=PLANE('',#430);
#373=ADVANCED_FACE('',(#22),#353,.F.);
#374=ADVANCED_FACE('',(#23),#354,.F.);
#375=ADVANCED_FACE('',(#24),#355,.F.);
#376=ADVANCED_FACE('',(#25,#18,#19),#356,.F.);
#377=ADVANCED_FACE('',(#26),#357,.T.);
#378=ADVANCED_FACE('',(#27),#358,.F.);
#379=ADVANCED_FACE('',(#28),#359,.F.);
#380=ADVANCED_FACE('',(#29),#360,.F.);
#381=ADVANCED_FACE('',(#30),#361,.F.);
#382=ADVANCED_FACE('',(#31),#362,.T.);
#383=ADVANCED_FACE('',(#32),#363,.F.);
#384=ADVANCED_FACE('',(#33),#364,.F.);
#385=ADVANCED_FACE('',(#34),#365,.F.);
#386=ADVANCED_FACE('',(#35),#366,.F.);
#387=ADVANCED_FACE('',(#36),#17,.F.);
#388=ADVANCED_FACE('',(#37),#367,.F.);
#389=ADVANCED_FACE('',(#38),#368,.T.);
#390=ADVANCED_FACE('',(#39,#20),#369,.F.);
#391=ADVANCED_FACE('',(#40),#370,.F.);
#392=ADVANCED_FACE('',(#41),#371,.F.);
#393=ADVANCED_FACE('',(#42,#21),#372,.F.);
#394=CLOSED_SHELL('',(#373,#374,#375,#376,#377,#378,#379,#380,#381,#382,
#383,#384,#385,#386,#387,#388,#389,#390,#391,#392,#393));
#395=DERIVED_UNIT_ELEMENT(#397,1.);
#396=DERIVED_UNIT_ELEMENT(#640,-3.);
#397=(
MASS_UNIT()
NAMED_UNIT(*)
SI_UNIT(.KILO.,.GRAM.)
);
#398=DERIVED_UNIT((#395,#396));
#399=MEASURE_REPRESENTATION_ITEM('density measure',
POSITIVE_RATIO_MEASURE(7850.),#398);
#400=PROPERTY_DEFINITION_REPRESENTATION(#405,#402);
#401=PROPERTY_DEFINITION_REPRESENTATION(#406,#403);
#402=REPRESENTATION('material name',(#404),#637);
#403=REPRESENTATION('density',(#399),#637);
#404=DESCRIPTIVE_REPRESENTATION_ITEM('Steel','Steel');
#405=PROPERTY_DEFINITION('material property','material name',#647);
#406=PROPERTY_DEFINITION('material property','density of part',#647);
#407=AXIS2_PLACEMENT_3D('',#528,#431,#432);
#408=AXIS2_PLACEMENT_3D('',#529,#433,#434);
#409=AXIS2_PLACEMENT_3D('',#538,#439,#440);
#410=AXIS2_PLACEMENT_3D('',#547,#445,#446);
#411=AXIS2_PLACEMENT_3D('',#550,#449,#450);
#412=AXIS2_PLACEMENT_3D('',#576,#464,#465);
#413=AXIS2_PLACEMENT_3D('',#585,#470,#471);
#414=AXIS2_PLACEMENT_3D('',#588,#474,#475);
#415=AXIS2_PLACEMENT_3D('',#590,#477,#478);
#416=AXIS2_PLACEMENT_3D('',#592,#480,#481);
#417=AXIS2_PLACEMENT_3D('',#593,#482,#483);
#418=AXIS2_PLACEMENT_3D('',#602,#488,#489);
#419=AXIS2_PLACEMENT_3D('',#605,#492,#493);
#420=AXIS2_PLACEMENT_3D('',#607,#495,#496);
#421=AXIS2_PLACEMENT_3D('',#609,#498,#499);
#422=AXIS2_PLACEMENT_3D('',#611,#501,#502);
#423=AXIS2_PLACEMENT_3D('',#613,#503,#504);
#424=AXIS2_PLACEMENT_3D('',#616,#506,#507);
#425=AXIS2_PLACEMENT_3D('',#617,#508,#509);
#426=AXIS2_PLACEMENT_3D('',#618,#510,#511);
#427=AXIS2_PLACEMENT_3D('',#624,#515,#516);
#428=AXIS2_PLACEMENT_3D('',#630,#520,#521);
#429=AXIS2_PLACEMENT_3D('',#632,#523,#524);
#430=AXIS2_PLACEMENT_3D('',#634,#526,#527);
#431=DIRECTION('axis',(0.,0.,1.));
#432=DIRECTION('refdir',(1.,0.,0.));
#433=DIRECTION('center_axis',(0.,1.,0.));
#434=DIRECTION('ref_axis',(0.,0.,-1.));
#435=DIRECTION('',(0.,0.,1.));
#436=DIRECTION('',(-1.,0.,0.));
#437=DIRECTION('',(0.,0.,-1.));
#438=DIRECTION('',(-1.,0.,0.));
#439=DIRECTION('center_axis',(0.,-1.,0.));
#440=DIRECTION('ref_axis',(0.,0.,1.));
#441=DIRECTION('',(0.,0.,-1.));
#442=DIRECTION('',(-1.,0.,0.));
#443=DIRECTION('',(0.,0.,1.));
#444=DIRECTION('',(-1.,0.,0.));
#445=DIRECTION('center_axis',(0.,0.,-1.));
#446=DIRECTION('ref_axis',(0.,-1.,0.));
#447=DIRECTION('',(-2.22044604925031E-16,1.,0.));
#448=DIRECTION('',(2.22044604925031E-16,-1.,0.));
#449=DIRECTION('center_axis',(-1.,-2.22044604925031E-16,0.));
#450=DIRECTION('ref_axis',(0.,0.,-1.));
#451=DIRECTION('',(0.,0.,-1.));
#452=DIRECTION('',(2.22044604925031E-16,-1.,0.));
#453=DIRECTION('',(0.,0.,-1.));
#454=DIRECTION('',(-2.22044604925031E-16,1.,0.));
#455=DIRECTION('',(2.22044604925031E-16,-1.,0.));
#456=DIRECTION('',(0.,0.,1.));
#457=DIRECTION('',(-2.22044604925031E-16,1.,0.));
#458=DIRECTION('',(0.,0.,-1.));
#459=DIRECTION('',(-2.22044604925031E-16,1.,0.));
#460=DIRECTION('',(0.,0.,1.));
#461=DIRECTION('',(-2.22044604925031E-16,1.,0.));
#462=DIRECTION('',(0.,0.,-1.));
#463=DIRECTION('',(2.22044604925031E-16,-1.,0.));
#464=DIRECTION('center_axis',(1.,0.,0.));
#465=DIRECTION('ref_axis',(0.,0.,-1.));
#466=DIRECTION('',(0.,1.,0.));
#467=DIRECTION('',(0.,0.,1.));
#468=DIRECTION('',(0.,-1.,0.));
#469=DIRECTION('',(0.,0.,-1.));
#470=DIRECTION('center_axis',(0.,1.,0.));
#471=DIRECTION('ref_axis',(1.,0.,0.));
#472=DIRECTION('',(-1.,0.,0.));
#473=DIRECTION('',(-1.,0.,0.));
#474=DIRECTION('center_axis',(0.,0.,-1.));
#475=DIRECTION('ref_axis',(-1.,0.,0.));
#476=DIRECTION('',(-1.,0.,0.));
#477=DIRECTION('center_axis',(0.,-1.,0.));
#478=DIRECTION('ref_axis',(-1.,0.,0.));
#479=DIRECTION('',(-1.,0.,0.));
#480=DIRECTION('center_axis',(0.,0.,1.));
#481=DIRECTION('ref_axis',(1.,0.,0.));
#482=DIRECTION('center_axis',(1.,0.,0.));
#483=DIRECTION('ref_axis',(0.,0.,-1.));
#484=DIRECTION('',(0.,1.,0.));
#485=DIRECTION('',(0.,0.,1.));
#486=DIRECTION('',(0.,-1.,0.));
#487=DIRECTION('',(0.,0.,-1.));
#488=DIRECTION('center_axis',(0.,1.,0.));
#489=DIRECTION('ref_axis',(1.,0.,0.));
#490=DIRECTION('',(-1.,0.,0.));
#491=DIRECTION('',(-1.,0.,0.));
#492=DIRECTION('center_axis',(0.,0.,-1.));
#493=DIRECTION('ref_axis',(-1.,0.,0.));
#494=DIRECTION('',(-1.,0.,0.));
#495=DIRECTION('center_axis',(0.,-1.,0.));
#496=DIRECTION('ref_axis',(-1.,0.,0.));
#497=DIRECTION('',(-1.,0.,0.));
#498=DIRECTION('center_axis',(0.,0.,1.));
#499=DIRECTION('ref_axis',(1.,0.,0.));
#500=DIRECTION('',(2.22044604925031E-16,-1.,0.));
#501=DIRECTION('center_axis',(0.,0.,1.));
#502=DIRECTION('ref_axis',(-1.,0.,0.));
#503=DIRECTION('center_axis',(0.,0.,-1.));
#504=DIRECTION('ref_axis',(-1.,0.,0.));
#505=DIRECTION('',(0.,0.,1.));
#506=DIRECTION('center_axis',(0.,0.,-1.));
#507=DIRECTION('ref_axis',(-1.,0.,0.));
#508=DIRECTION('center_axis',(0.,0.,1.));
#509=DIRECTION('ref_axis',(-1.,0.,0.));
#510=DIRECTION('center_axis',(0.,0.,1.));
#511=DIRECTION('ref_axis',(-1.,-2.22044604925031E-16,0.));
#512=DIRECTION('',(2.22044604925031E-16,-1.,0.));
#513=DIRECTION('',(1.,2.22044604925031E-16,0.));
#514=DIRECTION('',(-1.,-2.22044604925031E-16,0.));
#515=DIRECTION('center_axis',(0.,0.,1.));
#516=DIRECTION('ref_axis',(-1.,-2.22044604925031E-16,0.));
#517=DIRECTION('',(-2.22044604925031E-16,1.,0.));
#518=DIRECTION('',(1.,2.22044604925031E-16,0.));
#519=DIRECTION('',(-1.,-2.22044604925031E-16,0.));
#520=DIRECTION('center_axis',(2.22044604925031E-16,-1.,0.));
#521=DIRECTION('ref_axis',(0.,0.,1.));
#522=DIRECTION('',(0.,0.,-1.));
#523=DIRECTION('center_axis',(-2.22044604925031E-16,1.,0.));
#524=DIRECTION('ref_axis',(0.,0.,-1.));
#525=DIRECTION('',(0.,0.,-1.));
#526=DIRECTION('center_axis',(1.,2.22044604925031E-16,0.));
#527=DIRECTION('ref_axis',(0.,0.,1.));
#528=CARTESIAN_POINT('',(0.,0.,0.));
#529=CARTESIAN_POINT('Origin',(-4.,5.50029679970273,5.));
#530=CARTESIAN_POINT('',(-13.88,5.50029679970273,-4.99958415328146));
#531=CARTESIAN_POINT('',(-13.88,5.50029679970273,5.));
#532=CARTESIAN_POINT('',(-13.88,5.50029679970273,2.5));
#533=CARTESIAN_POINT('',(-5.,5.50029679970273,-4.99958415328146));
#534=CARTESIAN_POINT('',(-4.,5.50029679970273,-4.99958415328146));
#535=CARTESIAN_POINT('',(-5.,5.50029679970273,5.));
#536=CARTESIAN_POINT('',(-5.,5.50029679970273,-0.00479207664073111));
#537=CARTESIAN_POINT('',(-4.,5.50029679970273,5.));
#538=CARTESIAN_POINT('Origin',(-4.,-5.49970320029727,-4.99958415328146));
#539=CARTESIAN_POINT('',(-13.88,-5.49970320029727,5.));
#540=CARTESIAN_POINT('',(-13.88,-5.49970320029727,-4.99958415328146));
#541=CARTESIAN_POINT('',(-13.88,-5.49970320029727,-2.49979207664073));
#542=CARTESIAN_POINT('',(-5.,-5.49970320029727,5.));
#543=CARTESIAN_POINT('',(-4.,-5.49970320029727,5.));
#544=CARTESIAN_POINT('',(-5.,-5.49970320029727,-4.99958415328146));
#545=CARTESIAN_POINT('',(-5.,-5.49970320029727,-0.504792076640731));
#546=CARTESIAN_POINT('',(-4.,-5.49970320029727,-4.99958415328146));
#547=CARTESIAN_POINT('Origin',(-4.,5.50029679970273,-4.99958415328146));
#548=CARTESIAN_POINT('',(-13.88,2.75014839985136,-4.99958415328146));
#549=CARTESIAN_POINT('',(-5.,-0.687851600148638,-4.99958415328146));
#550=CARTESIAN_POINT('Origin',(-5.,-1.94289029309402E-15,0.));
#551=CARTESIAN_POINT('',(-5.,-20.32,20.32));
#552=CARTESIAN_POINT('',(-5.,-20.32,-20.32));
#553=CARTESIAN_POINT('',(-5.,-20.32,0.));
#554=CARTESIAN_POINT('',(-5.,20.32,-20.32));
#555=CARTESIAN_POINT('',(-5.,-1.94289029309402E-15,-20.32));
#556=CARTESIAN_POINT('',(-5.,20.32,20.32));
#557=CARTESIAN_POINT('',(-5.,20.32,0.));
#558=CARTESIAN_POINT('',(-5.,-1.94289029309402E-15,20.32));
#559=CARTESIAN_POINT('',(-5.,-5.5,5.));
#560=CARTESIAN_POINT('',(-5.,0.250000044703482,5.));
#561=CARTESIAN_POINT('',(-5.,-5.5,7.));
#562=CARTESIAN_POINT('',(-5.,-5.5,2.49999994039535));
#563=CARTESIAN_POINT('',(-5.,5.5,7.));
#564=CARTESIAN_POINT('',(-5.,0.250000044703482,7.));
#565=CARTESIAN_POINT('',(-5.,5.5,5.));
#566=CARTESIAN_POINT('',(-5.,5.5,2.49999994039535));
#567=CARTESIAN_POINT('',(-5.,-0.687851600148638,5.));
#568=CARTESIAN_POINT('',(-5.,-5.5,-7.));
#569=CARTESIAN_POINT('',(-5.,-5.5,-5.));
#570=CARTESIAN_POINT('',(-5.,-5.5,-0.499999925494194));
#571=CARTESIAN_POINT('',(-5.,5.5,-5.));
#572=CARTESIAN_POINT('',(-5.,-2.24999999254942,-5.));
#573=CARTESIAN_POINT('',(-5.,5.5,-7.));
#574=CARTESIAN_POINT('',(-5.,5.5,-0.499999925494194));
#575=CARTESIAN_POINT('',(-5.,-2.24999999254942,-7.));
#576=CARTESIAN_POINT('Origin',(6.,0.,-6.));
#577=CARTESIAN_POINT('',(6.,-5.5,-7.));
#578=CARTESIAN_POINT('',(6.,5.5,-7.));
#579=CARTESIAN_POINT('',(6.,0.,-7.));
#580=CARTESIAN_POINT('',(6.,5.5,-5.));
#581=CARTESIAN_POINT('',(6.,5.5,-6.));
#582=CARTESIAN_POINT('',(6.,-5.5,-5.));
#583=CARTESIAN_POINT('',(6.,0.,-5.));
#584=CARTESIAN_POINT('',(6.,-5.5,-6.));
#585=CARTESIAN_POINT('Origin',(0.5,-5.5,-6.));
#586=CARTESIAN_POINT('',(0.5,-5.5,-5.));
#587=CARTESIAN_POINT('',(0.5,-5.5,-7.));
#588=CARTESIAN_POINT('Origin',(0.5,0.,-5.));
#589=CARTESIAN_POINT('',(0.5,5.5,-5.));
#590=CARTESIAN_POINT('Origin',(0.5,5.5,-6.));
#591=CARTESIAN_POINT('',(0.5,5.5,-7.));
#592=CARTESIAN_POINT('Origin',(0.5,0.,-7.));
#593=CARTESIAN_POINT('Origin',(6.,0.,6.));
#594=CARTESIAN_POINT('',(6.,-5.5,5.));
#595=CARTESIAN_POINT('',(6.,5.5,5.));
#596=CARTESIAN_POINT('',(6.,0.,5.));
#597=CARTESIAN_POINT('',(6.,5.5,7.));
#598=CARTESIAN_POINT('',(6.,5.5,6.));
#599=CARTESIAN_POINT('',(6.,-5.5,7.));
#600=CARTESIAN_POINT('',(6.,0.,7.));
#601=CARTESIAN_POINT('',(6.,-5.5,6.));
#602=CARTESIAN_POINT('Origin',(0.5,-5.5,6.));
#603=CARTESIAN_POINT('',(0.5,-5.5,7.));
#604=CARTESIAN_POINT('',(0.5,-5.5,5.));
#605=CARTESIAN_POINT('Origin',(0.5,0.,7.));
#606=CARTESIAN_POINT('',(0.5,5.5,7.));
#607=CARTESIAN_POINT('Origin',(0.5,5.5,6.));
#608=CARTESIAN_POINT('',(0.5,5.5,5.));
#609=CARTESIAN_POINT('Origin',(0.5,0.,5.));
#610=CARTESIAN_POINT('',(-13.88,-2.74985160014864,5.));
#611=CARTESIAN_POINT('Origin',(-9.44,-2.22044604925031E-15,-17.145));
#612=CARTESIAN_POINT('',(-7.73185,-2.42963409224667E-15,-20.32));
#613=CARTESIAN_POINT('Origin',(-9.44,-2.22044604925031E-15,-20.32));
#614=CARTESIAN_POINT('',(-7.73185,-2.42963409224667E-15,-13.97));
#615=CARTESIAN_POINT('',(-7.73185,-2.01125800625396E-15,-17.145));
#616=CARTESIAN_POINT('Origin',(-9.44,-2.22044604925031E-15,-13.97));
#617=CARTESIAN_POINT('Origin',(-9.44,-2.22044604925031E-15,-13.97));
#618=CARTESIAN_POINT('Origin',(-9.44,-3.05311331771918E-15,20.32));
#619=CARTESIAN_POINT('',(-13.88,20.32,20.32));
#620=CARTESIAN_POINT('',(-13.88,-20.32,20.32));
#621=CARTESIAN_POINT('',(-13.88,-3.88578058618805E-15,20.32));
#622=CARTESIAN_POINT('',(-9.44,-20.32,20.32));
#623=CARTESIAN_POINT('',(-9.44,20.32,20.32));
#624=CARTESIAN_POINT('Origin',(-9.44,-3.05311331771918E-15,-20.32));
#625=CARTESIAN_POINT('',(-13.88,-20.32,-20.32));
#626=CARTESIAN_POINT('',(-13.88,20.32,-20.32));
#627=CARTESIAN_POINT('',(-13.88,-3.88578058618805E-15,-20.32));
#628=CARTESIAN_POINT('',(-9.44,20.32,-20.32));
#629=CARTESIAN_POINT('',(-9.44,-20.32,-20.32));
#630=CARTESIAN_POINT('Origin',(-9.44,20.32,0.));
#631=CARTESIAN_POINT('',(-13.88,20.32,0.));
#632=CARTESIAN_POINT('Origin',(-9.44,-20.32,0.));
#633=CARTESIAN_POINT('',(-13.88,-20.32,0.));
#634=CARTESIAN_POINT('Origin',(-13.88,-3.88578058618805E-15,0.));
#635=UNCERTAINTY_MEASURE_WITH_UNIT(LENGTH_MEASURE(0.01),#639,
'DISTANCE_ACCURACY_VALUE',
'Maximum model space distance between geometric entities at asserted c
onnectivities');
#636=UNCERTAINTY_MEASURE_WITH_UNIT(LENGTH_MEASURE(0.01),#639,
'DISTANCE_ACCURACY_VALUE',
'Maximum model space distance between geometric entities at asserted c
onnectivities');
#637=(
GEOMETRIC_REPRESENTATION_CONTEXT(3)
GLOBAL_UNCERTAINTY_ASSIGNED_CONTEXT((#635))
GLOBAL_UNIT_ASSIGNED_CONTEXT((#639,#641,#642))
REPRESENTATION_CONTEXT('','3D')
);
#638=(
GEOMETRIC_REPRESENTATION_CONTEXT(3)
GLOBAL_UNCERTAINTY_ASSIGNED_CONTEXT((#636))
GLOBAL_UNIT_ASSIGNED_CONTEXT((#639,#641,#642))
REPRESENTATION_CONTEXT('','3D')
);
#639=(
LENGTH_UNIT()
NAMED_UNIT(*)
SI_UNIT(.MILLI.,.METRE.)
);
#640=(
LENGTH_UNIT()
NAMED_UNIT(*)
SI_UNIT($,.METRE.)
);
#641=(
NAMED_UNIT(*)
PLANE_ANGLE_UNIT()
SI_UNIT($,.RADIAN.)
);
#642=(
NAMED_UNIT(*)
SI_UNIT($,.STERADIAN.)
SOLID_ANGLE_UNIT()
);
#643=SHAPE_DEFINITION_REPRESENTATION(#644,#645);
#644=PRODUCT_DEFINITION_SHAPE('',$,#647);
#645=SHAPE_REPRESENTATION('',(#407),#637);
#646=PRODUCT_DEFINITION_CONTEXT('part definition',#651,'design');
#647=PRODUCT_DEFINITION('2026-08-20-19-45-24-701','10mm cube holder',#648,
#646);
#648=PRODUCT_DEFINITION_FORMATION('',$,#653);
#649=PRODUCT_RELATED_PRODUCT_CATEGORY('10mm cube holder',
'10mm cube holder',(#653));
#650=APPLICATION_PROTOCOL_DEFINITION('international standard',
'automotive_design',2009,#651);
#651=APPLICATION_CONTEXT(
'Core Data for Automotive Mechanical Design Process');
#652=PRODUCT_CONTEXT('part definition',#651,'mechanical');
#653=PRODUCT('2026-08-20-19-45-24-701','10mm cube holder',$,(#652));
#654=PRESENTATION_STYLE_ASSIGNMENT((#655));
#655=SURFACE_STYLE_USAGE(.BOTH.,#656);
#656=SURFACE_SIDE_STYLE('',(#657));
#657=SURFACE_STYLE_FILL_AREA(#658);
#658=FILL_AREA_STYLE('Steel - Satin',(#659));
#659=FILL_AREA_STYLE_COLOUR('Steel - Satin',#660);
#660=COLOUR_RGB('Steel - Satin',0.627450980392157,0.627450980392157,0.627450980392157);
ENDSEC;
END-ISO-10303-21;
