ISO-10303-21;
HEADER;
/* Generated by software containing ST-Developer
 * from STEP Tools, Inc. (www.steptools.com) 
 */

FILE_DESCRIPTION(
/* description */ ('FreeCAD Model'),
/* implementation_level */ '2;1');

FILE_NAME(
/* name */ 'Surface_Adapter_CP13.step',
/* time_stamp */ '2026-08-21T17:21:27-05:00',
/* author */ (''),
/* organization */ (''),
/* preprocessor_version */ 'ST-DEVELOPER v20.1',
/* originating_system */ 'Autodesk Translation Framework v15.8.0.0',
/* authorisation */ '');

FILE_SCHEMA (('AUTOMOTIVE_DESIGN { 1 0 10303 214 3 1 1 }'));
ENDSEC;

DATA;
#10=MECHANICAL_DESIGN_GEOMETRIC_PRESENTATION_REPRESENTATION('',(#13),#935);
#11=SHAPE_REPRESENTATION_RELATIONSHIP('SRR','None',#942,#12);
#12=ADVANCED_BREP_SHAPE_REPRESENTATION('',(#14),#934);
#13=STYLED_ITEM('',(#952),#14);
#14=MANIFOLD_SOLID_BREP('Body1',#555);
#15=CYLINDRICAL_SURFACE('',#584,4.999);
#16=CYLINDRICAL_SURFACE('',#589,4.999);
#17=CYLINDRICAL_SURFACE('',#592,4.999);
#18=CYLINDRICAL_SURFACE('',#603,4.999);
#19=CYLINDRICAL_SURFACE('',#605,4.5);
#20=CYLINDRICAL_SURFACE('',#607,2.1844);
#21=CYLINDRICAL_SURFACE('',#609,4.5);
#22=CYLINDRICAL_SURFACE('',#617,2.1844);
#23=CYLINDRICAL_SURFACE('',#618,4.5);
#24=CYLINDRICAL_SURFACE('',#619,2.1844);
#25=FACE_BOUND('',#88,.T.);
#26=FACE_BOUND('',#89,.T.);
#27=FACE_BOUND('',#90,.T.);
#28=FACE_BOUND('',#108,.T.);
#29=FACE_BOUND('',#109,.T.);
#30=FACE_BOUND('',#110,.T.);
#31=FACE_BOUND('',#117,.T.);
#32=FACE_BOUND('',#119,.T.);
#33=FACE_BOUND('',#121,.T.);
#34=CIRCLE('',#572,4.999);
#35=CIRCLE('',#573,4.999);
#36=CIRCLE('',#574,4.5);
#37=CIRCLE('',#575,2.1844);
#38=CIRCLE('',#576,4.5);
#39=CIRCLE('',#581,4.999);
#40=CIRCLE('',#582,4.999);
#41=CIRCLE('',#585,4.999);
#42=CIRCLE('',#590,4.999);
#43=CIRCLE('',#593,4.999);
#44=CIRCLE('',#599,4.999);
#45=CIRCLE('',#600,2.1844);
#46=CIRCLE('',#601,4.5);
#47=CIRCLE('',#602,2.1844);
#48=CIRCLE('',#606,4.5);
#49=CIRCLE('',#608,2.1844);
#50=CIRCLE('',#610,4.5);
#51=CIRCLE('',#612,2.1844);
#52=CIRCLE('',#614,4.5);
#53=CIRCLE('',#616,2.1844);
#54=FACE_OUTER_BOUND('',#85,.T.);
#55=FACE_OUTER_BOUND('',#86,.T.);
#56=FACE_OUTER_BOUND('',#87,.T.);
#57=FACE_OUTER_BOUND('',#91,.T.);
#58=FACE_OUTER_BOUND('',#92,.T.);
#59=FACE_OUTER_BOUND('',#93,.T.);
#60=FACE_OUTER_BOUND('',#94,.T.);
#61=FACE_OUTER_BOUND('',#95,.T.);
#62=FACE_OUTER_BOUND('',#96,.T.);
#63=FACE_OUTER_BOUND('',#97,.T.);
#64=FACE_OUTER_BOUND('',#98,.T.);
#65=FACE_OUTER_BOUND('',#99,.T.);
#66=FACE_OUTER_BOUND('',#100,.T.);
#67=FACE_OUTER_BOUND('',#101,.T.);
#68=FACE_OUTER_BOUND('',#102,.T.);
#69=FACE_OUTER_BOUND('',#103,.T.);
#70=FACE_OUTER_BOUND('',#104,.T.);
#71=FACE_OUTER_BOUND('',#105,.T.);
#72=FACE_OUTER_BOUND('',#106,.T.);
#73=FACE_OUTER_BOUND('',#107,.T.);
#74=FACE_OUTER_BOUND('',#111,.T.);
#75=FACE_OUTER_BOUND('',#112,.T.);
#76=FACE_OUTER_BOUND('',#113,.T.);
#77=FACE_OUTER_BOUND('',#114,.T.);
#78=FACE_OUTER_BOUND('',#115,.T.);
#79=FACE_OUTER_BOUND('',#116,.T.);
#80=FACE_OUTER_BOUND('',#118,.T.);
#81=FACE_OUTER_BOUND('',#120,.T.);
#82=FACE_OUTER_BOUND('',#122,.T.);
#83=FACE_OUTER_BOUND('',#123,.T.);
#84=FACE_OUTER_BOUND('',#124,.T.);
#85=EDGE_LOOP('',(#355,#356,#357,#358));
#86=EDGE_LOOP('',(#359,#360,#361,#362));
#87=EDGE_LOOP('',(#363,#364,#365,#366,#367,#368,#369,#370,#371,#372,#373,
#374,#375,#376));
#88=EDGE_LOOP('',(#377));
#89=EDGE_LOOP('',(#378));
#90=EDGE_LOOP('',(#379));
#91=EDGE_LOOP('',(#380,#381,#382,#383));
#92=EDGE_LOOP('',(#384,#385,#386,#387));
#93=EDGE_LOOP('',(#388,#389,#390,#391,#392));
#94=EDGE_LOOP('',(#393,#394,#395,#396,#397,#398,#399,#400));
#95=EDGE_LOOP('',(#401,#402,#403,#404));
#96=EDGE_LOOP('',(#405,#406,#407,#408));
#97=EDGE_LOOP('',(#409,#410,#411,#412));
#98=EDGE_LOOP('',(#413,#414,#415,#416));
#99=EDGE_LOOP('',(#417,#418,#419,#420,#421,#422));
#100=EDGE_LOOP('',(#423,#424,#425,#426));
#101=EDGE_LOOP('',(#427,#428,#429,#430,#431));
#102=EDGE_LOOP('',(#432,#433,#434,#435));
#103=EDGE_LOOP('',(#436,#437,#438,#439));
#104=EDGE_LOOP('',(#440,#441,#442,#443));
#105=EDGE_LOOP('',(#444,#445,#446,#447,#448));
#106=EDGE_LOOP('',(#449,#450,#451,#452,#453));
#107=EDGE_LOOP('',(#454,#455,#456,#457,#458,#459,#460,#461));
#108=EDGE_LOOP('',(#462));
#109=EDGE_LOOP('',(#463));
#110=EDGE_LOOP('',(#464));
#111=EDGE_LOOP('',(#465,#466,#467,#468));
#112=EDGE_LOOP('',(#469,#470,#471,#472));
#113=EDGE_LOOP('',(#473,#474,#475,#476));
#114=EDGE_LOOP('',(#477,#478,#479,#480));
#115=EDGE_LOOP('',(#481,#482,#483,#484));
#116=EDGE_LOOP('',(#485));
#117=EDGE_LOOP('',(#486));
#118=EDGE_LOOP('',(#487));
#119=EDGE_LOOP('',(#488));
#120=EDGE_LOOP('',(#489));
#121=EDGE_LOOP('',(#490));
#122=EDGE_LOOP('',(#491,#492,#493,#494));
#123=EDGE_LOOP('',(#495,#496,#497,#498));
#124=EDGE_LOOP('',(#499,#500,#501,#502));
#125=LINE('',#782,#179);
#126=LINE('',#784,#180);
#127=LINE('',#786,#181);
#128=LINE('',#787,#182);
#129=LINE('',#791,#183);
#130=LINE('',#793,#184);
#131=LINE('',#795,#185);
#132=LINE('',#796,#186);
#133=LINE('',#799,#187);
#134=LINE('',#801,#188);
#135=LINE('',#803,#189);
#136=LINE('',#805,#190);
#137=LINE('',#807,#191);
#138=LINE('',#809,#192);
#139=LINE('',#811,#193);
#140=LINE('',#813,#194);
#141=LINE('',#815,#195);
#142=LINE('',#819,#196);
#143=LINE('',#822,#197);
#144=LINE('',#831,#198);
#145=LINE('',#832,#199);
#146=LINE('',#835,#200);
#147=LINE('',#837,#201);
#148=LINE('',#838,#202);
#149=LINE('',#840,#203);
#150=LINE('',#841,#204);
#151=LINE('',#846,#205);
#152=LINE('',#850,#206);
#153=LINE('',#852,#207);
#154=LINE('',#853,#208);
#155=LINE('',#855,#209);
#156=LINE('',#856,#210);
#157=LINE('',#859,#211);
#158=LINE('',#862,#212);
#159=LINE('',#864,#213);
#160=LINE('',#865,#214);
#161=LINE('',#867,#215);
#162=LINE('',#871,#216);
#163=LINE('',#874,#217);
#164=LINE('',#876,#218);
#165=LINE('',#881,#219);
#166=LINE('',#882,#220);
#167=LINE('',#885,#221);
#168=LINE('',#886,#222);
#169=LINE('',#888,#223);
#170=LINE('',#890,#224);
#171=LINE('',#893,#225);
#172=LINE('',#894,#226);
#173=LINE('',#907,#227);
#174=LINE('',#912,#228);
#175=LINE('',#915,#229);
#176=LINE('',#927,#230);
#177=LINE('',#929,#231);
#178=LINE('',#931,#232);
#179=VECTOR('',#624,10.);
#180=VECTOR('',#625,10.);
#181=VECTOR('',#626,10.);
#182=VECTOR('',#627,10.);
#183=VECTOR('',#630,10.);
#184=VECTOR('',#631,10.);
#185=VECTOR('',#632,10.);
#186=VECTOR('',#633,10.);
#187=VECTOR('',#636,10.);
#188=VECTOR('',#637,10.);
#189=VECTOR('',#638,10.);
#190=VECTOR('',#639,10.);
#191=VECTOR('',#640,10.);
#192=VECTOR('',#641,10.);
#193=VECTOR('',#642,10.);
#194=VECTOR('',#643,10.);
#195=VECTOR('',#644,1.);
#196=VECTOR('',#647,1.);
#197=VECTOR('',#650,1.);
#198=VECTOR('',#659,10.);
#199=VECTOR('',#660,10.);
#200=VECTOR('',#663,10.);
#201=VECTOR('',#664,10.);
#202=VECTOR('',#665,10.);
#203=VECTOR('',#668,10.);
#204=VECTOR('',#669,10.);
#205=VECTOR('',#674,10.);
#206=VECTOR('',#677,10.);
#207=VECTOR('',#678,10.);
#208=VECTOR('',#679,10.);
#209=VECTOR('',#682,10.);
#210=VECTOR('',#683,10.);
#211=VECTOR('',#686,10.);
#212=VECTOR('',#689,10.);
#213=VECTOR('',#692,10.);
#214=VECTOR('',#693,10.);
#215=VECTOR('',#696,10.);
#216=VECTOR('',#701,10.);
#217=VECTOR('',#704,10.);
#218=VECTOR('',#707,10.);
#219=VECTOR('',#712,10.);
#220=VECTOR('',#713,10.);
#221=VECTOR('',#716,10.);
#222=VECTOR('',#717,1.);
#223=VECTOR('',#720,1.);
#224=VECTOR('',#723,1.);
#225=VECTOR('',#726,1.);
#226=VECTOR('',#727,10.);
#227=VECTOR('',#744,4.5);
#228=VECTOR('',#751,2.1844);
#229=VECTOR('',#754,4.5);
#230=VECTOR('',#771,2.1844);
#231=VECTOR('',#774,4.5);
#232=VECTOR('',#777,2.1844);
#233=VERTEX_POINT('',#780);
#234=VERTEX_POINT('',#781);
#235=VERTEX_POINT('',#783);
#236=VERTEX_POINT('',#785);
#237=VERTEX_POINT('',#789);
#238=VERTEX_POINT('',#790);
#239=VERTEX_POINT('',#792);
#240=VERTEX_POINT('',#794);
#241=VERTEX_POINT('',#798);
#242=VERTEX_POINT('',#800);
#243=VERTEX_POINT('',#802);
#244=VERTEX_POINT('',#804);
#245=VERTEX_POINT('',#806);
#246=VERTEX_POINT('',#808);
#247=VERTEX_POINT('',#810);
#248=VERTEX_POINT('',#812);
#249=VERTEX_POINT('',#814);
#250=VERTEX_POINT('',#816);
#251=VERTEX_POINT('',#818);
#252=VERTEX_POINT('',#820);
#253=VERTEX_POINT('',#823);
#254=VERTEX_POINT('',#825);
#255=VERTEX_POINT('',#827);
#256=VERTEX_POINT('',#830);
#257=VERTEX_POINT('',#834);
#258=VERTEX_POINT('',#836);
#259=VERTEX_POINT('',#843);
#260=VERTEX_POINT('',#845);
#261=VERTEX_POINT('',#847);
#262=VERTEX_POINT('',#849);
#263=VERTEX_POINT('',#851);
#264=VERTEX_POINT('',#858);
#265=VERTEX_POINT('',#860);
#266=VERTEX_POINT('',#870);
#267=VERTEX_POINT('',#872);
#268=VERTEX_POINT('',#878);
#269=VERTEX_POINT('',#879);
#270=VERTEX_POINT('',#884);
#271=VERTEX_POINT('',#892);
#272=VERTEX_POINT('',#897);
#273=VERTEX_POINT('',#899);
#274=VERTEX_POINT('',#901);
#275=VERTEX_POINT('',#906);
#276=VERTEX_POINT('',#910);
#277=VERTEX_POINT('',#914);
#278=VERTEX_POINT('',#918);
#279=VERTEX_POINT('',#921);
#280=VERTEX_POINT('',#924);
#281=EDGE_CURVE('',#233,#234,#125,.T.);
#282=EDGE_CURVE('',#235,#234,#126,.T.);
#283=EDGE_CURVE('',#236,#235,#127,.T.);
#284=EDGE_CURVE('',#233,#236,#128,.T.);
#285=EDGE_CURVE('',#237,#238,#129,.T.);
#286=EDGE_CURVE('',#239,#237,#130,.T.);
#287=EDGE_CURVE('',#240,#239,#131,.T.);
#288=EDGE_CURVE('',#238,#240,#132,.T.);
#289=EDGE_CURVE('',#236,#241,#133,.T.);
#290=EDGE_CURVE('',#241,#242,#134,.T.);
#291=EDGE_CURVE('',#242,#243,#135,.T.);
#292=EDGE_CURVE('',#243,#244,#136,.T.);
#293=EDGE_CURVE('',#244,#245,#137,.T.);
#294=EDGE_CURVE('',#245,#246,#138,.T.);
#295=EDGE_CURVE('',#246,#247,#139,.T.);
#296=EDGE_CURVE('',#247,#248,#140,.T.);
#297=EDGE_CURVE('',#249,#248,#141,.T.);
#298=EDGE_CURVE('',#250,#249,#34,.T.);
#299=EDGE_CURVE('',#251,#250,#142,.T.);
#300=EDGE_CURVE('',#252,#251,#35,.T.);
#301=EDGE_CURVE('',#252,#233,#143,.T.);
#302=EDGE_CURVE('',#253,#253,#36,.T.);
#303=EDGE_CURVE('',#254,#254,#37,.T.);
#304=EDGE_CURVE('',#255,#255,#38,.T.);
#305=EDGE_CURVE('',#235,#256,#144,.T.);
#306=EDGE_CURVE('',#256,#241,#145,.T.);
#307=EDGE_CURVE('',#257,#239,#146,.T.);
#308=EDGE_CURVE('',#257,#258,#147,.T.);
#309=EDGE_CURVE('',#240,#258,#148,.T.);
#310=EDGE_CURVE('',#245,#237,#149,.T.);
#311=EDGE_CURVE('',#244,#257,#150,.T.);
#312=EDGE_CURVE('',#234,#259,#39,.T.);
#313=EDGE_CURVE('',#259,#260,#151,.T.);
#314=EDGE_CURVE('',#260,#261,#40,.T.);
#315=EDGE_CURVE('',#261,#262,#152,.T.);
#316=EDGE_CURVE('',#262,#263,#153,.T.);
#317=EDGE_CURVE('',#263,#256,#154,.T.);
#318=EDGE_CURVE('',#261,#248,#155,.T.);
#319=EDGE_CURVE('',#262,#247,#156,.T.);
#320=EDGE_CURVE('',#260,#264,#157,.T.);
#321=EDGE_CURVE('',#264,#265,#41,.T.);
#322=EDGE_CURVE('',#265,#261,#158,.T.);
#323=EDGE_CURVE('',#238,#242,#159,.T.);
#324=EDGE_CURVE('',#242,#245,#160,.T.);
#325=EDGE_CURVE('',#246,#263,#161,.T.);
#326=EDGE_CURVE('',#234,#266,#162,.T.);
#327=EDGE_CURVE('',#266,#267,#42,.T.);
#328=EDGE_CURVE('',#267,#259,#163,.T.);
#329=EDGE_CURVE('',#258,#243,#164,.T.);
#330=EDGE_CURVE('',#268,#269,#43,.T.);
#331=EDGE_CURVE('',#269,#252,#165,.T.);
#332=EDGE_CURVE('',#251,#268,#166,.T.);
#333=EDGE_CURVE('',#270,#250,#167,.T.);
#334=EDGE_CURVE('',#268,#270,#168,.T.);
#335=EDGE_CURVE('',#267,#264,#169,.T.);
#336=EDGE_CURVE('',#269,#266,#170,.T.);
#337=EDGE_CURVE('',#271,#265,#171,.T.);
#338=EDGE_CURVE('',#249,#271,#172,.T.);
#339=EDGE_CURVE('',#271,#270,#44,.T.);
#340=EDGE_CURVE('',#272,#272,#45,.T.);
#341=EDGE_CURVE('',#273,#273,#46,.T.);
#342=EDGE_CURVE('',#274,#274,#47,.T.);
#343=EDGE_CURVE('',#253,#275,#173,.T.);
#344=EDGE_CURVE('',#275,#275,#48,.T.);
#345=EDGE_CURVE('',#276,#276,#49,.T.);
#346=EDGE_CURVE('',#276,#254,#174,.T.);
#347=EDGE_CURVE('',#255,#277,#175,.T.);
#348=EDGE_CURVE('',#277,#277,#50,.T.);
#349=EDGE_CURVE('',#278,#278,#51,.T.);
#350=EDGE_CURVE('',#279,#279,#52,.T.);
#351=EDGE_CURVE('',#280,#280,#53,.T.);
#352=EDGE_CURVE('',#278,#272,#176,.T.);
#353=EDGE_CURVE('',#273,#279,#177,.T.);
#354=EDGE_CURVE('',#280,#274,#178,.T.);
#355=ORIENTED_EDGE('',*,*,#281,.T.);
#356=ORIENTED_EDGE('',*,*,#282,.F.);
#357=ORIENTED_EDGE('',*,*,#283,.F.);
#358=ORIENTED_EDGE('',*,*,#284,.F.);
#359=ORIENTED_EDGE('',*,*,#285,.F.);
#360=ORIENTED_EDGE('',*,*,#286,.F.);
#361=ORIENTED_EDGE('',*,*,#287,.F.);
#362=ORIENTED_EDGE('',*,*,#288,.F.);
#363=ORIENTED_EDGE('',*,*,#284,.T.);
#364=ORIENTED_EDGE('',*,*,#289,.T.);
#365=ORIENTED_EDGE('',*,*,#290,.T.);
#366=ORIENTED_EDGE('',*,*,#291,.T.);
#367=ORIENTED_EDGE('',*,*,#292,.T.);
#368=ORIENTED_EDGE('',*,*,#293,.T.);
#369=ORIENTED_EDGE('',*,*,#294,.T.);
#370=ORIENTED_EDGE('',*,*,#295,.T.);
#371=ORIENTED_EDGE('',*,*,#296,.T.);
#372=ORIENTED_EDGE('',*,*,#297,.F.);
#373=ORIENTED_EDGE('',*,*,#298,.F.);
#374=ORIENTED_EDGE('',*,*,#299,.F.);
#375=ORIENTED_EDGE('',*,*,#300,.F.);
#376=ORIENTED_EDGE('',*,*,#301,.T.);
#377=ORIENTED_EDGE('',*,*,#302,.T.);
#378=ORIENTED_EDGE('',*,*,#303,.F.);
#379=ORIENTED_EDGE('',*,*,#304,.T.);
#380=ORIENTED_EDGE('',*,*,#283,.T.);
#381=ORIENTED_EDGE('',*,*,#305,.T.);
#382=ORIENTED_EDGE('',*,*,#306,.T.);
#383=ORIENTED_EDGE('',*,*,#289,.F.);
#384=ORIENTED_EDGE('',*,*,#287,.T.);
#385=ORIENTED_EDGE('',*,*,#307,.F.);
#386=ORIENTED_EDGE('',*,*,#308,.T.);
#387=ORIENTED_EDGE('',*,*,#309,.F.);
#388=ORIENTED_EDGE('',*,*,#286,.T.);
#389=ORIENTED_EDGE('',*,*,#310,.F.);
#390=ORIENTED_EDGE('',*,*,#293,.F.);
#391=ORIENTED_EDGE('',*,*,#311,.T.);
#392=ORIENTED_EDGE('',*,*,#307,.T.);
#393=ORIENTED_EDGE('',*,*,#312,.T.);
#394=ORIENTED_EDGE('',*,*,#313,.T.);
#395=ORIENTED_EDGE('',*,*,#314,.T.);
#396=ORIENTED_EDGE('',*,*,#315,.T.);
#397=ORIENTED_EDGE('',*,*,#316,.T.);
#398=ORIENTED_EDGE('',*,*,#317,.T.);
#399=ORIENTED_EDGE('',*,*,#305,.F.);
#400=ORIENTED_EDGE('',*,*,#282,.T.);
#401=ORIENTED_EDGE('',*,*,#318,.T.);
#402=ORIENTED_EDGE('',*,*,#296,.F.);
#403=ORIENTED_EDGE('',*,*,#319,.F.);
#404=ORIENTED_EDGE('',*,*,#315,.F.);
#405=ORIENTED_EDGE('',*,*,#314,.F.);
#406=ORIENTED_EDGE('',*,*,#320,.T.);
#407=ORIENTED_EDGE('',*,*,#321,.T.);
#408=ORIENTED_EDGE('',*,*,#322,.T.);
#409=ORIENTED_EDGE('',*,*,#285,.T.);
#410=ORIENTED_EDGE('',*,*,#323,.T.);
#411=ORIENTED_EDGE('',*,*,#324,.T.);
#412=ORIENTED_EDGE('',*,*,#310,.T.);
#413=ORIENTED_EDGE('',*,*,#319,.T.);
#414=ORIENTED_EDGE('',*,*,#295,.F.);
#415=ORIENTED_EDGE('',*,*,#325,.T.);
#416=ORIENTED_EDGE('',*,*,#316,.F.);
#417=ORIENTED_EDGE('',*,*,#317,.F.);
#418=ORIENTED_EDGE('',*,*,#325,.F.);
#419=ORIENTED_EDGE('',*,*,#294,.F.);
#420=ORIENTED_EDGE('',*,*,#324,.F.);
#421=ORIENTED_EDGE('',*,*,#290,.F.);
#422=ORIENTED_EDGE('',*,*,#306,.F.);
#423=ORIENTED_EDGE('',*,*,#312,.F.);
#424=ORIENTED_EDGE('',*,*,#326,.T.);
#425=ORIENTED_EDGE('',*,*,#327,.T.);
#426=ORIENTED_EDGE('',*,*,#328,.T.);
#427=ORIENTED_EDGE('',*,*,#288,.T.);
#428=ORIENTED_EDGE('',*,*,#309,.T.);
#429=ORIENTED_EDGE('',*,*,#329,.T.);
#430=ORIENTED_EDGE('',*,*,#291,.F.);
#431=ORIENTED_EDGE('',*,*,#323,.F.);
#432=ORIENTED_EDGE('',*,*,#330,.T.);
#433=ORIENTED_EDGE('',*,*,#331,.T.);
#434=ORIENTED_EDGE('',*,*,#300,.T.);
#435=ORIENTED_EDGE('',*,*,#332,.T.);
#436=ORIENTED_EDGE('',*,*,#332,.F.);
#437=ORIENTED_EDGE('',*,*,#299,.T.);
#438=ORIENTED_EDGE('',*,*,#333,.F.);
#439=ORIENTED_EDGE('',*,*,#334,.F.);
#440=ORIENTED_EDGE('',*,*,#328,.F.);
#441=ORIENTED_EDGE('',*,*,#335,.T.);
#442=ORIENTED_EDGE('',*,*,#320,.F.);
#443=ORIENTED_EDGE('',*,*,#313,.F.);
#444=ORIENTED_EDGE('',*,*,#331,.F.);
#445=ORIENTED_EDGE('',*,*,#336,.T.);
#446=ORIENTED_EDGE('',*,*,#326,.F.);
#447=ORIENTED_EDGE('',*,*,#281,.F.);
#448=ORIENTED_EDGE('',*,*,#301,.F.);
#449=ORIENTED_EDGE('',*,*,#322,.F.);
#450=ORIENTED_EDGE('',*,*,#337,.F.);
#451=ORIENTED_EDGE('',*,*,#338,.F.);
#452=ORIENTED_EDGE('',*,*,#297,.T.);
#453=ORIENTED_EDGE('',*,*,#318,.F.);
#454=ORIENTED_EDGE('',*,*,#330,.F.);
#455=ORIENTED_EDGE('',*,*,#334,.T.);
#456=ORIENTED_EDGE('',*,*,#339,.F.);
#457=ORIENTED_EDGE('',*,*,#337,.T.);
#458=ORIENTED_EDGE('',*,*,#321,.F.);
#459=ORIENTED_EDGE('',*,*,#335,.F.);
#460=ORIENTED_EDGE('',*,*,#327,.F.);
#461=ORIENTED_EDGE('',*,*,#336,.F.);
#462=ORIENTED_EDGE('',*,*,#340,.F.);
#463=ORIENTED_EDGE('',*,*,#341,.T.);
#464=ORIENTED_EDGE('',*,*,#342,.F.);
#465=ORIENTED_EDGE('',*,*,#298,.T.);
#466=ORIENTED_EDGE('',*,*,#338,.T.);
#467=ORIENTED_EDGE('',*,*,#339,.T.);
#468=ORIENTED_EDGE('',*,*,#333,.T.);
#469=ORIENTED_EDGE('',*,*,#292,.F.);
#470=ORIENTED_EDGE('',*,*,#329,.F.);
#471=ORIENTED_EDGE('',*,*,#308,.F.);
#472=ORIENTED_EDGE('',*,*,#311,.F.);
#473=ORIENTED_EDGE('',*,*,#302,.F.);
#474=ORIENTED_EDGE('',*,*,#343,.T.);
#475=ORIENTED_EDGE('',*,*,#344,.T.);
#476=ORIENTED_EDGE('',*,*,#343,.F.);
#477=ORIENTED_EDGE('',*,*,#345,.F.);
#478=ORIENTED_EDGE('',*,*,#346,.T.);
#479=ORIENTED_EDGE('',*,*,#303,.T.);
#480=ORIENTED_EDGE('',*,*,#346,.F.);
#481=ORIENTED_EDGE('',*,*,#304,.F.);
#482=ORIENTED_EDGE('',*,*,#347,.T.);
#483=ORIENTED_EDGE('',*,*,#348,.T.);
#484=ORIENTED_EDGE('',*,*,#347,.F.);
#485=ORIENTED_EDGE('',*,*,#344,.F.);
#486=ORIENTED_EDGE('',*,*,#349,.T.);
#487=ORIENTED_EDGE('',*,*,#350,.F.);
#488=ORIENTED_EDGE('',*,*,#345,.T.);
#489=ORIENTED_EDGE('',*,*,#348,.F.);
#490=ORIENTED_EDGE('',*,*,#351,.T.);
#491=ORIENTED_EDGE('',*,*,#349,.F.);
#492=ORIENTED_EDGE('',*,*,#352,.T.);
#493=ORIENTED_EDGE('',*,*,#340,.T.);
#494=ORIENTED_EDGE('',*,*,#352,.F.);
#495=ORIENTED_EDGE('',*,*,#341,.F.);
#496=ORIENTED_EDGE('',*,*,#353,.T.);
#497=ORIENTED_EDGE('',*,*,#350,.T.);
#498=ORIENTED_EDGE('',*,*,#353,.F.);
#499=ORIENTED_EDGE('',*,*,#351,.F.);
#500=ORIENTED_EDGE('',*,*,#354,.T.);
#501=ORIENTED_EDGE('',*,*,#342,.T.);
#502=ORIENTED_EDGE('',*,*,#354,.F.);
#503=PLANE('',#569);
#504=PLANE('',#570);
#505=PLANE('',#571);
#506=PLANE('',#577);
#507=PLANE('',#578);
#508=PLANE('',#579);
#509=PLANE('',#580);
#510=PLANE('',#583);
#511=PLANE('',#586);
#512=PLANE('',#587);
#513=PLANE('',#588);
#514=PLANE('',#591);
#515=PLANE('',#594);
#516=PLANE('',#595);
#517=PLANE('',#596);
#518=PLANE('',#597);
#519=PLANE('',#598);
#520=PLANE('',#604);
#521=PLANE('',#611);
#522=PLANE('',#613);
#523=PLANE('',#615);
#524=ADVANCED_FACE('',(#54),#503,.F.);
#525=ADVANCED_FACE('',(#55),#504,.F.);
#526=ADVANCED_FACE('',(#56,#25,#26,#27),#505,.T.);
#527=ADVANCED_FACE('',(#57),#506,.F.);
#528=ADVANCED_FACE('',(#58),#507,.T.);
#529=ADVANCED_FACE('',(#59),#508,.T.);
#530=ADVANCED_FACE('',(#60),#509,.F.);
#531=ADVANCED_FACE('',(#61),#510,.F.);
#532=ADVANCED_FACE('',(#62),#15,.T.);
#533=ADVANCED_FACE('',(#63),#511,.F.);
#534=ADVANCED_FACE('',(#64),#512,.F.);
#535=ADVANCED_FACE('',(#65),#513,.F.);
#536=ADVANCED_FACE('',(#66),#16,.T.);
#537=ADVANCED_FACE('',(#67),#514,.T.);
#538=ADVANCED_FACE('',(#68),#17,.T.);
#539=ADVANCED_FACE('',(#69),#515,.F.);
#540=ADVANCED_FACE('',(#70),#516,.T.);
#541=ADVANCED_FACE('',(#71),#517,.F.);
#542=ADVANCED_FACE('',(#72),#518,.T.);
#543=ADVANCED_FACE('',(#73,#28,#29,#30),#519,.F.);
#544=ADVANCED_FACE('',(#74),#18,.T.);
#545=ADVANCED_FACE('',(#75),#520,.T.);
#546=ADVANCED_FACE('',(#76),#19,.F.);
#547=ADVANCED_FACE('',(#77),#20,.F.);
#548=ADVANCED_FACE('',(#78),#21,.F.);
#549=ADVANCED_FACE('',(#79,#31),#521,.F.);
#550=ADVANCED_FACE('',(#80,#32),#522,.F.);
#551=ADVANCED_FACE('',(#81,#33),#523,.F.);
#552=ADVANCED_FACE('',(#82),#22,.F.);
#553=ADVANCED_FACE('',(#83),#23,.F.);
#554=ADVANCED_FACE('',(#84),#24,.F.);
#555=CLOSED_SHELL('',(#524,#525,#526,#527,#528,#529,#530,#531,#532,#533,
#534,#535,#536,#537,#538,#539,#540,#541,#542,#543,#544,#545,#546,#547,#548,
#549,#550,#551,#552,#553,#554));
#556=DERIVED_UNIT_ELEMENT(#558,1.);
#557=DERIVED_UNIT_ELEMENT(#937,-3.);
#558=(
MASS_UNIT()
NAMED_UNIT(*)
SI_UNIT(.KILO.,.GRAM.)
);
#559=DERIVED_UNIT((#556,#557));
#560=MEASURE_REPRESENTATION_ITEM('density measure',
POSITIVE_RATIO_MEASURE(7850.),#559);
#561=PROPERTY_DEFINITION_REPRESENTATION(#566,#563);
#562=PROPERTY_DEFINITION_REPRESENTATION(#567,#564);
#563=REPRESENTATION('material name',(#565),#934);
#564=REPRESENTATION('density',(#560),#934);
#565=DESCRIPTIVE_REPRESENTATION_ITEM('Steel','Steel');
#566=PROPERTY_DEFINITION('material property','material name',#944);
#567=PROPERTY_DEFINITION('material property','density of part',#944);
#568=AXIS2_PLACEMENT_3D('',#778,#620,#621);
#569=AXIS2_PLACEMENT_3D('',#779,#622,#623);
#570=AXIS2_PLACEMENT_3D('',#788,#628,#629);
#571=AXIS2_PLACEMENT_3D('',#797,#634,#635);
#572=AXIS2_PLACEMENT_3D('',#817,#645,#646);
#573=AXIS2_PLACEMENT_3D('',#821,#648,#649);
#574=AXIS2_PLACEMENT_3D('',#824,#651,#652);
#575=AXIS2_PLACEMENT_3D('',#826,#653,#654);
#576=AXIS2_PLACEMENT_3D('',#828,#655,#656);
#577=AXIS2_PLACEMENT_3D('',#829,#657,#658);
#578=AXIS2_PLACEMENT_3D('',#833,#661,#662);
#579=AXIS2_PLACEMENT_3D('',#839,#666,#667);
#580=AXIS2_PLACEMENT_3D('',#842,#670,#671);
#581=AXIS2_PLACEMENT_3D('',#844,#672,#673);
#582=AXIS2_PLACEMENT_3D('',#848,#675,#676);
#583=AXIS2_PLACEMENT_3D('',#854,#680,#681);
#584=AXIS2_PLACEMENT_3D('',#857,#684,#685);
#585=AXIS2_PLACEMENT_3D('',#861,#687,#688);
#586=AXIS2_PLACEMENT_3D('',#863,#690,#691);
#587=AXIS2_PLACEMENT_3D('',#866,#694,#695);
#588=AXIS2_PLACEMENT_3D('',#868,#697,#698);
#589=AXIS2_PLACEMENT_3D('',#869,#699,#700);
#590=AXIS2_PLACEMENT_3D('',#873,#702,#703);
#591=AXIS2_PLACEMENT_3D('',#875,#705,#706);
#592=AXIS2_PLACEMENT_3D('',#877,#708,#709);
#593=AXIS2_PLACEMENT_3D('',#880,#710,#711);
#594=AXIS2_PLACEMENT_3D('',#883,#714,#715);
#595=AXIS2_PLACEMENT_3D('',#887,#718,#719);
#596=AXIS2_PLACEMENT_3D('',#889,#721,#722);
#597=AXIS2_PLACEMENT_3D('',#891,#724,#725);
#598=AXIS2_PLACEMENT_3D('',#895,#728,#729);
#599=AXIS2_PLACEMENT_3D('',#896,#730,#731);
#600=AXIS2_PLACEMENT_3D('',#898,#732,#733);
#601=AXIS2_PLACEMENT_3D('',#900,#734,#735);
#602=AXIS2_PLACEMENT_3D('',#902,#736,#737);
#603=AXIS2_PLACEMENT_3D('',#903,#738,#739);
#604=AXIS2_PLACEMENT_3D('',#904,#740,#741);
#605=AXIS2_PLACEMENT_3D('',#905,#742,#743);
#606=AXIS2_PLACEMENT_3D('',#908,#745,#746);
#607=AXIS2_PLACEMENT_3D('',#909,#747,#748);
#608=AXIS2_PLACEMENT_3D('',#911,#749,#750);
#609=AXIS2_PLACEMENT_3D('',#913,#752,#753);
#610=AXIS2_PLACEMENT_3D('',#916,#755,#756);
#611=AXIS2_PLACEMENT_3D('',#917,#757,#758);
#612=AXIS2_PLACEMENT_3D('',#919,#759,#760);
#613=AXIS2_PLACEMENT_3D('',#920,#761,#762);
#614=AXIS2_PLACEMENT_3D('',#922,#763,#764);
#615=AXIS2_PLACEMENT_3D('',#923,#765,#766);
#616=AXIS2_PLACEMENT_3D('',#925,#767,#768);
#617=AXIS2_PLACEMENT_3D('',#926,#769,#770);
#618=AXIS2_PLACEMENT_3D('',#928,#772,#773);
#619=AXIS2_PLACEMENT_3D('',#930,#775,#776);
#620=DIRECTION('axis',(0.,0.,1.));
#621=DIRECTION('refdir',(1.,0.,0.));
#622=DIRECTION('center_axis',(-1.,0.,0.));
#623=DIRECTION('ref_axis',(0.,0.,1.));
#624=DIRECTION('',(0.,0.,-1.));
#625=DIRECTION('',(0.,-1.,0.));
#626=DIRECTION('',(0.,0.,-1.));
#627=DIRECTION('',(0.,1.,0.));
#628=DIRECTION('center_axis',(-1.,0.,0.));
#629=DIRECTION('ref_axis',(0.,0.,1.));
#630=DIRECTION('',(0.,-1.,0.));
#631=DIRECTION('',(0.,0.,-1.));
#632=DIRECTION('',(0.,1.,0.));
#633=DIRECTION('',(0.,0.,1.));
#634=DIRECTION('center_axis',(0.,0.,1.));
#635=DIRECTION('ref_axis',(1.,0.,0.));
#636=DIRECTION('',(-1.,0.,0.));
#637=DIRECTION('',(0.,1.,0.));
#638=DIRECTION('',(-1.,0.,0.));
#639=DIRECTION('',(0.,1.,0.));
#640=DIRECTION('',(1.,0.,0.));
#641=DIRECTION('',(0.,1.,0.));
#642=DIRECTION('',(1.,0.,0.));
#643=DIRECTION('',(0.,1.,0.));
#644=DIRECTION('',(1.,0.,0.));
#645=DIRECTION('center_axis',(0.,0.,-1.));
#646=DIRECTION('ref_axis',(-0.707106781186547,0.707106781186548,0.));
#647=DIRECTION('',(0.,1.,0.));
#648=DIRECTION('center_axis',(0.,0.,-1.));
#649=DIRECTION('ref_axis',(-0.707106781186547,-0.707106781186548,0.));
#650=DIRECTION('',(1.,0.,0.));
#651=DIRECTION('center_axis',(0.,0.,-1.));
#652=DIRECTION('ref_axis',(-1.,0.,0.));
#653=DIRECTION('center_axis',(0.,0.,1.));
#654=DIRECTION('ref_axis',(1.,0.,0.));
#655=DIRECTION('center_axis',(0.,0.,-1.));
#656=DIRECTION('ref_axis',(-1.,0.,0.));
#657=DIRECTION('center_axis',(0.,-1.,0.));
#658=DIRECTION('ref_axis',(0.,0.,1.));
#659=DIRECTION('',(-1.,0.,0.));
#660=DIRECTION('',(0.,0.,1.));
#661=DIRECTION('center_axis',(0.,0.,1.));
#662=DIRECTION('ref_axis',(1.,0.,0.));
#663=DIRECTION('',(1.,0.,0.));
#664=DIRECTION('',(0.,-1.,0.));
#665=DIRECTION('',(-1.,0.,0.));
#666=DIRECTION('center_axis',(0.,1.,0.));
#667=DIRECTION('ref_axis',(0.,0.,1.));
#668=DIRECTION('',(1.,0.,0.));
#669=DIRECTION('',(0.,0.,1.));
#670=DIRECTION('center_axis',(0.,0.,-1.));
#671=DIRECTION('ref_axis',(-1.,0.,0.));
#672=DIRECTION('center_axis',(0.,0.,1.));
#673=DIRECTION('ref_axis',(0.707106781186547,-0.707106781186548,0.));
#674=DIRECTION('',(0.,1.,0.));
#675=DIRECTION('center_axis',(0.,0.,1.));
#676=DIRECTION('ref_axis',(0.707106781186547,0.707106781186548,0.));
#677=DIRECTION('',(0.,-1.,0.));
#678=DIRECTION('',(-1.,0.,0.));
#679=DIRECTION('',(0.,-1.,0.));
#680=DIRECTION('center_axis',(-1.,0.,0.));
#681=DIRECTION('ref_axis',(0.,0.,1.));
#682=DIRECTION('',(0.,0.,1.));
#683=DIRECTION('',(0.,0.,1.));
#684=DIRECTION('center_axis',(0.,0.,-1.));
#685=DIRECTION('ref_axis',(0.707106781186547,0.707106781186548,0.));
#686=DIRECTION('',(0.,0.,-1.));
#687=DIRECTION('center_axis',(0.,0.,1.));
#688=DIRECTION('ref_axis',(0.707106781186547,0.707106781186548,0.));
#689=DIRECTION('',(0.,0.,1.));
#690=DIRECTION('center_axis',(0.,0.,1.));
#691=DIRECTION('ref_axis',(0.,1.,0.));
#692=DIRECTION('',(-1.,0.,0.));
#693=DIRECTION('',(0.,1.,0.));
#694=DIRECTION('center_axis',(0.,1.,0.));
#695=DIRECTION('ref_axis',(0.,0.,-1.));
#696=DIRECTION('',(0.,0.,-1.));
#697=DIRECTION('center_axis',(-1.,0.,0.));
#698=DIRECTION('ref_axis',(0.,0.,1.));
#699=DIRECTION('center_axis',(0.,0.,-1.));
#700=DIRECTION('ref_axis',(0.707106781186547,-0.707106781186548,0.));
#701=DIRECTION('',(0.,0.,-1.));
#702=DIRECTION('center_axis',(0.,0.,1.));
#703=DIRECTION('ref_axis',(0.707106781186547,-0.707106781186548,0.));
#704=DIRECTION('',(0.,0.,1.));
#705=DIRECTION('center_axis',(0.,-1.,0.));
#706=DIRECTION('ref_axis',(0.,0.,-1.));
#707=DIRECTION('',(0.,0.,-1.));
#708=DIRECTION('center_axis',(0.,0.,-1.));
#709=DIRECTION('ref_axis',(-0.707106781186547,-0.707106781186548,0.));
#710=DIRECTION('center_axis',(0.,0.,1.));
#711=DIRECTION('ref_axis',(-0.707106781186547,-0.707106781186548,0.));
#712=DIRECTION('',(0.,0.,1.));
#713=DIRECTION('',(0.,0.,-1.));
#714=DIRECTION('center_axis',(1.,0.,0.));
#715=DIRECTION('ref_axis',(0.,0.,1.));
#716=DIRECTION('',(0.,0.,1.));
#717=DIRECTION('',(0.,1.,0.));
#718=DIRECTION('center_axis',(1.,0.,0.));
#719=DIRECTION('ref_axis',(0.,0.,1.));
#720=DIRECTION('',(0.,1.,0.));
#721=DIRECTION('center_axis',(0.,1.,0.));
#722=DIRECTION('ref_axis',(0.,0.,1.));
#723=DIRECTION('',(1.,0.,0.));
#724=DIRECTION('center_axis',(0.,1.,0.));
#725=DIRECTION('ref_axis',(0.,0.,1.));
#726=DIRECTION('',(1.,0.,0.));
#727=DIRECTION('',(0.,0.,-1.));
#728=DIRECTION('center_axis',(0.,0.,1.));
#729=DIRECTION('ref_axis',(1.,0.,0.));
#730=DIRECTION('center_axis',(0.,0.,1.));
#731=DIRECTION('ref_axis',(-0.707106781186547,0.707106781186548,0.));
#732=DIRECTION('center_axis',(0.,0.,-1.));
#733=DIRECTION('ref_axis',(-1.,0.,0.));
#734=DIRECTION('center_axis',(0.,0.,1.));
#735=DIRECTION('ref_axis',(1.,0.,0.));
#736=DIRECTION('center_axis',(0.,0.,-1.));
#737=DIRECTION('ref_axis',(-1.,0.,0.));
#738=DIRECTION('center_axis',(0.,0.,1.));
#739=DIRECTION('ref_axis',(-0.707106781186547,0.707106781186548,0.));
#740=DIRECTION('center_axis',(-1.,0.,0.));
#741=DIRECTION('ref_axis',(0.,0.,1.));
#742=DIRECTION('center_axis',(0.,0.,-1.));
#743=DIRECTION('ref_axis',(-1.,0.,0.));
#744=DIRECTION('',(0.,0.,-1.));
#745=DIRECTION('center_axis',(0.,0.,-1.));
#746=DIRECTION('ref_axis',(-1.,0.,0.));
#747=DIRECTION('center_axis',(0.,0.,1.));
#748=DIRECTION('ref_axis',(1.,0.,0.));
#749=DIRECTION('center_axis',(0.,0.,1.));
#750=DIRECTION('ref_axis',(1.,0.,0.));
#751=DIRECTION('',(0.,0.,1.));
#752=DIRECTION('center_axis',(0.,0.,-1.));
#753=DIRECTION('ref_axis',(-1.,0.,0.));
#754=DIRECTION('',(0.,0.,-1.));
#755=DIRECTION('center_axis',(0.,0.,-1.));
#756=DIRECTION('ref_axis',(-1.,0.,0.));
#757=DIRECTION('center_axis',(0.,0.,-1.));
#758=DIRECTION('ref_axis',(-1.,0.,0.));
#759=DIRECTION('center_axis',(0.,0.,-1.));
#760=DIRECTION('ref_axis',(-1.,0.,0.));
#761=DIRECTION('center_axis',(0.,0.,1.));
#762=DIRECTION('ref_axis',(1.,0.,0.));
#763=DIRECTION('center_axis',(0.,0.,1.));
#764=DIRECTION('ref_axis',(1.,0.,0.));
#765=DIRECTION('center_axis',(0.,0.,-1.));
#766=DIRECTION('ref_axis',(-1.,0.,0.));
#767=DIRECTION('center_axis',(0.,0.,-1.));
#768=DIRECTION('ref_axis',(-1.,0.,0.));
#769=DIRECTION('center_axis',(0.,0.,-1.));
#770=DIRECTION('ref_axis',(-1.,0.,0.));
#771=DIRECTION('',(0.,0.,-1.));
#772=DIRECTION('center_axis',(0.,0.,1.));
#773=DIRECTION('ref_axis',(1.,0.,0.));
#774=DIRECTION('',(0.,0.,1.));
#775=DIRECTION('center_axis',(0.,0.,-1.));
#776=DIRECTION('ref_axis',(-1.,0.,0.));
#777=DIRECTION('',(0.,0.,-1.));
#778=CARTESIAN_POINT('',(0.,0.,0.));
#779=CARTESIAN_POINT('Origin',(5.50099985471368,33.1999992914498,0.722));
#780=CARTESIAN_POINT('',(5.501,-33.,0.));
#781=CARTESIAN_POINT('',(5.50099985471368,-33.,-1.778));
#782=CARTESIAN_POINT('',(5.501,-33.,-8.));
#783=CARTESIAN_POINT('',(5.50099985471368,-32.9924532345686,-1.778));
#784=CARTESIAN_POINT('',(5.50099985471368,33.1999992914498,-1.778));
#785=CARTESIAN_POINT('',(5.50099985471368,-32.9924532345686,0.));
#786=CARTESIAN_POINT('',(5.50099985471368,-32.9924532345686,-0.528));
#787=CARTESIAN_POINT('',(5.50099985471368,5.09999964572489,0.));
#788=CARTESIAN_POINT('Origin',(5.50099985471368,33.1999992914498,0.722));
#789=CARTESIAN_POINT('',(5.50099985471368,16.759,0.));
#790=CARTESIAN_POINT('',(5.50099985471368,-16.465,0.));
#791=CARTESIAN_POINT('',(5.50099985471368,0.103773028440595,0.));
#792=CARTESIAN_POINT('',(5.50099985471368,16.759,1.));
#793=CARTESIAN_POINT('',(5.50099985471368,16.759,0.361));
#794=CARTESIAN_POINT('',(5.50099985471368,-16.465,1.));
#795=CARTESIAN_POINT('',(5.50099985471368,16.5999996457249,1.));
#796=CARTESIAN_POINT('',(5.50099985471368,-16.465,0.361));
#797=CARTESIAN_POINT('Origin',(-10.5,-23.,0.));
#798=CARTESIAN_POINT('',(5.50058260526618,-32.9924532345686,0.));
#799=CARTESIAN_POINT('',(-2.36220869736691,-32.9924532345686,0.));
#800=CARTESIAN_POINT('',(5.50058260526617,-16.465,0.));
#801=CARTESIAN_POINT('',(5.50058260526618,-27.9965958232578,0.));
#802=CARTESIAN_POINT('',(4.495,-16.465,0.));
#803=CARTESIAN_POINT('',(-2.675,-16.465,0.));
#804=CARTESIAN_POINT('',(4.495,16.759,0.));
#805=CARTESIAN_POINT('',(4.495,-17.,0.));
#806=CARTESIAN_POINT('',(5.50058260526617,16.759,0.));
#807=CARTESIAN_POINT('',(-2.175,16.759,0.));
#808=CARTESIAN_POINT('',(5.50058260526618,32.9924532345686,0.));
#809=CARTESIAN_POINT('',(5.50058260526618,-27.9965958232578,0.));
#810=CARTESIAN_POINT('',(5.50099985471368,32.9924532345686,0.));
#811=CARTESIAN_POINT('',(-2.36220869736691,32.9924532345686,0.));
#812=CARTESIAN_POINT('',(5.501,33.,0.));
#813=CARTESIAN_POINT('',(5.50099985471368,5.09999964572489,0.));
#814=CARTESIAN_POINT('',(-5.501,33.,0.));
#815=CARTESIAN_POINT('',(-10.5,33.,0.));
#816=CARTESIAN_POINT('',(-10.5,28.001,0.));
#817=CARTESIAN_POINT('Origin',(-5.501,28.001,0.));
#818=CARTESIAN_POINT('',(-10.5,-28.001,0.));
#819=CARTESIAN_POINT('',(-10.5,-23.,0.));
#820=CARTESIAN_POINT('',(-5.501,-33.,0.));
#821=CARTESIAN_POINT('Origin',(-5.501,-28.001,0.));
#822=CARTESIAN_POINT('',(-10.5,-33.,0.));
#823=CARTESIAN_POINT('',(4.5,-25.4,0.));
#824=CARTESIAN_POINT('Origin',(0.,-25.4,0.));
#825=CARTESIAN_POINT('',(-2.1844,-2.67526886060798E-16,0.));
#826=CARTESIAN_POINT('Origin',(0.,0.,0.));
#827=CARTESIAN_POINT('',(4.5,25.4,0.));
#828=CARTESIAN_POINT('Origin',(0.,25.4,0.));
#829=CARTESIAN_POINT('Origin',(5.77558260526618,-32.9924532345686,-1.778));
#830=CARTESIAN_POINT('',(5.50058260526618,-32.9924532345686,-1.778));
#831=CARTESIAN_POINT('',(5.77558260526618,-32.9924532345686,-1.778));
#832=CARTESIAN_POINT('',(5.50058260526618,-32.9924532345686,-8.));
#833=CARTESIAN_POINT('Origin',(5.65,0.,1.));
#834=CARTESIAN_POINT('',(4.495,16.759,1.));
#835=CARTESIAN_POINT('',(5.15,16.759,1.));
#836=CARTESIAN_POINT('',(4.495,-16.465,1.));
#837=CARTESIAN_POINT('',(4.495,-11.,1.));
#838=CARTESIAN_POINT('',(5.15,-16.465,1.));
#839=CARTESIAN_POINT('Origin',(6.15,16.759,0.));
#840=CARTESIAN_POINT('',(-2.175,16.759,0.));
#841=CARTESIAN_POINT('',(4.495,16.759,0.));
#842=CARTESIAN_POINT('Origin',(8.04888260526618,-3.02119164651553,-1.778));
#843=CARTESIAN_POINT('',(10.4999998975862,-28.001,-1.778));
#844=CARTESIAN_POINT('Origin',(5.501,-28.001,-1.778));
#845=CARTESIAN_POINT('',(10.4999998975862,28.001,-1.778));
#846=CARTESIAN_POINT('',(10.5,-13.0105958232578,-1.778));
#847=CARTESIAN_POINT('',(5.50099985471368,33.,-1.778));
#848=CARTESIAN_POINT('Origin',(5.501,28.001,-1.778));
#849=CARTESIAN_POINT('',(5.50099985471368,32.9924532345686,-1.778));
#850=CARTESIAN_POINT('',(5.50099985471368,33.1999992914498,-1.778));
#851=CARTESIAN_POINT('',(5.50058260526618,32.9924532345686,-1.778));
#852=CARTESIAN_POINT('',(5.77558260526618,32.9924532345686,-1.778));
#853=CARTESIAN_POINT('',(5.50058260526618,-18.0071916465155,-1.778));
#854=CARTESIAN_POINT('Origin',(5.50099985471368,33.1999992914498,0.722));
#855=CARTESIAN_POINT('',(5.501,33.,-8.));
#856=CARTESIAN_POINT('',(5.50099985471368,32.9924532345686,0.361000000000002));
#857=CARTESIAN_POINT('Origin',(5.501,28.001,-8.));
#858=CARTESIAN_POINT('',(10.5,28.001,-8.));
#859=CARTESIAN_POINT('',(10.5,28.001,-8.));
#860=CARTESIAN_POINT('',(5.501,33.,-8.));
#861=CARTESIAN_POINT('Origin',(5.501,28.001,-8.));
#862=CARTESIAN_POINT('',(5.501,33.,-8.));
#863=CARTESIAN_POINT('Origin',(5.77558260526617,-32.9924532345686,0.));
#864=CARTESIAN_POINT('',(-2.675,-16.465,0.));
#865=CARTESIAN_POINT('',(5.50058260526617,-13.0105958232578,0.));
#866=CARTESIAN_POINT('Origin',(5.77558260526618,32.9924532345686,4.44089209850063E-15));
#867=CARTESIAN_POINT('',(5.50058260526618,32.9924532345686,-8.));
#868=CARTESIAN_POINT('Origin',(5.50058260526618,-32.9931916465155,2.54));
#869=CARTESIAN_POINT('Origin',(5.501,-28.001,-8.));
#870=CARTESIAN_POINT('',(5.501,-33.,-8.));
#871=CARTESIAN_POINT('',(5.501,-33.,-8.));
#872=CARTESIAN_POINT('',(10.5,-28.001,-8.));
#873=CARTESIAN_POINT('Origin',(5.501,-28.001,-8.));
#874=CARTESIAN_POINT('',(10.4999998975862,-28.001,-2.54));
#875=CARTESIAN_POINT('Origin',(5.15,-16.465,0.));
#876=CARTESIAN_POINT('',(4.495,-16.465,0.));
#877=CARTESIAN_POINT('Origin',(-5.501,-28.001,-8.));
#878=CARTESIAN_POINT('',(-10.5,-28.001,-8.));
#879=CARTESIAN_POINT('',(-5.501,-33.,-8.));
#880=CARTESIAN_POINT('Origin',(-5.501,-28.001,-8.));
#881=CARTESIAN_POINT('',(-5.501,-33.,-8.));
#882=CARTESIAN_POINT('',(-10.5,-28.001,-8.));
#883=CARTESIAN_POINT('Origin',(-10.5,-23.,-8.));
#884=CARTESIAN_POINT('',(-10.5,28.001,-8.));
#885=CARTESIAN_POINT('',(-10.5,28.001,-8.));
#886=CARTESIAN_POINT('',(-10.5,-23.,-8.));
#887=CARTESIAN_POINT('Origin',(10.5,-23.,-8.));
#888=CARTESIAN_POINT('',(10.5,-23.,-8.));
#889=CARTESIAN_POINT('Origin',(-10.5,-33.,-8.));
#890=CARTESIAN_POINT('',(-10.5,-33.,-8.));
#891=CARTESIAN_POINT('Origin',(-10.5,33.,-8.));
#892=CARTESIAN_POINT('',(-5.501,33.,-8.));
#893=CARTESIAN_POINT('',(-10.5,33.,-8.));
#894=CARTESIAN_POINT('',(-5.501,33.,-8.));
#895=CARTESIAN_POINT('Origin',(-10.5,-23.,-8.));
#896=CARTESIAN_POINT('Origin',(-5.501,28.001,-8.));
#897=CARTESIAN_POINT('',(2.1844,-25.4,-8.));
#898=CARTESIAN_POINT('Origin',(0.,-25.4,-8.));
#899=CARTESIAN_POINT('',(-4.5,-5.51045754165758E-16,-8.));
#900=CARTESIAN_POINT('Origin',(0.,0.,-8.));
#901=CARTESIAN_POINT('',(2.1844,25.4,-8.));
#902=CARTESIAN_POINT('Origin',(0.,25.4,-8.));
#903=CARTESIAN_POINT('Origin',(-5.501,28.001,-8.));
#904=CARTESIAN_POINT('Origin',(4.495,11.,0.));
#905=CARTESIAN_POINT('Origin',(0.,-25.4,0.));
#906=CARTESIAN_POINT('',(4.5,-25.4,-4.4));
#907=CARTESIAN_POINT('',(4.5,-25.4,0.));
#908=CARTESIAN_POINT('Origin',(0.,-25.4,-4.4));
#909=CARTESIAN_POINT('Origin',(0.,0.,-8.));
#910=CARTESIAN_POINT('',(-2.1844,-2.67526886060798E-16,-3.6));
#911=CARTESIAN_POINT('Origin',(0.,0.,-3.6));
#912=CARTESIAN_POINT('',(-2.1844,-2.67511846805748E-16,-8.));
#913=CARTESIAN_POINT('Origin',(0.,25.4,0.));
#914=CARTESIAN_POINT('',(4.5,25.4,-4.4));
#915=CARTESIAN_POINT('',(4.5,25.4,0.));
#916=CARTESIAN_POINT('Origin',(0.,25.4,-4.4));
#917=CARTESIAN_POINT('Origin',(0.,-25.4,-4.4));
#918=CARTESIAN_POINT('',(2.1844,-25.4,-4.4));
#919=CARTESIAN_POINT('Origin',(0.,-25.4,-4.4));
#920=CARTESIAN_POINT('Origin',(0.,0.,-3.6));
#921=CARTESIAN_POINT('',(-4.5,-5.51045754165758E-16,-3.6));
#922=CARTESIAN_POINT('Origin',(0.,0.,-3.6));
#923=CARTESIAN_POINT('Origin',(0.,25.4,-4.4));
#924=CARTESIAN_POINT('',(2.1844,25.4,-4.4));
#925=CARTESIAN_POINT('Origin',(0.,25.4,-4.4));
#926=CARTESIAN_POINT('Origin',(0.,-25.4,0.));
#927=CARTESIAN_POINT('',(2.1844,-25.4,0.));
#928=CARTESIAN_POINT('Origin',(0.,0.,-8.));
#929=CARTESIAN_POINT('',(-4.5,-5.51091059616309E-16,-8.));
#930=CARTESIAN_POINT('Origin',(0.,25.4,0.));
#931=CARTESIAN_POINT('',(2.1844,25.4,0.));
#932=UNCERTAINTY_MEASURE_WITH_UNIT(LENGTH_MEASURE(0.01),#936,
'DISTANCE_ACCURACY_VALUE',
'Maximum model space distance between geometric entities at asserted c
onnectivities');
#933=UNCERTAINTY_MEASURE_WITH_UNIT(LENGTH_MEASURE(0.01),#936,
'DISTANCE_ACCURACY_VALUE',
'Maximum model space distance between geometric entities at asserted c
onnectivities');
#934=(
GEOMETRIC_REPRESENTATION_CONTEXT(3)
GLOBAL_UNCERTAINTY_ASSIGNED_CONTEXT((#932))
GLOBAL_UNIT_ASSIGNED_CONTEXT((#936,#938,#939))
REPRESENTATION_CONTEXT('','3D')
);
#935=(
GEOMETRIC_REPRESENTATION_CONTEXT(3)
GLOBAL_UNCERTAINTY_ASSIGNED_CONTEXT((#933))
GLOBAL_UNIT_ASSIGNED_CONTEXT((#936,#938,#939))
REPRESENTATION_CONTEXT('','3D')
);
#936=(
LENGTH_UNIT()
NAMED_UNIT(*)
SI_UNIT(.MILLI.,.METRE.)
);
#937=(
LENGTH_UNIT()
NAMED_UNIT(*)
SI_UNIT($,.METRE.)
);
#938=(
NAMED_UNIT(*)
PLANE_ANGLE_UNIT()
SI_UNIT($,.RADIAN.)
);
#939=(
NAMED_UNIT(*)
SI_UNIT($,.STERADIAN.)
SOLID_ANGLE_UNIT()
);
#940=SHAPE_DEFINITION_REPRESENTATION(#941,#942);
#941=PRODUCT_DEFINITION_SHAPE('',$,#944);
#942=SHAPE_REPRESENTATION('',(#568),#934);
#943=PRODUCT_DEFINITION_CONTEXT('part definition',#948,'design');
#944=PRODUCT_DEFINITION('Surface Adapter','CP13_Adapter',#945,#943);
#945=PRODUCT_DEFINITION_FORMATION('',$,#950);
#946=PRODUCT_RELATED_PRODUCT_CATEGORY('CP13_Adapter','CP13_Adapter',(#950));
#947=APPLICATION_PROTOCOL_DEFINITION('international standard',
'automotive_design',2009,#948);
#948=APPLICATION_CONTEXT(
'Core Data for Automotive Mechanical Design Process');
#949=PRODUCT_CONTEXT('part definition',#948,'mechanical');
#950=PRODUCT('Surface Adapter','CP13_Adapter','FreeCAD Model',(#949));
#951=PRESENTATION_STYLE_ASSIGNMENT((#953));
#952=PRESENTATION_STYLE_ASSIGNMENT((#954));
#953=SURFACE_STYLE_USAGE(.BOTH.,#955);
#954=SURFACE_STYLE_USAGE(.BOTH.,#956);
#955=SURFACE_SIDE_STYLE('',(#957));
#956=SURFACE_SIDE_STYLE('',(#958));
#957=SURFACE_STYLE_FILL_AREA(#959);
#958=SURFACE_STYLE_FILL_AREA(#960);
#959=FILL_AREA_STYLE('Steel - Satin',(#961));
#960=FILL_AREA_STYLE('Opaque(153,229,153)',(#962));
#961=FILL_AREA_STYLE_COLOUR('Steel - Satin',#963);
#962=FILL_AREA_STYLE_COLOUR('Opaque(153,229,153)',#964);
#963=COLOUR_RGB('Steel - Satin',0.627450980392157,0.627450980392157,0.627450980392157);
#964=COLOUR_RGB('Opaque(153,229,153)',0.6,0.898039215686275,0.6);
ENDSEC;
END-ISO-10303-21;
