ISO-10303-21;
HEADER;
/* Generated by software containing ST-Developer
 * from STEP Tools, Inc. (www.steptools.com) 
 */

FILE_DESCRIPTION(
/* description */ (''),
/* implementation_level */ '2;1');

FILE_NAME(
/* name */ 'shutter-adapter.step',
/* time_stamp */ '2026-08-21T18:23:20-05:00',
/* author */ (''),
/* organization */ (''),
/* preprocessor_version */ 'ST-DEVELOPER v20.1',
/* originating_system */ 'Autodesk Translation Framework v15.8.0.0',
/* authorisation */ '');

FILE_SCHEMA (('AUTOMOTIVE_DESIGN { 1 0 10303 214 3 1 1 }'));
ENDSEC;

DATA;
#10=MECHANICAL_DESIGN_GEOMETRIC_PRESENTATION_REPRESENTATION('',(#13),#1075);
#11=SHAPE_REPRESENTATION_RELATIONSHIP('SRR','None',#1081,#12);
#12=ADVANCED_BREP_SHAPE_REPRESENTATION('',(#14),#1074);
#13=STYLED_ITEM('',(#1091),#14);
#14=MANIFOLD_SOLID_BREP('Body1',#635);
#15=CYLINDRICAL_SURFACE('',#646,2.15);
#16=CYLINDRICAL_SURFACE('',#648,3.5);
#17=CYLINDRICAL_SURFACE('',#670,2.15);
#18=CYLINDRICAL_SURFACE('',#671,3.5);
#19=CYLINDRICAL_SURFACE('',#672,4.99999999999999);
#20=CYLINDRICAL_SURFACE('',#673,4.99999999999999);
#21=CYLINDRICAL_SURFACE('',#674,4.99999999999999);
#22=CYLINDRICAL_SURFACE('',#675,5.);
#23=CYLINDRICAL_SURFACE('',#685,3.75);
#24=CYLINDRICAL_SURFACE('',#689,3.75);
#25=CYLINDRICAL_SURFACE('',#693,3.75);
#26=CYLINDRICAL_SURFACE('',#697,3.75);
#27=CYLINDRICAL_SURFACE('',#701,2.1525);
#28=CYLINDRICAL_SURFACE('',#702,2.1525);
#29=CYLINDRICAL_SURFACE('',#703,2.1525);
#30=CYLINDRICAL_SURFACE('',#704,2.1525);
#31=FACE_BOUND('',#120,.T.);
#32=FACE_BOUND('',#124,.T.);
#33=FACE_BOUND('',#125,.T.);
#34=FACE_BOUND('',#126,.T.);
#35=FACE_BOUND('',#127,.T.);
#36=FACE_BOUND('',#128,.T.);
#37=FACE_BOUND('',#130,.T.);
#38=FACE_BOUND('',#131,.T.);
#39=FACE_BOUND('',#132,.T.);
#40=FACE_BOUND('',#133,.T.);
#41=FACE_BOUND('',#134,.T.);
#42=FACE_BOUND('',#135,.T.);
#43=FACE_BOUND('',#153,.T.);
#44=FACE_BOUND('',#156,.T.);
#45=FACE_BOUND('',#159,.T.);
#46=FACE_BOUND('',#162,.T.);
#47=CIRCLE('',#642,3.5);
#48=CIRCLE('',#643,3.5);
#49=CIRCLE('',#644,2.15);
#50=CIRCLE('',#645,2.15);
#51=CIRCLE('',#647,2.15);
#52=CIRCLE('',#649,3.5);
#53=CIRCLE('',#651,4.99999999999999);
#54=CIRCLE('',#652,4.99999999999999);
#55=CIRCLE('',#653,5.);
#56=CIRCLE('',#654,4.99999999999999);
#57=CIRCLE('',#655,3.5);
#58=CIRCLE('',#656,2.1525);
#59=CIRCLE('',#657,2.1525);
#60=CIRCLE('',#658,2.1525);
#61=CIRCLE('',#659,2.1525);
#62=CIRCLE('',#661,4.99999999999999);
#63=CIRCLE('',#662,4.99999999999999);
#64=CIRCLE('',#663,5.);
#65=CIRCLE('',#664,4.99999999999999);
#66=CIRCLE('',#665,2.15);
#67=CIRCLE('',#666,3.75);
#68=CIRCLE('',#667,3.75);
#69=CIRCLE('',#668,3.75);
#70=CIRCLE('',#669,3.75);
#71=CIRCLE('',#686,3.75);
#72=CIRCLE('',#688,2.1525);
#73=CIRCLE('',#690,3.75);
#74=CIRCLE('',#692,2.1525);
#75=CIRCLE('',#694,3.75);
#76=CIRCLE('',#696,2.1525);
#77=CIRCLE('',#698,3.75);
#78=CIRCLE('',#700,2.1525);
#79=FACE_OUTER_BOUND('',#115,.T.);
#80=FACE_OUTER_BOUND('',#116,.T.);
#81=FACE_OUTER_BOUND('',#117,.T.);
#82=FACE_OUTER_BOUND('',#118,.T.);
#83=FACE_OUTER_BOUND('',#119,.T.);
#84=FACE_OUTER_BOUND('',#121,.T.);
#85=FACE_OUTER_BOUND('',#122,.T.);
#86=FACE_OUTER_BOUND('',#123,.T.);
#87=FACE_OUTER_BOUND('',#129,.T.);
#88=FACE_OUTER_BOUND('',#136,.T.);
#89=FACE_OUTER_BOUND('',#137,.T.);
#90=FACE_OUTER_BOUND('',#138,.T.);
#91=FACE_OUTER_BOUND('',#139,.T.);
#92=FACE_OUTER_BOUND('',#140,.T.);
#93=FACE_OUTER_BOUND('',#141,.T.);
#94=FACE_OUTER_BOUND('',#142,.T.);
#95=FACE_OUTER_BOUND('',#143,.T.);
#96=FACE_OUTER_BOUND('',#144,.T.);
#97=FACE_OUTER_BOUND('',#145,.T.);
#98=FACE_OUTER_BOUND('',#146,.T.);
#99=FACE_OUTER_BOUND('',#147,.T.);
#100=FACE_OUTER_BOUND('',#148,.T.);
#101=FACE_OUTER_BOUND('',#149,.T.);
#102=FACE_OUTER_BOUND('',#150,.T.);
#103=FACE_OUTER_BOUND('',#151,.T.);
#104=FACE_OUTER_BOUND('',#152,.T.);
#105=FACE_OUTER_BOUND('',#154,.T.);
#106=FACE_OUTER_BOUND('',#155,.T.);
#107=FACE_OUTER_BOUND('',#157,.T.);
#108=FACE_OUTER_BOUND('',#158,.T.);
#109=FACE_OUTER_BOUND('',#160,.T.);
#110=FACE_OUTER_BOUND('',#161,.T.);
#111=FACE_OUTER_BOUND('',#163,.T.);
#112=FACE_OUTER_BOUND('',#164,.T.);
#113=FACE_OUTER_BOUND('',#165,.T.);
#114=FACE_OUTER_BOUND('',#166,.T.);
#115=EDGE_LOOP('',(#411,#412,#413,#414));
#116=EDGE_LOOP('',(#415,#416,#417,#418));
#117=EDGE_LOOP('',(#419,#420,#421,#422));
#118=EDGE_LOOP('',(#423,#424,#425,#426));
#119=EDGE_LOOP('',(#427,#428,#429,#430));
#120=EDGE_LOOP('',(#431,#432,#433,#434));
#121=EDGE_LOOP('',(#435,#436,#437,#438));
#122=EDGE_LOOP('',(#439,#440,#441,#442));
#123=EDGE_LOOP('',(#443,#444,#445,#446,#447,#448,#449,#450));
#124=EDGE_LOOP('',(#451,#452,#453,#454));
#125=EDGE_LOOP('',(#455));
#126=EDGE_LOOP('',(#456));
#127=EDGE_LOOP('',(#457));
#128=EDGE_LOOP('',(#458));
#129=EDGE_LOOP('',(#459,#460,#461,#462,#463,#464,#465,#466));
#130=EDGE_LOOP('',(#467,#468,#469,#470));
#131=EDGE_LOOP('',(#471));
#132=EDGE_LOOP('',(#472));
#133=EDGE_LOOP('',(#473));
#134=EDGE_LOOP('',(#474));
#135=EDGE_LOOP('',(#475,#476,#477,#478));
#136=EDGE_LOOP('',(#479,#480,#481,#482));
#137=EDGE_LOOP('',(#483,#484,#485,#486));
#138=EDGE_LOOP('',(#487,#488,#489,#490));
#139=EDGE_LOOP('',(#491,#492,#493,#494));
#140=EDGE_LOOP('',(#495,#496,#497,#498));
#141=EDGE_LOOP('',(#499,#500,#501,#502));
#142=EDGE_LOOP('',(#503,#504,#505,#506));
#143=EDGE_LOOP('',(#507,#508,#509,#510));
#144=EDGE_LOOP('',(#511,#512,#513,#514));
#145=EDGE_LOOP('',(#515,#516,#517,#518));
#146=EDGE_LOOP('',(#519,#520,#521,#522));
#147=EDGE_LOOP('',(#523,#524,#525,#526));
#148=EDGE_LOOP('',(#527,#528,#529,#530));
#149=EDGE_LOOP('',(#531,#532,#533,#534));
#150=EDGE_LOOP('',(#535,#536,#537,#538));
#151=EDGE_LOOP('',(#539,#540,#541,#542));
#152=EDGE_LOOP('',(#543));
#153=EDGE_LOOP('',(#544));
#154=EDGE_LOOP('',(#545,#546,#547,#548));
#155=EDGE_LOOP('',(#549));
#156=EDGE_LOOP('',(#550));
#157=EDGE_LOOP('',(#551,#552,#553,#554));
#158=EDGE_LOOP('',(#555));
#159=EDGE_LOOP('',(#556));
#160=EDGE_LOOP('',(#557,#558,#559,#560));
#161=EDGE_LOOP('',(#561));
#162=EDGE_LOOP('',(#562));
#163=EDGE_LOOP('',(#563,#564,#565,#566));
#164=EDGE_LOOP('',(#567,#568,#569,#570));
#165=EDGE_LOOP('',(#571,#572,#573,#574));
#166=EDGE_LOOP('',(#575,#576,#577,#578));
#167=LINE('',#899,#219);
#168=LINE('',#901,#220);
#169=LINE('',#903,#221);
#170=LINE('',#904,#222);
#171=LINE('',#908,#223);
#172=LINE('',#910,#224);
#173=LINE('',#912,#225);
#174=LINE('',#913,#226);
#175=LINE('',#917,#227);
#176=LINE('',#919,#228);
#177=LINE('',#921,#229);
#178=LINE('',#922,#230);
#179=LINE('',#926,#231);
#180=LINE('',#928,#232);
#181=LINE('',#930,#233);
#182=LINE('',#931,#234);
#183=LINE('',#946,#235);
#184=LINE('',#950,#236);
#185=LINE('',#954,#237);
#186=LINE('',#957,#238);
#187=LINE('',#972,#239);
#188=LINE('',#976,#240);
#189=LINE('',#980,#241);
#190=LINE('',#983,#242);
#191=LINE('',#995,#243);
#192=LINE('',#997,#244);
#193=LINE('',#999,#245);
#194=LINE('',#1000,#246);
#195=LINE('',#1004,#247);
#196=LINE('',#1005,#248);
#197=LINE('',#1007,#249);
#198=LINE('',#1008,#250);
#199=LINE('',#1010,#251);
#200=LINE('',#1011,#252);
#201=LINE('',#1013,#253);
#202=LINE('',#1014,#254);
#203=LINE('',#1020,#255);
#204=LINE('',#1022,#256);
#205=LINE('',#1023,#257);
#206=LINE('',#1026,#258);
#207=LINE('',#1027,#259);
#208=LINE('',#1030,#260);
#209=LINE('',#1031,#261);
#210=LINE('',#1033,#262);
#211=LINE('',#1038,#263);
#212=LINE('',#1045,#264);
#213=LINE('',#1052,#265);
#214=LINE('',#1059,#266);
#215=LINE('',#1065,#267);
#216=LINE('',#1067,#268);
#217=LINE('',#1069,#269);
#218=LINE('',#1071,#270);
#219=VECTOR('',#709,10.);
#220=VECTOR('',#710,10.);
#221=VECTOR('',#711,10.);
#222=VECTOR('',#712,10.);
#223=VECTOR('',#715,10.);
#224=VECTOR('',#716,10.);
#225=VECTOR('',#717,10.);
#226=VECTOR('',#718,10.);
#227=VECTOR('',#721,10.);
#228=VECTOR('',#722,10.);
#229=VECTOR('',#723,10.);
#230=VECTOR('',#724,10.);
#231=VECTOR('',#727,10.);
#232=VECTOR('',#728,10.);
#233=VECTOR('',#729,10.);
#234=VECTOR('',#730,10.);
#235=VECTOR('',#753,10.);
#236=VECTOR('',#756,10.);
#237=VECTOR('',#759,10.);
#238=VECTOR('',#762,10.);
#239=VECTOR('',#777,10.);
#240=VECTOR('',#780,10.);
#241=VECTOR('',#783,10.);
#242=VECTOR('',#786,10.);
#243=VECTOR('',#797,10.);
#244=VECTOR('',#798,10.);
#245=VECTOR('',#799,10.);
#246=VECTOR('',#800,10.);
#247=VECTOR('',#807,10.);
#248=VECTOR('',#808,10.);
#249=VECTOR('',#811,10.);
#250=VECTOR('',#812,10.);
#251=VECTOR('',#815,10.);
#252=VECTOR('',#816,10.);
#253=VECTOR('',#819,10.);
#254=VECTOR('',#820,10.);
#255=VECTOR('',#829,10.);
#256=VECTOR('',#830,10.);
#257=VECTOR('',#831,10.);
#258=VECTOR('',#834,10.);
#259=VECTOR('',#835,10.);
#260=VECTOR('',#838,10.);
#261=VECTOR('',#839,10.);
#262=VECTOR('',#842,10.);
#263=VECTOR('',#849,3.75);
#264=VECTOR('',#858,3.75);
#265=VECTOR('',#867,3.75);
#266=VECTOR('',#876,3.75);
#267=VECTOR('',#885,2.1525);
#268=VECTOR('',#888,2.1525);
#269=VECTOR('',#891,2.1525);
#270=VECTOR('',#894,2.1525);
#271=VERTEX_POINT('',#897);
#272=VERTEX_POINT('',#898);
#273=VERTEX_POINT('',#900);
#274=VERTEX_POINT('',#902);
#275=VERTEX_POINT('',#906);
#276=VERTEX_POINT('',#907);
#277=VERTEX_POINT('',#909);
#278=VERTEX_POINT('',#911);
#279=VERTEX_POINT('',#915);
#280=VERTEX_POINT('',#916);
#281=VERTEX_POINT('',#918);
#282=VERTEX_POINT('',#920);
#283=VERTEX_POINT('',#924);
#284=VERTEX_POINT('',#925);
#285=VERTEX_POINT('',#927);
#286=VERTEX_POINT('',#929);
#287=VERTEX_POINT('',#942);
#288=VERTEX_POINT('',#943);
#289=VERTEX_POINT('',#945);
#290=VERTEX_POINT('',#947);
#291=VERTEX_POINT('',#949);
#292=VERTEX_POINT('',#951);
#293=VERTEX_POINT('',#953);
#294=VERTEX_POINT('',#955);
#295=VERTEX_POINT('',#959);
#296=VERTEX_POINT('',#961);
#297=VERTEX_POINT('',#963);
#298=VERTEX_POINT('',#965);
#299=VERTEX_POINT('',#968);
#300=VERTEX_POINT('',#969);
#301=VERTEX_POINT('',#971);
#302=VERTEX_POINT('',#973);
#303=VERTEX_POINT('',#975);
#304=VERTEX_POINT('',#977);
#305=VERTEX_POINT('',#979);
#306=VERTEX_POINT('',#981);
#307=VERTEX_POINT('',#985);
#308=VERTEX_POINT('',#987);
#309=VERTEX_POINT('',#989);
#310=VERTEX_POINT('',#991);
#311=VERTEX_POINT('',#993);
#312=VERTEX_POINT('',#994);
#313=VERTEX_POINT('',#996);
#314=VERTEX_POINT('',#998);
#315=VERTEX_POINT('',#1019);
#316=VERTEX_POINT('',#1021);
#317=VERTEX_POINT('',#1025);
#318=VERTEX_POINT('',#1029);
#319=VERTEX_POINT('',#1037);
#320=VERTEX_POINT('',#1041);
#321=VERTEX_POINT('',#1044);
#322=VERTEX_POINT('',#1048);
#323=VERTEX_POINT('',#1051);
#324=VERTEX_POINT('',#1055);
#325=VERTEX_POINT('',#1058);
#326=VERTEX_POINT('',#1062);
#327=EDGE_CURVE('',#271,#272,#167,.T.);
#328=EDGE_CURVE('',#271,#273,#168,.T.);
#329=EDGE_CURVE('',#274,#273,#169,.T.);
#330=EDGE_CURVE('',#274,#272,#170,.T.);
#331=EDGE_CURVE('',#275,#276,#171,.T.);
#332=EDGE_CURVE('',#277,#275,#172,.T.);
#333=EDGE_CURVE('',#277,#278,#173,.T.);
#334=EDGE_CURVE('',#276,#278,#174,.T.);
#335=EDGE_CURVE('',#279,#280,#175,.T.);
#336=EDGE_CURVE('',#281,#280,#176,.T.);
#337=EDGE_CURVE('',#281,#282,#177,.T.);
#338=EDGE_CURVE('',#279,#282,#178,.T.);
#339=EDGE_CURVE('',#283,#284,#179,.T.);
#340=EDGE_CURVE('',#285,#283,#180,.T.);
#341=EDGE_CURVE('',#285,#286,#181,.T.);
#342=EDGE_CURVE('',#284,#286,#182,.T.);
#343=EDGE_CURVE('',#283,#276,#47,.T.);
#344=EDGE_CURVE('',#275,#284,#48,.T.);
#345=EDGE_CURVE('',#279,#272,#49,.T.);
#346=EDGE_CURVE('',#274,#280,#50,.T.);
#347=EDGE_CURVE('',#271,#282,#51,.T.);
#348=EDGE_CURVE('',#285,#278,#52,.T.);
#349=EDGE_CURVE('',#287,#288,#53,.T.);
#350=EDGE_CURVE('',#288,#289,#183,.T.);
#351=EDGE_CURVE('',#289,#290,#54,.T.);
#352=EDGE_CURVE('',#291,#290,#184,.T.);
#353=EDGE_CURVE('',#291,#292,#55,.T.);
#354=EDGE_CURVE('',#293,#292,#185,.T.);
#355=EDGE_CURVE('',#293,#294,#56,.T.);
#356=EDGE_CURVE('',#287,#294,#186,.T.);
#357=EDGE_CURVE('',#277,#286,#57,.F.);
#358=EDGE_CURVE('',#295,#295,#58,.T.);
#359=EDGE_CURVE('',#296,#296,#59,.T.);
#360=EDGE_CURVE('',#297,#297,#60,.T.);
#361=EDGE_CURVE('',#298,#298,#61,.T.);
#362=EDGE_CURVE('',#299,#300,#62,.T.);
#363=EDGE_CURVE('',#301,#300,#187,.T.);
#364=EDGE_CURVE('',#301,#302,#63,.T.);
#365=EDGE_CURVE('',#303,#302,#188,.T.);
#366=EDGE_CURVE('',#303,#304,#64,.T.);
#367=EDGE_CURVE('',#305,#304,#189,.T.);
#368=EDGE_CURVE('',#305,#306,#65,.T.);
#369=EDGE_CURVE('',#306,#299,#190,.T.);
#370=EDGE_CURVE('',#281,#273,#66,.T.);
#371=EDGE_CURVE('',#307,#307,#67,.T.);
#372=EDGE_CURVE('',#308,#308,#68,.T.);
#373=EDGE_CURVE('',#309,#309,#69,.T.);
#374=EDGE_CURVE('',#310,#310,#70,.T.);
#375=EDGE_CURVE('',#311,#312,#191,.T.);
#376=EDGE_CURVE('',#312,#313,#192,.T.);
#377=EDGE_CURVE('',#313,#314,#193,.T.);
#378=EDGE_CURVE('',#314,#311,#194,.T.);
#379=EDGE_CURVE('',#288,#299,#195,.T.);
#380=EDGE_CURVE('',#287,#300,#196,.T.);
#381=EDGE_CURVE('',#290,#305,#197,.T.);
#382=EDGE_CURVE('',#289,#306,#198,.T.);
#383=EDGE_CURVE('',#294,#301,#199,.T.);
#384=EDGE_CURVE('',#293,#302,#200,.T.);
#385=EDGE_CURVE('',#292,#303,#201,.T.);
#386=EDGE_CURVE('',#291,#304,#202,.T.);
#387=EDGE_CURVE('',#311,#315,#203,.T.);
#388=EDGE_CURVE('',#316,#315,#204,.T.);
#389=EDGE_CURVE('',#312,#316,#205,.T.);
#390=EDGE_CURVE('',#317,#316,#206,.T.);
#391=EDGE_CURVE('',#313,#317,#207,.T.);
#392=EDGE_CURVE('',#318,#317,#208,.T.);
#393=EDGE_CURVE('',#314,#318,#209,.T.);
#394=EDGE_CURVE('',#315,#318,#210,.T.);
#395=EDGE_CURVE('',#310,#319,#211,.T.);
#396=EDGE_CURVE('',#319,#319,#71,.T.);
#397=EDGE_CURVE('',#320,#320,#72,.T.);
#398=EDGE_CURVE('',#309,#321,#212,.T.);
#399=EDGE_CURVE('',#321,#321,#73,.T.);
#400=EDGE_CURVE('',#322,#322,#74,.T.);
#401=EDGE_CURVE('',#308,#323,#213,.T.);
#402=EDGE_CURVE('',#323,#323,#75,.T.);
#403=EDGE_CURVE('',#324,#324,#76,.T.);
#404=EDGE_CURVE('',#307,#325,#214,.T.);
#405=EDGE_CURVE('',#325,#325,#77,.T.);
#406=EDGE_CURVE('',#326,#326,#78,.T.);
#407=EDGE_CURVE('',#295,#326,#215,.T.);
#408=EDGE_CURVE('',#296,#320,#216,.T.);
#409=EDGE_CURVE('',#297,#322,#217,.T.);
#410=EDGE_CURVE('',#298,#324,#218,.T.);
#411=ORIENTED_EDGE('',*,*,#327,.F.);
#412=ORIENTED_EDGE('',*,*,#328,.T.);
#413=ORIENTED_EDGE('',*,*,#329,.F.);
#414=ORIENTED_EDGE('',*,*,#330,.T.);
#415=ORIENTED_EDGE('',*,*,#331,.F.);
#416=ORIENTED_EDGE('',*,*,#332,.F.);
#417=ORIENTED_EDGE('',*,*,#333,.T.);
#418=ORIENTED_EDGE('',*,*,#334,.F.);
#419=ORIENTED_EDGE('',*,*,#335,.T.);
#420=ORIENTED_EDGE('',*,*,#336,.F.);
#421=ORIENTED_EDGE('',*,*,#337,.T.);
#422=ORIENTED_EDGE('',*,*,#338,.F.);
#423=ORIENTED_EDGE('',*,*,#339,.F.);
#424=ORIENTED_EDGE('',*,*,#340,.F.);
#425=ORIENTED_EDGE('',*,*,#341,.T.);
#426=ORIENTED_EDGE('',*,*,#342,.F.);
#427=ORIENTED_EDGE('',*,*,#331,.T.);
#428=ORIENTED_EDGE('',*,*,#343,.F.);
#429=ORIENTED_EDGE('',*,*,#339,.T.);
#430=ORIENTED_EDGE('',*,*,#344,.F.);
#431=ORIENTED_EDGE('',*,*,#345,.T.);
#432=ORIENTED_EDGE('',*,*,#330,.F.);
#433=ORIENTED_EDGE('',*,*,#346,.T.);
#434=ORIENTED_EDGE('',*,*,#335,.F.);
#435=ORIENTED_EDGE('',*,*,#345,.F.);
#436=ORIENTED_EDGE('',*,*,#338,.T.);
#437=ORIENTED_EDGE('',*,*,#347,.F.);
#438=ORIENTED_EDGE('',*,*,#327,.T.);
#439=ORIENTED_EDGE('',*,*,#334,.T.);
#440=ORIENTED_EDGE('',*,*,#348,.F.);
#441=ORIENTED_EDGE('',*,*,#340,.T.);
#442=ORIENTED_EDGE('',*,*,#343,.T.);
#443=ORIENTED_EDGE('',*,*,#349,.T.);
#444=ORIENTED_EDGE('',*,*,#350,.T.);
#445=ORIENTED_EDGE('',*,*,#351,.T.);
#446=ORIENTED_EDGE('',*,*,#352,.F.);
#447=ORIENTED_EDGE('',*,*,#353,.T.);
#448=ORIENTED_EDGE('',*,*,#354,.F.);
#449=ORIENTED_EDGE('',*,*,#355,.T.);
#450=ORIENTED_EDGE('',*,*,#356,.F.);
#451=ORIENTED_EDGE('',*,*,#333,.F.);
#452=ORIENTED_EDGE('',*,*,#357,.T.);
#453=ORIENTED_EDGE('',*,*,#341,.F.);
#454=ORIENTED_EDGE('',*,*,#348,.T.);
#455=ORIENTED_EDGE('',*,*,#358,.F.);
#456=ORIENTED_EDGE('',*,*,#359,.F.);
#457=ORIENTED_EDGE('',*,*,#360,.F.);
#458=ORIENTED_EDGE('',*,*,#361,.F.);
#459=ORIENTED_EDGE('',*,*,#362,.T.);
#460=ORIENTED_EDGE('',*,*,#363,.F.);
#461=ORIENTED_EDGE('',*,*,#364,.T.);
#462=ORIENTED_EDGE('',*,*,#365,.F.);
#463=ORIENTED_EDGE('',*,*,#366,.T.);
#464=ORIENTED_EDGE('',*,*,#367,.F.);
#465=ORIENTED_EDGE('',*,*,#368,.T.);
#466=ORIENTED_EDGE('',*,*,#369,.T.);
#467=ORIENTED_EDGE('',*,*,#347,.T.);
#468=ORIENTED_EDGE('',*,*,#337,.F.);
#469=ORIENTED_EDGE('',*,*,#370,.T.);
#470=ORIENTED_EDGE('',*,*,#328,.F.);
#471=ORIENTED_EDGE('',*,*,#371,.T.);
#472=ORIENTED_EDGE('',*,*,#372,.T.);
#473=ORIENTED_EDGE('',*,*,#373,.T.);
#474=ORIENTED_EDGE('',*,*,#374,.T.);
#475=ORIENTED_EDGE('',*,*,#375,.T.);
#476=ORIENTED_EDGE('',*,*,#376,.T.);
#477=ORIENTED_EDGE('',*,*,#377,.T.);
#478=ORIENTED_EDGE('',*,*,#378,.T.);
#479=ORIENTED_EDGE('',*,*,#336,.T.);
#480=ORIENTED_EDGE('',*,*,#346,.F.);
#481=ORIENTED_EDGE('',*,*,#329,.T.);
#482=ORIENTED_EDGE('',*,*,#370,.F.);
#483=ORIENTED_EDGE('',*,*,#332,.T.);
#484=ORIENTED_EDGE('',*,*,#344,.T.);
#485=ORIENTED_EDGE('',*,*,#342,.T.);
#486=ORIENTED_EDGE('',*,*,#357,.F.);
#487=ORIENTED_EDGE('',*,*,#362,.F.);
#488=ORIENTED_EDGE('',*,*,#379,.F.);
#489=ORIENTED_EDGE('',*,*,#349,.F.);
#490=ORIENTED_EDGE('',*,*,#380,.T.);
#491=ORIENTED_EDGE('',*,*,#368,.F.);
#492=ORIENTED_EDGE('',*,*,#381,.F.);
#493=ORIENTED_EDGE('',*,*,#351,.F.);
#494=ORIENTED_EDGE('',*,*,#382,.T.);
#495=ORIENTED_EDGE('',*,*,#364,.F.);
#496=ORIENTED_EDGE('',*,*,#383,.F.);
#497=ORIENTED_EDGE('',*,*,#355,.F.);
#498=ORIENTED_EDGE('',*,*,#384,.T.);
#499=ORIENTED_EDGE('',*,*,#366,.F.);
#500=ORIENTED_EDGE('',*,*,#385,.F.);
#501=ORIENTED_EDGE('',*,*,#353,.F.);
#502=ORIENTED_EDGE('',*,*,#386,.T.);
#503=ORIENTED_EDGE('',*,*,#379,.T.);
#504=ORIENTED_EDGE('',*,*,#369,.F.);
#505=ORIENTED_EDGE('',*,*,#382,.F.);
#506=ORIENTED_EDGE('',*,*,#350,.F.);
#507=ORIENTED_EDGE('',*,*,#380,.F.);
#508=ORIENTED_EDGE('',*,*,#356,.T.);
#509=ORIENTED_EDGE('',*,*,#383,.T.);
#510=ORIENTED_EDGE('',*,*,#363,.T.);
#511=ORIENTED_EDGE('',*,*,#384,.F.);
#512=ORIENTED_EDGE('',*,*,#354,.T.);
#513=ORIENTED_EDGE('',*,*,#385,.T.);
#514=ORIENTED_EDGE('',*,*,#365,.T.);
#515=ORIENTED_EDGE('',*,*,#375,.F.);
#516=ORIENTED_EDGE('',*,*,#387,.T.);
#517=ORIENTED_EDGE('',*,*,#388,.F.);
#518=ORIENTED_EDGE('',*,*,#389,.F.);
#519=ORIENTED_EDGE('',*,*,#376,.F.);
#520=ORIENTED_EDGE('',*,*,#389,.T.);
#521=ORIENTED_EDGE('',*,*,#390,.F.);
#522=ORIENTED_EDGE('',*,*,#391,.F.);
#523=ORIENTED_EDGE('',*,*,#377,.F.);
#524=ORIENTED_EDGE('',*,*,#391,.T.);
#525=ORIENTED_EDGE('',*,*,#392,.F.);
#526=ORIENTED_EDGE('',*,*,#393,.F.);
#527=ORIENTED_EDGE('',*,*,#378,.F.);
#528=ORIENTED_EDGE('',*,*,#393,.T.);
#529=ORIENTED_EDGE('',*,*,#394,.F.);
#530=ORIENTED_EDGE('',*,*,#387,.F.);
#531=ORIENTED_EDGE('',*,*,#394,.T.);
#532=ORIENTED_EDGE('',*,*,#392,.T.);
#533=ORIENTED_EDGE('',*,*,#390,.T.);
#534=ORIENTED_EDGE('',*,*,#388,.T.);
#535=ORIENTED_EDGE('',*,*,#381,.T.);
#536=ORIENTED_EDGE('',*,*,#367,.T.);
#537=ORIENTED_EDGE('',*,*,#386,.F.);
#538=ORIENTED_EDGE('',*,*,#352,.T.);
#539=ORIENTED_EDGE('',*,*,#374,.F.);
#540=ORIENTED_EDGE('',*,*,#395,.T.);
#541=ORIENTED_EDGE('',*,*,#396,.T.);
#542=ORIENTED_EDGE('',*,*,#395,.F.);
#543=ORIENTED_EDGE('',*,*,#396,.F.);
#544=ORIENTED_EDGE('',*,*,#397,.F.);
#545=ORIENTED_EDGE('',*,*,#373,.F.);
#546=ORIENTED_EDGE('',*,*,#398,.T.);
#547=ORIENTED_EDGE('',*,*,#399,.T.);
#548=ORIENTED_EDGE('',*,*,#398,.F.);
#549=ORIENTED_EDGE('',*,*,#399,.F.);
#550=ORIENTED_EDGE('',*,*,#400,.F.);
#551=ORIENTED_EDGE('',*,*,#372,.F.);
#552=ORIENTED_EDGE('',*,*,#401,.T.);
#553=ORIENTED_EDGE('',*,*,#402,.T.);
#554=ORIENTED_EDGE('',*,*,#401,.F.);
#555=ORIENTED_EDGE('',*,*,#402,.F.);
#556=ORIENTED_EDGE('',*,*,#403,.F.);
#557=ORIENTED_EDGE('',*,*,#371,.F.);
#558=ORIENTED_EDGE('',*,*,#404,.T.);
#559=ORIENTED_EDGE('',*,*,#405,.T.);
#560=ORIENTED_EDGE('',*,*,#404,.F.);
#561=ORIENTED_EDGE('',*,*,#405,.F.);
#562=ORIENTED_EDGE('',*,*,#406,.F.);
#563=ORIENTED_EDGE('',*,*,#358,.T.);
#564=ORIENTED_EDGE('',*,*,#407,.T.);
#565=ORIENTED_EDGE('',*,*,#406,.T.);
#566=ORIENTED_EDGE('',*,*,#407,.F.);
#567=ORIENTED_EDGE('',*,*,#359,.T.);
#568=ORIENTED_EDGE('',*,*,#408,.T.);
#569=ORIENTED_EDGE('',*,*,#397,.T.);
#570=ORIENTED_EDGE('',*,*,#408,.F.);
#571=ORIENTED_EDGE('',*,*,#360,.T.);
#572=ORIENTED_EDGE('',*,*,#409,.T.);
#573=ORIENTED_EDGE('',*,*,#400,.T.);
#574=ORIENTED_EDGE('',*,*,#409,.F.);
#575=ORIENTED_EDGE('',*,*,#361,.T.);
#576=ORIENTED_EDGE('',*,*,#410,.T.);
#577=ORIENTED_EDGE('',*,*,#403,.T.);
#578=ORIENTED_EDGE('',*,*,#410,.F.);
#579=PLANE('',#637);
#580=PLANE('',#638);
#581=PLANE('',#639);
#582=PLANE('',#640);
#583=PLANE('',#641);
#584=PLANE('',#650);
#585=PLANE('',#660);
#586=PLANE('',#676);
#587=PLANE('',#677);
#588=PLANE('',#678);
#589=PLANE('',#679);
#590=PLANE('',#680);
#591=PLANE('',#681);
#592=PLANE('',#682);
#593=PLANE('',#683);
#594=PLANE('',#684);
#595=PLANE('',#687);
#596=PLANE('',#691);
#597=PLANE('',#695);
#598=PLANE('',#699);
#599=ADVANCED_FACE('',(#79),#579,.T.);
#600=ADVANCED_FACE('',(#80),#580,.T.);
#601=ADVANCED_FACE('',(#81),#581,.T.);
#602=ADVANCED_FACE('',(#82),#582,.T.);
#603=ADVANCED_FACE('',(#83,#31),#583,.F.);
#604=ADVANCED_FACE('',(#84),#15,.F.);
#605=ADVANCED_FACE('',(#85),#16,.F.);
#606=ADVANCED_FACE('',(#86,#32,#33,#34,#35,#36),#584,.F.);
#607=ADVANCED_FACE('',(#87,#37,#38,#39,#40,#41,#42),#585,.T.);
#608=ADVANCED_FACE('',(#88),#17,.F.);
#609=ADVANCED_FACE('',(#89),#18,.F.);
#610=ADVANCED_FACE('',(#90),#19,.T.);
#611=ADVANCED_FACE('',(#91),#20,.T.);
#612=ADVANCED_FACE('',(#92),#21,.T.);
#613=ADVANCED_FACE('',(#93),#22,.T.);
#614=ADVANCED_FACE('',(#94),#586,.T.);
#615=ADVANCED_FACE('',(#95),#587,.T.);
#616=ADVANCED_FACE('',(#96),#588,.T.);
#617=ADVANCED_FACE('',(#97),#589,.T.);
#618=ADVANCED_FACE('',(#98),#590,.T.);
#619=ADVANCED_FACE('',(#99),#591,.T.);
#620=ADVANCED_FACE('',(#100),#592,.T.);
#621=ADVANCED_FACE('',(#101),#593,.T.);
#622=ADVANCED_FACE('',(#102),#594,.T.);
#623=ADVANCED_FACE('',(#103),#23,.F.);
#624=ADVANCED_FACE('',(#104,#43),#595,.T.);
#625=ADVANCED_FACE('',(#105),#24,.F.);
#626=ADVANCED_FACE('',(#106,#44),#596,.T.);
#627=ADVANCED_FACE('',(#107),#25,.F.);
#628=ADVANCED_FACE('',(#108,#45),#597,.T.);
#629=ADVANCED_FACE('',(#109),#26,.F.);
#630=ADVANCED_FACE('',(#110,#46),#598,.T.);
#631=ADVANCED_FACE('',(#111),#27,.F.);
#632=ADVANCED_FACE('',(#112),#28,.F.);
#633=ADVANCED_FACE('',(#113),#29,.F.);
#634=ADVANCED_FACE('',(#114),#30,.F.);
#635=CLOSED_SHELL('',(#599,#600,#601,#602,#603,#604,#605,#606,#607,#608,
#609,#610,#611,#612,#613,#614,#615,#616,#617,#618,#619,#620,#621,#622,#623,
#624,#625,#626,#627,#628,#629,#630,#631,#632,#633,#634));
#636=AXIS2_PLACEMENT_3D('',#895,#705,#706);
#637=AXIS2_PLACEMENT_3D('',#896,#707,#708);
#638=AXIS2_PLACEMENT_3D('',#905,#713,#714);
#639=AXIS2_PLACEMENT_3D('',#914,#719,#720);
#640=AXIS2_PLACEMENT_3D('',#923,#725,#726);
#641=AXIS2_PLACEMENT_3D('',#932,#731,#732);
#642=AXIS2_PLACEMENT_3D('',#933,#733,#734);
#643=AXIS2_PLACEMENT_3D('',#934,#735,#736);
#644=AXIS2_PLACEMENT_3D('',#935,#737,#738);
#645=AXIS2_PLACEMENT_3D('',#936,#739,#740);
#646=AXIS2_PLACEMENT_3D('',#937,#741,#742);
#647=AXIS2_PLACEMENT_3D('',#938,#743,#744);
#648=AXIS2_PLACEMENT_3D('',#939,#745,#746);
#649=AXIS2_PLACEMENT_3D('',#940,#747,#748);
#650=AXIS2_PLACEMENT_3D('',#941,#749,#750);
#651=AXIS2_PLACEMENT_3D('',#944,#751,#752);
#652=AXIS2_PLACEMENT_3D('',#948,#754,#755);
#653=AXIS2_PLACEMENT_3D('',#952,#757,#758);
#654=AXIS2_PLACEMENT_3D('',#956,#760,#761);
#655=AXIS2_PLACEMENT_3D('',#958,#763,#764);
#656=AXIS2_PLACEMENT_3D('',#960,#765,#766);
#657=AXIS2_PLACEMENT_3D('',#962,#767,#768);
#658=AXIS2_PLACEMENT_3D('',#964,#769,#770);
#659=AXIS2_PLACEMENT_3D('',#966,#771,#772);
#660=AXIS2_PLACEMENT_3D('',#967,#773,#774);
#661=AXIS2_PLACEMENT_3D('',#970,#775,#776);
#662=AXIS2_PLACEMENT_3D('',#974,#778,#779);
#663=AXIS2_PLACEMENT_3D('',#978,#781,#782);
#664=AXIS2_PLACEMENT_3D('',#982,#784,#785);
#665=AXIS2_PLACEMENT_3D('',#984,#787,#788);
#666=AXIS2_PLACEMENT_3D('',#986,#789,#790);
#667=AXIS2_PLACEMENT_3D('',#988,#791,#792);
#668=AXIS2_PLACEMENT_3D('',#990,#793,#794);
#669=AXIS2_PLACEMENT_3D('',#992,#795,#796);
#670=AXIS2_PLACEMENT_3D('',#1001,#801,#802);
#671=AXIS2_PLACEMENT_3D('',#1002,#803,#804);
#672=AXIS2_PLACEMENT_3D('',#1003,#805,#806);
#673=AXIS2_PLACEMENT_3D('',#1006,#809,#810);
#674=AXIS2_PLACEMENT_3D('',#1009,#813,#814);
#675=AXIS2_PLACEMENT_3D('',#1012,#817,#818);
#676=AXIS2_PLACEMENT_3D('',#1015,#821,#822);
#677=AXIS2_PLACEMENT_3D('',#1016,#823,#824);
#678=AXIS2_PLACEMENT_3D('',#1017,#825,#826);
#679=AXIS2_PLACEMENT_3D('',#1018,#827,#828);
#680=AXIS2_PLACEMENT_3D('',#1024,#832,#833);
#681=AXIS2_PLACEMENT_3D('',#1028,#836,#837);
#682=AXIS2_PLACEMENT_3D('',#1032,#840,#841);
#683=AXIS2_PLACEMENT_3D('',#1034,#843,#844);
#684=AXIS2_PLACEMENT_3D('',#1035,#845,#846);
#685=AXIS2_PLACEMENT_3D('',#1036,#847,#848);
#686=AXIS2_PLACEMENT_3D('',#1039,#850,#851);
#687=AXIS2_PLACEMENT_3D('',#1040,#852,#853);
#688=AXIS2_PLACEMENT_3D('',#1042,#854,#855);
#689=AXIS2_PLACEMENT_3D('',#1043,#856,#857);
#690=AXIS2_PLACEMENT_3D('',#1046,#859,#860);
#691=AXIS2_PLACEMENT_3D('',#1047,#861,#862);
#692=AXIS2_PLACEMENT_3D('',#1049,#863,#864);
#693=AXIS2_PLACEMENT_3D('',#1050,#865,#866);
#694=AXIS2_PLACEMENT_3D('',#1053,#868,#869);
#695=AXIS2_PLACEMENT_3D('',#1054,#870,#871);
#696=AXIS2_PLACEMENT_3D('',#1056,#872,#873);
#697=AXIS2_PLACEMENT_3D('',#1057,#874,#875);
#698=AXIS2_PLACEMENT_3D('',#1060,#877,#878);
#699=AXIS2_PLACEMENT_3D('',#1061,#879,#880);
#700=AXIS2_PLACEMENT_3D('',#1063,#881,#882);
#701=AXIS2_PLACEMENT_3D('',#1064,#883,#884);
#702=AXIS2_PLACEMENT_3D('',#1066,#886,#887);
#703=AXIS2_PLACEMENT_3D('',#1068,#889,#890);
#704=AXIS2_PLACEMENT_3D('',#1070,#892,#893);
#705=DIRECTION('axis',(0.,0.,1.));
#706=DIRECTION('refdir',(1.,0.,0.));
#707=DIRECTION('center_axis',(-1.,1.22464679914735E-16,0.));
#708=DIRECTION('ref_axis',(0.,0.,-1.));
#709=DIRECTION('',(0.,0.,-1.));
#710=DIRECTION('',(1.22464679914735E-16,1.,0.));
#711=DIRECTION('',(0.,0.,1.));
#712=DIRECTION('',(-1.22464679914735E-16,-1.,0.));
#713=DIRECTION('center_axis',(1.,-1.22464679914735E-16,0.));
#714=DIRECTION('ref_axis',(0.,0.,1.));
#715=DIRECTION('',(1.22464679914735E-16,1.,0.));
#716=DIRECTION('',(0.,0.,1.));
#717=DIRECTION('',(5.53755778465038E-18,1.,0.));
#718=DIRECTION('',(0.,0.,-1.));
#719=DIRECTION('center_axis',(1.,-1.22464679914735E-16,0.));
#720=DIRECTION('ref_axis',(0.,0.,1.));
#721=DIRECTION('',(1.22464679914735E-16,1.,0.));
#722=DIRECTION('',(0.,0.,-1.));
#723=DIRECTION('',(-1.22464679914735E-16,-1.,0.));
#724=DIRECTION('',(0.,0.,1.));
#725=DIRECTION('center_axis',(-1.,1.22464679914735E-16,0.));
#726=DIRECTION('ref_axis',(0.,0.,-1.));
#727=DIRECTION('',(-1.22464679914735E-16,-1.,0.));
#728=DIRECTION('',(0.,0.,1.));
#729=DIRECTION('',(-1.14423774522197E-17,-1.,0.));
#730=DIRECTION('',(0.,0.,-1.));
#731=DIRECTION('center_axis',(0.,0.,1.));
#732=DIRECTION('ref_axis',(1.,-1.22464679914735E-16,0.));
#733=DIRECTION('center_axis',(0.,0.,1.));
#734=DIRECTION('ref_axis',(2.28847549044393E-17,1.,0.));
#735=DIRECTION('center_axis',(0.,0.,1.));
#736=DIRECTION('ref_axis',(1.,-1.22464679914735E-16,0.));
#737=DIRECTION('center_axis',(0.,0.,1.));
#738=DIRECTION('ref_axis',(1.,-1.22464679914735E-16,0.));
#739=DIRECTION('center_axis',(0.,0.,1.));
#740=DIRECTION('ref_axis',(2.28847549044393E-17,1.,0.));
#741=DIRECTION('center_axis',(0.,0.,1.));
#742=DIRECTION('ref_axis',(-3.06161699786838E-16,-1.,0.));
#743=DIRECTION('center_axis',(0.,0.,-1.));
#744=DIRECTION('ref_axis',(1.,-1.22464679914735E-16,0.));
#745=DIRECTION('center_axis',(0.,0.,1.));
#746=DIRECTION('ref_axis',(2.28847549044393E-17,1.,0.));
#747=DIRECTION('center_axis',(0.,0.,1.));
#748=DIRECTION('ref_axis',(2.28847549044393E-17,1.,0.));
#749=DIRECTION('center_axis',(0.,0.,1.));
#750=DIRECTION('ref_axis',(-2.28847549044393E-17,-1.,0.));
#751=DIRECTION('center_axis',(0.,0.,-1.));
#752=DIRECTION('ref_axis',(-1.35515238445463E-15,-1.,0.));
#753=DIRECTION('',(-1.,2.28847549044393E-17,0.));
#754=DIRECTION('center_axis',(0.,0.,-1.));
#755=DIRECTION('ref_axis',(-1.,1.79924159430469E-15,0.));
#756=DIRECTION('',(-2.28847549044393E-17,-1.,0.));
#757=DIRECTION('center_axis',(0.,0.,-1.));
#758=DIRECTION('ref_axis',(4.66973964754502E-16,1.,0.));
#759=DIRECTION('',(-1.,2.28847549044393E-17,0.));
#760=DIRECTION('center_axis',(0.,0.,-1.));
#761=DIRECTION('ref_axis',(1.,-1.79924159430469E-15,0.));
#762=DIRECTION('',(2.28847549044393E-17,1.,0.));
#763=DIRECTION('center_axis',(0.,0.,-1.));
#764=DIRECTION('ref_axis',(1.,-1.22464679914735E-16,0.));
#765=DIRECTION('center_axis',(0.,0.,-1.));
#766=DIRECTION('ref_axis',(-2.28847549044393E-17,-1.,0.));
#767=DIRECTION('center_axis',(0.,0.,-1.));
#768=DIRECTION('ref_axis',(-2.28847549044393E-17,-1.,0.));
#769=DIRECTION('center_axis',(0.,0.,-1.));
#770=DIRECTION('ref_axis',(-2.28847549044393E-17,-1.,0.));
#771=DIRECTION('center_axis',(0.,0.,-1.));
#772=DIRECTION('ref_axis',(-2.28847549044393E-17,-1.,0.));
#773=DIRECTION('center_axis',(0.,0.,1.));
#774=DIRECTION('ref_axis',(-2.28847549044393E-17,-1.,0.));
#775=DIRECTION('center_axis',(0.,0.,1.));
#776=DIRECTION('ref_axis',(-1.35515238445463E-15,-1.,0.));
#777=DIRECTION('',(-2.28847549044393E-17,-1.,0.));
#778=DIRECTION('center_axis',(0.,0.,1.));
#779=DIRECTION('ref_axis',(1.,-1.79924159430469E-15,0.));
#780=DIRECTION('',(1.,-2.28847549044393E-17,0.));
#781=DIRECTION('center_axis',(0.,0.,1.));
#782=DIRECTION('ref_axis',(4.66973964754502E-16,1.,0.));
#783=DIRECTION('',(2.28847549044393E-17,1.,0.));
#784=DIRECTION('center_axis',(0.,0.,1.));
#785=DIRECTION('ref_axis',(-1.,1.79924159430469E-15,0.));
#786=DIRECTION('',(1.,-2.28847549044393E-17,0.));
#787=DIRECTION('center_axis',(0.,0.,-1.));
#788=DIRECTION('ref_axis',(2.28847549044393E-17,1.,0.));
#789=DIRECTION('center_axis',(0.,0.,-1.));
#790=DIRECTION('ref_axis',(2.28847549044393E-17,1.,0.));
#791=DIRECTION('center_axis',(0.,0.,-1.));
#792=DIRECTION('ref_axis',(2.28847549044393E-17,1.,0.));
#793=DIRECTION('center_axis',(0.,0.,-1.));
#794=DIRECTION('ref_axis',(2.28847549044393E-17,1.,0.));
#795=DIRECTION('center_axis',(0.,0.,-1.));
#796=DIRECTION('ref_axis',(2.28847549044393E-17,1.,0.));
#797=DIRECTION('',(-2.28847549044393E-17,-1.,0.));
#798=DIRECTION('',(-1.,2.28847549044393E-17,0.));
#799=DIRECTION('',(2.28847549044393E-17,1.,0.));
#800=DIRECTION('',(1.,-2.28847549044393E-17,0.));
#801=DIRECTION('center_axis',(0.,0.,1.));
#802=DIRECTION('ref_axis',(2.28847549044393E-17,1.,0.));
#803=DIRECTION('center_axis',(0.,0.,1.));
#804=DIRECTION('ref_axis',(-3.06161699786838E-16,-1.,0.));
#805=DIRECTION('center_axis',(0.,0.,-1.));
#806=DIRECTION('ref_axis',(-1.35515238445463E-15,-1.,0.));
#807=DIRECTION('',(0.,0.,1.));
#808=DIRECTION('',(0.,0.,1.));
#809=DIRECTION('center_axis',(0.,0.,-1.));
#810=DIRECTION('ref_axis',(-1.,1.79924159430469E-15,0.));
#811=DIRECTION('',(0.,0.,1.));
#812=DIRECTION('',(0.,0.,1.));
#813=DIRECTION('center_axis',(0.,0.,-1.));
#814=DIRECTION('ref_axis',(1.,-1.79924159430469E-15,0.));
#815=DIRECTION('',(0.,0.,1.));
#816=DIRECTION('',(0.,0.,1.));
#817=DIRECTION('center_axis',(0.,0.,-1.));
#818=DIRECTION('ref_axis',(4.66973964754502E-16,1.,0.));
#819=DIRECTION('',(0.,0.,1.));
#820=DIRECTION('',(0.,0.,1.));
#821=DIRECTION('center_axis',(8.28507712503377E-17,-1.,0.));
#822=DIRECTION('ref_axis',(1.,8.28507712503377E-17,0.));
#823=DIRECTION('center_axis',(1.,-2.28847549044393E-17,0.));
#824=DIRECTION('ref_axis',(0.,0.,1.));
#825=DIRECTION('center_axis',(2.28847549044393E-17,1.,0.));
#826=DIRECTION('ref_axis',(-1.,2.28847549044393E-17,0.));
#827=DIRECTION('center_axis',(1.,-2.28847549044393E-17,0.));
#828=DIRECTION('ref_axis',(2.28847549044393E-17,1.,0.));
#829=DIRECTION('',(0.,0.,1.));
#830=DIRECTION('',(2.28847549044393E-17,1.,0.));
#831=DIRECTION('',(0.,0.,1.));
#832=DIRECTION('center_axis',(-2.28847549044393E-17,-1.,0.));
#833=DIRECTION('ref_axis',(1.,-2.28847549044393E-17,0.));
#834=DIRECTION('',(1.,-2.28847549044393E-17,0.));
#835=DIRECTION('',(0.,0.,1.));
#836=DIRECTION('center_axis',(-1.,2.28847549044393E-17,0.));
#837=DIRECTION('ref_axis',(-2.28847549044393E-17,-1.,0.));
#838=DIRECTION('',(-2.28847549044393E-17,-1.,0.));
#839=DIRECTION('',(0.,0.,1.));
#840=DIRECTION('center_axis',(2.28847549044393E-17,1.,0.));
#841=DIRECTION('ref_axis',(-1.,2.28847549044393E-17,0.));
#842=DIRECTION('',(-1.,2.28847549044393E-17,0.));
#843=DIRECTION('center_axis',(0.,0.,1.));
#844=DIRECTION('ref_axis',(-2.28847549044393E-17,-1.,0.));
#845=DIRECTION('center_axis',(-1.,2.28847549044393E-17,0.));
#846=DIRECTION('ref_axis',(0.,0.,-1.));
#847=DIRECTION('center_axis',(0.,0.,-1.));
#848=DIRECTION('ref_axis',(2.28847549044393E-17,1.,0.));
#849=DIRECTION('',(0.,0.,-1.));
#850=DIRECTION('center_axis',(0.,0.,-1.));
#851=DIRECTION('ref_axis',(2.28847549044393E-17,1.,0.));
#852=DIRECTION('center_axis',(0.,0.,1.));
#853=DIRECTION('ref_axis',(2.28847549044393E-17,1.,0.));
#854=DIRECTION('center_axis',(0.,0.,1.));
#855=DIRECTION('ref_axis',(-2.28847549044393E-17,-1.,0.));
#856=DIRECTION('center_axis',(0.,0.,-1.));
#857=DIRECTION('ref_axis',(2.28847549044393E-17,1.,0.));
#858=DIRECTION('',(0.,0.,-1.));
#859=DIRECTION('center_axis',(0.,0.,-1.));
#860=DIRECTION('ref_axis',(2.28847549044393E-17,1.,0.));
#861=DIRECTION('center_axis',(0.,0.,1.));
#862=DIRECTION('ref_axis',(2.28847549044393E-17,1.,0.));
#863=DIRECTION('center_axis',(0.,0.,1.));
#864=DIRECTION('ref_axis',(-2.28847549044393E-17,-1.,0.));
#865=DIRECTION('center_axis',(0.,0.,-1.));
#866=DIRECTION('ref_axis',(2.28847549044393E-17,1.,0.));
#867=DIRECTION('',(0.,0.,-1.));
#868=DIRECTION('center_axis',(0.,0.,-1.));
#869=DIRECTION('ref_axis',(2.28847549044393E-17,1.,0.));
#870=DIRECTION('center_axis',(0.,0.,1.));
#871=DIRECTION('ref_axis',(2.28847549044393E-17,1.,0.));
#872=DIRECTION('center_axis',(0.,0.,1.));
#873=DIRECTION('ref_axis',(-2.28847549044393E-17,-1.,0.));
#874=DIRECTION('center_axis',(0.,0.,-1.));
#875=DIRECTION('ref_axis',(2.28847549044393E-17,1.,0.));
#876=DIRECTION('',(0.,0.,-1.));
#877=DIRECTION('center_axis',(0.,0.,-1.));
#878=DIRECTION('ref_axis',(2.28847549044393E-17,1.,0.));
#879=DIRECTION('center_axis',(0.,0.,1.));
#880=DIRECTION('ref_axis',(2.28847549044393E-17,1.,0.));
#881=DIRECTION('center_axis',(0.,0.,1.));
#882=DIRECTION('ref_axis',(-2.28847549044393E-17,-1.,0.));
#883=DIRECTION('center_axis',(0.,0.,1.));
#884=DIRECTION('ref_axis',(-2.28847549044393E-17,-1.,0.));
#885=DIRECTION('',(0.,0.,1.));
#886=DIRECTION('center_axis',(0.,0.,1.));
#887=DIRECTION('ref_axis',(-2.28847549044393E-17,-1.,0.));
#888=DIRECTION('',(0.,0.,1.));
#889=DIRECTION('center_axis',(0.,0.,1.));
#890=DIRECTION('ref_axis',(-2.28847549044393E-17,-1.,0.));
#891=DIRECTION('',(0.,0.,1.));
#892=DIRECTION('center_axis',(0.,0.,1.));
#893=DIRECTION('ref_axis',(-2.28847549044393E-17,-1.,0.));
#894=DIRECTION('',(0.,0.,1.));
#895=CARTESIAN_POINT('',(0.,0.,0.));
#896=CARTESIAN_POINT('Origin',(2.15000000125526,3.6107262290086E-5,6.));
#897=CARTESIAN_POINT('',(2.14999999388214,-1.56996389273811,0.));
#898=CARTESIAN_POINT('',(2.14999999388214,-1.56996389273811,-8.10050000000003));
#899=CARTESIAN_POINT('',(2.14999998703567,-1.56996389273771,-8.10000000000003));
#900=CARTESIAN_POINT('',(2.15000000021629,3.61072622867553E-5,5.55111512312578E-16));
#901=CARTESIAN_POINT('',(2.15000000125526,-8.26248194636889,0.));
#902=CARTESIAN_POINT('',(2.15000000021629,3.61072622867553E-5,-8.10050000000003));
#903=CARTESIAN_POINT('',(2.14999999969681,3.6107262290086E-5,-6.02500000000003));
#904=CARTESIAN_POINT('',(2.15000000125526,1.8053631140047E-5,-8.10050000000003));
#905=CARTESIAN_POINT('Origin',(-3.49999999991849,1.23320306399943E-5,-17.5));
#906=CARTESIAN_POINT('',(-3.49999999997827,-1.57018766796936,-8.10050000000003));
#907=CARTESIAN_POINT('',(-3.49999999997828,1.23320306399943E-5,-8.10050000000003));
#908=CARTESIAN_POINT('',(-3.49999999991849,-0.78509383398468,-8.10050000000003));
#909=CARTESIAN_POINT('',(-3.49999999997827,-1.57018766796936,-12.5));
#910=CARTESIAN_POINT('',(-3.49999999997827,-1.57018766796936,-5.53750000000003));
#911=CARTESIAN_POINT('',(-3.49999999997828,1.23320306311125E-5,-12.5));
#912=CARTESIAN_POINT('',(-3.49999999991849,3.96240616601532,-12.5));
#913=CARTESIAN_POINT('',(-3.49999999997828,1.23320306399943E-5,-10.8));
#914=CARTESIAN_POINT('Origin',(-2.14999999874474,-1.56996389273771,6.));
#915=CARTESIAN_POINT('',(-2.14999999267337,-1.56996389273804,-8.10050000000003));
#916=CARTESIAN_POINT('',(-2.14999999969681,3.6107262290086E-5,-8.10050000000003));
#917=CARTESIAN_POINT('',(-2.14999999874474,3.77492421964646,-8.10050000000003));
#918=CARTESIAN_POINT('',(-2.14999999969681,3.6107262290086E-5,0.));
#919=CARTESIAN_POINT('',(-2.14999999969681,3.6107262290086E-5,-6.02500000000003));
#920=CARTESIAN_POINT('',(-2.14999999267337,-1.56996389273804,0.));
#921=CARTESIAN_POINT('',(-2.14999999874474,-7.92548194636889,0.));
#922=CARTESIAN_POINT('',(-2.14999998703566,-1.56996389273771,-0.23750000000003));
#923=CARTESIAN_POINT('Origin',(3.50000000008151,-1.57018766796936,-17.5));
#924=CARTESIAN_POINT('',(3.49999999997827,1.23320306399943E-5,-8.10050000000003));
#925=CARTESIAN_POINT('',(3.49999999997828,-1.57018766796936,-8.10050000000003));
#926=CARTESIAN_POINT('',(3.50000000008151,-1.57019383398468,-8.10050000000003));
#927=CARTESIAN_POINT('',(3.49999999997827,1.23320306311125E-5,-12.5));
#928=CARTESIAN_POINT('',(3.49999999997827,1.23320306399943E-5,-10.8));
#929=CARTESIAN_POINT('',(3.49999999997828,-1.57018766796936,-12.5));
#930=CARTESIAN_POINT('',(3.50000000008151,5.65740616601532,-12.5));
#931=CARTESIAN_POINT('',(3.49999999997828,-1.57018766796936,-5.53750000000003));
#932=CARTESIAN_POINT('Origin',(1.88843707961134E-15,-1.57019999999999,-8.10050000000003));
#933=CARTESIAN_POINT('Origin',(0.,0.,-8.10050000000003));
#934=CARTESIAN_POINT('Origin',(1.88843707961134E-15,-1.57019999999999,-8.10050000000003));
#935=CARTESIAN_POINT('Origin',(1.88843707961134E-15,-1.57019999999999,-8.10050000000003));
#936=CARTESIAN_POINT('Origin',(0.,0.,-8.10050000000003));
#937=CARTESIAN_POINT('Origin',(1.88843707961134E-15,-1.57019999999999,-0.23750000000003));
#938=CARTESIAN_POINT('Origin',(1.88843707961134E-15,-1.57019999999999,0.));
#939=CARTESIAN_POINT('Origin',(0.,0.,-10.8));
#940=CARTESIAN_POINT('Origin',(0.,0.,-12.5));
#941=CARTESIAN_POINT('Origin',(0.,9.99200722162641E-15,-12.5));
#942=CARTESIAN_POINT('',(22.,-25.,-12.5));
#943=CARTESIAN_POINT('',(17.,-30.,-12.5));
#944=CARTESIAN_POINT('Origin',(17.,-25.,-12.5));
#945=CARTESIAN_POINT('',(-17.,-30.,-12.5));
#946=CARTESIAN_POINT('',(-21.,-30.,-12.5));
#947=CARTESIAN_POINT('',(-22.,-25.,-12.5));
#948=CARTESIAN_POINT('Origin',(-17.,-25.,-12.5));
#949=CARTESIAN_POINT('',(-22.,25.,-12.5));
#950=CARTESIAN_POINT('',(-22.,30.,-12.5));
#951=CARTESIAN_POINT('',(-17.,30.,-12.5));
#952=CARTESIAN_POINT('Origin',(-17.,25.,-12.5));
#953=CARTESIAN_POINT('',(17.,30.,-12.5));
#954=CARTESIAN_POINT('',(21.,30.,-12.5));
#955=CARTESIAN_POINT('',(22.,25.,-12.5));
#956=CARTESIAN_POINT('Origin',(17.,25.,-12.5));
#957=CARTESIAN_POINT('',(22.,-30.,-12.5));
#958=CARTESIAN_POINT('Origin',(1.88843707961134E-15,-1.57019999999999,-12.5));
#959=CARTESIAN_POINT('',(-17.,25.0125,-12.5));
#960=CARTESIAN_POINT('Origin',(-17.,22.86,-12.5));
#961=CARTESIAN_POINT('',(17.,-20.7075,-12.5));
#962=CARTESIAN_POINT('Origin',(17.,-22.86,-12.5));
#963=CARTESIAN_POINT('',(-17.,-20.7075,-12.5));
#964=CARTESIAN_POINT('Origin',(-17.,-22.86,-12.5));
#965=CARTESIAN_POINT('',(17.,25.0125,-12.5));
#966=CARTESIAN_POINT('Origin',(17.,22.86,-12.5));
#967=CARTESIAN_POINT('Origin',(0.,9.99200722162641E-15,0.));
#968=CARTESIAN_POINT('',(17.,-30.,0.));
#969=CARTESIAN_POINT('',(22.,-25.,0.));
#970=CARTESIAN_POINT('Origin',(17.,-25.,0.));
#971=CARTESIAN_POINT('',(22.,25.,0.));
#972=CARTESIAN_POINT('',(22.,-15.,0.));
#973=CARTESIAN_POINT('',(17.,30.,0.));
#974=CARTESIAN_POINT('Origin',(17.,25.,0.));
#975=CARTESIAN_POINT('',(-17.,30.,0.));
#976=CARTESIAN_POINT('',(10.5,30.,0.));
#977=CARTESIAN_POINT('',(-22.,25.,0.));
#978=CARTESIAN_POINT('Origin',(-17.,25.,0.));
#979=CARTESIAN_POINT('',(-22.,-25.,0.));
#980=CARTESIAN_POINT('',(-22.,15.,0.));
#981=CARTESIAN_POINT('',(-17.,-30.,0.));
#982=CARTESIAN_POINT('Origin',(-17.,-25.,0.));
#983=CARTESIAN_POINT('',(21.,-30.,0.));
#984=CARTESIAN_POINT('Origin',(0.,0.,0.));
#985=CARTESIAN_POINT('',(-17.,19.11,0.));
#986=CARTESIAN_POINT('Origin',(-17.,22.86,0.));
#987=CARTESIAN_POINT('',(17.,19.11,0.));
#988=CARTESIAN_POINT('Origin',(17.,22.86,0.));
#989=CARTESIAN_POINT('',(-17.,-26.61,0.));
#990=CARTESIAN_POINT('Origin',(-17.,-22.86,0.));
#991=CARTESIAN_POINT('',(17.,-26.61,0.));
#992=CARTESIAN_POINT('Origin',(17.,-22.86,0.));
#993=CARTESIAN_POINT('',(14.75,15.,0.));
#994=CARTESIAN_POINT('',(14.75,-15.,0.));
#995=CARTESIAN_POINT('',(14.75,-7.49999999999999,0.));
#996=CARTESIAN_POINT('',(12.75,-15.,0.));
#997=CARTESIAN_POINT('',(6.375,-15.,0.));
#998=CARTESIAN_POINT('',(12.75,15.,0.));
#999=CARTESIAN_POINT('',(12.75,7.5,0.));
#1000=CARTESIAN_POINT('',(7.375,15.,0.));
#1001=CARTESIAN_POINT('Origin',(0.,0.,-6.02500000000003));
#1002=CARTESIAN_POINT('Origin',(1.88843707961134E-15,-1.57019999999999,
-5.53750000000003));
#1003=CARTESIAN_POINT('Origin',(17.,-25.,0.));
#1004=CARTESIAN_POINT('',(17.,-30.,0.));
#1005=CARTESIAN_POINT('',(22.,-25.,0.));
#1006=CARTESIAN_POINT('Origin',(-17.,-25.,0.));
#1007=CARTESIAN_POINT('',(-22.,-25.,0.));
#1008=CARTESIAN_POINT('',(-17.,-30.,0.));
#1009=CARTESIAN_POINT('Origin',(17.,25.,0.));
#1010=CARTESIAN_POINT('',(22.,25.,0.));
#1011=CARTESIAN_POINT('',(17.,30.,0.));
#1012=CARTESIAN_POINT('Origin',(-17.,25.,0.));
#1013=CARTESIAN_POINT('',(-17.,30.,0.));
#1014=CARTESIAN_POINT('',(-22.,25.,0.));
#1015=CARTESIAN_POINT('Origin',(-21.,-30.,-12.5));
#1016=CARTESIAN_POINT('Origin',(22.,-30.,-12.5));
#1017=CARTESIAN_POINT('Origin',(21.,30.,-12.5));
#1018=CARTESIAN_POINT('Origin',(14.75,-15.,0.));
#1019=CARTESIAN_POINT('',(14.75,15.,2.));
#1020=CARTESIAN_POINT('',(14.75,15.,0.));
#1021=CARTESIAN_POINT('',(14.75,-15.,2.));
#1022=CARTESIAN_POINT('',(14.75,-15.,2.));
#1023=CARTESIAN_POINT('',(14.75,-15.,0.));
#1024=CARTESIAN_POINT('Origin',(12.75,-15.,0.));
#1025=CARTESIAN_POINT('',(12.75,-15.,2.));
#1026=CARTESIAN_POINT('',(12.75,-15.,2.));
#1027=CARTESIAN_POINT('',(12.75,-15.,0.));
#1028=CARTESIAN_POINT('Origin',(12.75,15.,0.));
#1029=CARTESIAN_POINT('',(12.75,15.,2.));
#1030=CARTESIAN_POINT('',(12.75,15.,2.));
#1031=CARTESIAN_POINT('',(12.75,15.,0.));
#1032=CARTESIAN_POINT('Origin',(14.75,15.,0.));
#1033=CARTESIAN_POINT('',(14.75,15.,2.));
#1034=CARTESIAN_POINT('Origin',(13.75,0.,2.));
#1035=CARTESIAN_POINT('Origin',(-22.,30.,-12.5));
#1036=CARTESIAN_POINT('Origin',(17.,-22.86,0.));
#1037=CARTESIAN_POINT('',(17.,-26.61,-5.));
#1038=CARTESIAN_POINT('',(17.,-26.61,0.));
#1039=CARTESIAN_POINT('Origin',(17.,-22.86,-5.));
#1040=CARTESIAN_POINT('Origin',(17.,-22.86,-5.));
#1041=CARTESIAN_POINT('',(17.,-20.7075,-5.));
#1042=CARTESIAN_POINT('Origin',(17.,-22.86,-5.));
#1043=CARTESIAN_POINT('Origin',(-17.,-22.86,0.));
#1044=CARTESIAN_POINT('',(-17.,-26.61,-5.));
#1045=CARTESIAN_POINT('',(-17.,-26.61,0.));
#1046=CARTESIAN_POINT('Origin',(-17.,-22.86,-5.));
#1047=CARTESIAN_POINT('Origin',(-17.,-22.86,-5.));
#1048=CARTESIAN_POINT('',(-17.,-20.7075,-5.));
#1049=CARTESIAN_POINT('Origin',(-17.,-22.86,-5.));
#1050=CARTESIAN_POINT('Origin',(17.,22.86,0.));
#1051=CARTESIAN_POINT('',(17.,19.11,-5.));
#1052=CARTESIAN_POINT('',(17.,19.11,0.));
#1053=CARTESIAN_POINT('Origin',(17.,22.86,-5.));
#1054=CARTESIAN_POINT('Origin',(17.,22.86,-5.));
#1055=CARTESIAN_POINT('',(17.,25.0125,-5.));
#1056=CARTESIAN_POINT('Origin',(17.,22.86,-5.));
#1057=CARTESIAN_POINT('Origin',(-17.,22.86,0.));
#1058=CARTESIAN_POINT('',(-17.,19.11,-5.));
#1059=CARTESIAN_POINT('',(-17.,19.11,0.));
#1060=CARTESIAN_POINT('Origin',(-17.,22.86,-5.));
#1061=CARTESIAN_POINT('Origin',(-17.,22.86,-5.));
#1062=CARTESIAN_POINT('',(-17.,25.0125,-5.));
#1063=CARTESIAN_POINT('Origin',(-17.,22.86,-5.));
#1064=CARTESIAN_POINT('Origin',(-17.,22.86,-12.5));
#1065=CARTESIAN_POINT('',(-17.,25.0125,-12.5));
#1066=CARTESIAN_POINT('Origin',(17.,-22.86,-12.5));
#1067=CARTESIAN_POINT('',(17.,-20.7075,-12.5));
#1068=CARTESIAN_POINT('Origin',(-17.,-22.86,-12.5));
#1069=CARTESIAN_POINT('',(-17.,-20.7075,-12.5));
#1070=CARTESIAN_POINT('Origin',(17.,22.86,-12.5));
#1071=CARTESIAN_POINT('',(17.,25.0125,-12.5));
#1072=UNCERTAINTY_MEASURE_WITH_UNIT(LENGTH_MEASURE(0.01),#1076,
'DISTANCE_ACCURACY_VALUE',
'Maximum model space distance between geometric entities at asserted c
onnectivities');
#1073=UNCERTAINTY_MEASURE_WITH_UNIT(LENGTH_MEASURE(0.01),#1076,
'DISTANCE_ACCURACY_VALUE',
'Maximum model space distance between geometric entities at asserted c
onnectivities');
#1074=(
GEOMETRIC_REPRESENTATION_CONTEXT(3)
GLOBAL_UNCERTAINTY_ASSIGNED_CONTEXT((#1072))
GLOBAL_UNIT_ASSIGNED_CONTEXT((#1076,#1077,#1078))
REPRESENTATION_CONTEXT('','3D')
);
#1075=(
GEOMETRIC_REPRESENTATION_CONTEXT(3)
GLOBAL_UNCERTAINTY_ASSIGNED_CONTEXT((#1073))
GLOBAL_UNIT_ASSIGNED_CONTEXT((#1076,#1077,#1078))
REPRESENTATION_CONTEXT('','3D')
);
#1076=(
LENGTH_UNIT()
NAMED_UNIT(*)
SI_UNIT(.MILLI.,.METRE.)
);
#1077=(
NAMED_UNIT(*)
PLANE_ANGLE_UNIT()
SI_UNIT($,.RADIAN.)
);
#1078=(
NAMED_UNIT(*)
SI_UNIT($,.STERADIAN.)
SOLID_ANGLE_UNIT()
);
#1079=SHAPE_DEFINITION_REPRESENTATION(#1080,#1081);
#1080=PRODUCT_DEFINITION_SHAPE('',$,#1083);
#1081=SHAPE_REPRESENTATION('',(#636),#1074);
#1082=PRODUCT_DEFINITION_CONTEXT('part definition',#1087,'design');
#1083=PRODUCT_DEFINITION('2025-08-20-15-02-29-364','shutter-adapter',#1084,
#1082);
#1084=PRODUCT_DEFINITION_FORMATION('',$,#1089);
#1085=PRODUCT_RELATED_PRODUCT_CATEGORY('shutter-adapter',
'shutter-adapter',(#1089));
#1086=APPLICATION_PROTOCOL_DEFINITION('international standard',
'automotive_design',2009,#1087);
#1087=APPLICATION_CONTEXT(
'Core Data for Automotive Mechanical Design Process');
#1088=PRODUCT_CONTEXT('part definition',#1087,'mechanical');
#1089=PRODUCT('2025-08-20-15-02-29-364','shutter-adapter',$,(#1088));
#1090=PRESENTATION_STYLE_ASSIGNMENT((#1092));
#1091=PRESENTATION_STYLE_ASSIGNMENT((#1093));
#1092=SURFACE_STYLE_USAGE(.BOTH.,#1094);
#1093=SURFACE_STYLE_USAGE(.BOTH.,#1095);
#1094=SURFACE_SIDE_STYLE('',(#1096));
#1095=SURFACE_SIDE_STYLE('',(#1097));
#1096=SURFACE_STYLE_FILL_AREA(#1098);
#1097=SURFACE_STYLE_FILL_AREA(#1099);
#1098=FILL_AREA_STYLE('Steel - Satin',(#1100));
#1099=FILL_AREA_STYLE('Opaque(160,160,160)',(#1101));
#1100=FILL_AREA_STYLE_COLOUR('Steel - Satin',#1102);
#1101=FILL_AREA_STYLE_COLOUR('Opaque(160,160,160)',#1103);
#1102=COLOUR_RGB('Steel - Satin',0.627450980392157,0.627450980392157,0.627450980392157);
#1103=COLOUR_RGB('Opaque(160,160,160)',0.627450980392157,0.627450980392157,
0.627450980392157);
ENDSEC;
END-ISO-10303-21;
